<svg width="33" height="33" viewBox="0 0 33 33" fill="none" xmlns="http://www.w3.org/2000/svg">
<g clip-path="url(#clip0_896_4988)">
<path d="M32.4633 16.21C32.4686 17.3574 32.3473 18.5018 32.1018 19.6226C31.7045 21.5034 30.9696 23.2965 29.9328 24.9151C28.6725 26.901 26.9948 28.5886 25.0163 29.8605C22.4018 31.5378 19.3595 32.4264 16.2533 32.42C15.0873 32.4172 13.9245 32.2961 12.7829 32.0585C8.60871 31.1277 4.9709 28.5864 2.66065 24.9874C1.61908 23.3942 0.874415 21.6257 0.462678 19.7672C0.206713 18.5987 0.0758496 17.4062 0.0722656 16.21C0.0741951 15.0774 0.195365 13.948 0.433773 12.8408C0.822642 10.978 1.54261 9.20013 2.55944 7.59167C3.80662 5.61464 5.46344 3.92822 7.41808 2.64625C9.01307 1.60167 10.7804 0.847742 12.6383 0.419358C13.8327 0.139521 15.0555 -0.00119835 16.2823 7.68664e-06C17.3949 0.00432548 18.5043 0.120596 19.5937 0.347057C21.4477 0.757595 23.2148 1.49185 24.8138 2.5161C27.1492 3.96579 29.0744 5.98945 30.4059 8.3942C31.7374 10.799 32.4308 13.5047 32.42 16.2534L32.4633 16.21Z" fill="#FF0000"/>
<path d="M25.4645 16.2102C25.4645 18.0405 24.9217 19.8298 23.9048 21.3517C22.8879 22.8736 21.4426 24.0598 19.7515 24.7603C18.0604 25.4607 16.1997 25.644 14.4045 25.2869C12.6092 24.9298 10.9602 24.0484 9.66593 22.7541C8.37165 21.4599 7.49024 19.8109 7.13315 18.0156C6.77606 16.2204 6.95933 14.3596 7.65979 12.6686C8.36025 10.9775 9.54643 9.53215 11.0683 8.51525C12.5903 7.49834 14.3795 6.95557 16.2099 6.95557C18.6644 6.95557 21.0183 7.9306 22.7539 9.66617C24.4895 11.4017 25.4645 13.7557 25.4645 16.2102Z" fill="#F1F2F2"/>
<path d="M19.5213 0.346867L18.6103 4.68496C17.8216 4.51516 17.0166 4.43272 16.2099 4.43913C15.3094 4.43589 14.4116 4.5378 13.5348 4.7428L12.5659 0.404709C13.7603 0.124873 14.9831 -0.0158468 16.2099 -0.0146408C17.323 -0.00556692 18.4324 0.115546 19.5213 0.346867Z" fill="#F1F2F2"/>
<path d="M19.7094 32.0438C18.5597 32.2941 17.3865 32.4202 16.21 32.4198C15.0439 32.417 13.8811 32.2959 12.7395 32.0583L13.665 27.7202C14.5003 27.9067 15.354 27.9989 16.21 27.995C17.0612 27.9997 17.9102 27.9075 18.7405 27.7202L19.7094 32.0438Z" fill="#F1F2F2"/>
<path d="M32.4633 16.2102C32.4685 17.3575 32.3473 18.502 32.1018 19.6228L27.7637 18.7118C28.1295 17.0251 28.1295 15.2796 27.7637 13.5929L32.1018 12.624C32.3543 13.8024 32.4755 15.0051 32.4633 16.2102Z" fill="#F1F2F2"/>
<path d="M4.67066 18.7985L0.332573 19.7673C0.0766085 18.5988 -0.0542774 17.4063 -0.0578613 16.2101C-0.0559318 15.0774 0.0652385 13.9481 0.303646 12.8408L4.64174 13.7518C4.4743 14.5607 4.38713 15.3841 4.38146 16.2101C4.38012 17.081 4.47713 17.9493 4.67066 18.7985Z" fill="#F1F2F2"/>
<path d="M9.73166 6.33337C8.30262 7.26125 7.09351 8.49011 6.18889 9.93399L2.48706 7.59142C3.73424 5.61439 5.39108 3.92797 7.34572 2.646L9.73166 6.33337Z" fill="#F1F2F2"/>
<path d="M29.8894 24.9153C28.6291 26.9013 26.9514 28.5888 24.9729 29.8608L22.5869 26.1734C24.0334 25.2477 25.2619 24.0193 26.1875 22.5728L29.8894 24.9153Z" fill="#F1F2F2"/>
<path d="M29.8026 7.36031L26.1152 9.74626C25.1685 8.30999 23.9261 7.09231 22.4712 6.17457L24.8138 2.51611C26.8036 3.75599 28.5047 5.40779 29.8026 7.36031Z" fill="#F1F2F2"/>
<path d="M9.84746 26.1733L7.50489 29.8896C5.52835 28.6334 3.85033 26.9603 2.58838 24.9875L6.26131 22.6016C7.18283 24.0387 8.40663 25.2576 9.84746 26.1733Z" fill="#F1F2F2"/>
<path d="M17.7926 11V21.1818H15.3366V13.2969H15.277L13 14.6889V12.5611L15.5107 11H17.7926Z" fill="#181D3A"/>
</g>
<defs>
<clipPath id="clip0_896_4988">
<rect width="32.42" height="32.42" fill="white"/>
</clipPath>
</defs>
</svg>
