<svg width="34" height="33" viewBox="0 0 34 33" fill="none" xmlns="http://www.w3.org/2000/svg">
<g clip-path="url(#clip0_896_5013)">
<path d="M33.3032 16.21C33.3084 17.3574 33.1872 18.5018 32.9417 19.6226C32.5444 21.5034 31.8095 23.2965 30.7726 24.9151C29.5123 26.901 27.8346 28.5886 25.8561 29.8605C23.2417 31.5378 20.1994 32.4264 17.0932 32.42C15.9271 32.4172 14.7643 32.2961 13.6227 32.0585C9.44856 31.1277 5.81074 28.5864 3.50049 24.9874C2.45892 23.3942 1.71426 21.6257 1.30252 19.7672C1.04656 18.5987 0.915693 17.4062 0.912109 16.21C0.914039 15.0774 1.03521 13.948 1.27362 12.8408C1.66249 10.978 2.38245 9.20013 3.39928 7.59167C4.64646 5.61464 6.30328 3.92822 8.25792 2.64625C9.85291 1.60167 11.6202 0.847742 13.4781 0.419358C14.6725 0.139521 15.8953 -0.00119835 17.1221 7.68664e-06C18.2347 0.00432548 19.3442 0.120596 20.4335 0.347057C22.2875 0.757595 24.0547 1.49185 25.6537 2.5161C27.9891 3.96579 29.9143 5.98945 31.2457 8.3942C32.5772 10.799 33.2706 13.5047 33.2598 16.2534L33.3032 16.21Z" fill="#184E9F"/>
<path d="M26.3044 16.2102C26.3044 18.0405 25.7616 19.8298 24.7447 21.3517C23.7278 22.8736 22.2824 24.0598 20.5913 24.7603C18.9003 25.4607 17.0395 25.644 15.2443 25.2869C13.4491 24.9298 11.8001 24.0484 10.5058 22.7541C9.2115 21.4599 8.33009 19.8109 7.97299 18.0156C7.6159 16.2204 7.79918 14.3596 8.49963 12.6686C9.20009 10.9775 10.3863 9.53215 11.9082 8.51525C13.4301 7.49834 15.2194 6.95557 17.0498 6.95557C19.5042 6.95557 21.8582 7.9306 23.5937 9.66617C25.3293 11.4017 26.3044 13.7557 26.3044 16.2102Z" fill="#F1F2F2"/>
<path d="M20.3612 0.346867L19.4502 4.68496C18.6615 4.51516 17.8565 4.43272 17.0497 4.43913C16.1492 4.43589 15.2515 4.5378 14.3746 4.7428L13.4058 0.404709C14.6002 0.124873 15.823 -0.0158468 17.0497 -0.0146408C18.1629 -0.00556692 19.2723 0.115546 20.3612 0.346867Z" fill="#F1F2F2"/>
<path d="M20.5492 32.0438C19.3996 32.2941 18.2264 32.4202 17.0498 32.4198C15.8837 32.417 14.721 32.2959 13.5793 32.0583L14.5048 27.7202C15.3402 27.9067 16.1939 27.9989 17.0498 27.995C17.901 27.9997 18.75 27.9075 19.5804 27.7202L20.5492 32.0438Z" fill="#F1F2F2"/>
<path d="M33.3031 16.2102C33.3083 17.3575 33.1871 18.502 32.9416 19.6228L28.6035 18.7118C28.9694 17.0251 28.9694 15.2796 28.6035 13.5929L32.9416 12.624C33.1941 13.8024 33.3153 15.0051 33.3031 16.2102Z" fill="#F1F2F2"/>
<path d="M5.51051 18.7985L1.17242 19.7673C0.916452 18.5988 0.785566 17.4063 0.781982 16.2101C0.783912 15.0774 0.905082 13.9481 1.14349 12.8408L5.48158 13.7518C5.31414 14.5607 5.22697 15.3841 5.22131 16.2101C5.21996 17.081 5.31698 17.9493 5.51051 18.7985Z" fill="#F1F2F2"/>
<path d="M10.5715 6.33337C9.14246 7.26125 7.93336 8.49011 7.02874 9.93399L3.3269 7.59142C4.57408 5.61439 6.23092 3.92797 8.18557 2.646L10.5715 6.33337Z" fill="#F1F2F2"/>
<path d="M30.7292 24.9153C29.4689 26.9013 27.7912 28.5888 25.8127 29.8608L23.4268 26.1734C24.8733 25.2477 26.1017 24.0193 27.0274 22.5728L30.7292 24.9153Z" fill="#F1F2F2"/>
<path d="M30.6424 7.36031L26.955 9.74626C26.0083 8.30999 24.766 7.09231 23.311 6.17457L25.6536 2.51611C27.6435 3.75599 29.3446 5.40779 30.6424 7.36031Z" fill="#F1F2F2"/>
<path d="M10.6873 26.1733L8.34474 29.8896C6.3682 28.6334 4.69017 26.9603 3.42822 24.9875L7.10115 22.6016C8.02267 24.0387 9.24648 25.2576 10.6873 26.1733Z" fill="#F1F2F2"/>
<path d="M12 19.4915V17.5724L16.1712 11H17.8764V13.6051H16.8871L14.446 17.473V17.5526H20.4865V19.4915H12ZM16.9169 21.1818V18.9048L16.9666 18.0646V11H19.2685V21.1818H16.9169Z" fill="#181D3A"/>
</g>
<defs>
<clipPath id="clip0_896_5013">
<rect width="32.42" height="32.42" fill="white" transform="translate(0.839844)"/>
</clipPath>
</defs>
</svg>
