<svg width="35" height="35" viewBox="0 0 35 35" fill="none" xmlns="http://www.w3.org/2000/svg">
<g clip-path="url(#clip0_896_5001)">
<path d="M35.0469 17.5C35.0525 18.7387 34.9217 19.9742 34.6566 21.1842C34.2277 23.2146 33.4343 25.1505 32.315 26.8979C30.9544 29.0418 29.1432 30.8637 27.0072 32.2369C24.1847 34.0476 20.9003 35.0069 17.5469 35C16.288 34.997 15.0327 34.8662 13.8002 34.6097C9.29391 33.6048 5.3666 30.8613 2.87249 26.9759C1.74803 25.2559 0.94411 23.3466 0.499607 21.3403C0.223272 20.0788 0.0819941 18.7914 0.078125 17.5C0.080208 16.2772 0.211021 15.058 0.468402 13.8626C0.888217 11.8516 1.66548 9.93228 2.76323 8.19582C4.10966 6.06146 5.89833 4.24083 8.00852 2.85684C9.73044 1.72914 11.6384 0.915205 13.6441 0.452731C14.9336 0.150624 16.2537 -0.00129372 17.5781 8.29835e-06C18.7793 0.0046697 19.977 0.130193 21.1531 0.374676C23.1546 0.817885 25.0624 1.61058 26.7887 2.71634C29.3099 4.28138 31.3883 6.46609 32.8257 9.06222C34.2632 11.6583 35.0117 14.5794 35.0001 17.5468L35.0469 17.5Z" fill="#05A43B"/>
<path d="M27.4912 17.4999C27.4912 19.4759 26.9052 21.4076 25.8074 23.0506C24.7096 24.6936 23.1492 25.9742 21.3235 26.7304C19.4979 27.4866 17.489 27.6845 15.551 27.299C13.6129 26.9135 11.8326 25.9619 10.4354 24.5646C9.03808 23.1674 8.08652 21.3871 7.70101 19.449C7.31551 17.511 7.51336 15.5021 8.26956 13.6764C9.02576 11.8508 10.3063 10.2904 11.9494 9.19259C13.5924 8.09476 15.5241 7.50879 17.5001 7.50879C20.1499 7.50879 22.6912 8.56142 24.5649 10.4351C26.4386 12.3088 27.4912 14.8501 27.4912 17.4999Z" fill="#F1F2F2"/>
<path d="M21.0748 0.37466L20.0913 5.05798C19.2399 4.87467 18.3708 4.78567 17.4999 4.79259C16.5277 4.78909 15.5585 4.89911 14.6119 5.12042L13.5659 0.437105C14.8554 0.134999 16.1755 -0.0169187 17.4999 -0.0156167C18.7016 -0.00582077 19.8993 0.124931 21.0748 0.37466Z" fill="#F1F2F2"/>
<path d="M21.2779 34.594C20.0368 34.8642 18.7703 35.0003 17.5001 34.9999C16.2412 34.9968 14.9859 34.8661 13.7534 34.6096L14.7525 29.9263C15.6544 30.1276 16.576 30.2271 17.5001 30.2229C18.419 30.228 19.3356 30.1284 20.232 29.9263L21.2779 34.594Z" fill="#F1F2F2"/>
<path d="M35.0467 17.5C35.0524 18.7386 34.9215 19.9742 34.6565 21.1842L29.9731 20.2007C30.3681 18.3797 30.3681 16.4953 29.9731 14.6744L34.6565 13.6284C34.9291 14.9006 35.0599 16.199 35.0467 17.5Z" fill="#F1F2F2"/>
<path d="M5.04232 20.2945L0.359005 21.3405C0.082671 20.079 -0.0586309 18.7916 -0.0625 17.5002C-0.060417 16.2774 0.0703962 15.0582 0.327777 13.8628L5.0111 14.8463C4.83033 15.7195 4.73622 16.6085 4.73011 17.5002C4.72866 18.4404 4.83339 19.3778 5.04232 20.2945Z" fill="#F1F2F2"/>
<path d="M10.5062 6.83775C8.96342 7.83948 7.6581 9.16612 6.68149 10.7249L2.68506 8.19591C4.03149 6.06155 5.82018 4.24092 7.93038 2.85693L10.5062 6.83775Z" fill="#F1F2F2"/>
<path d="M32.2681 26.8976C30.9075 29.0416 29.0963 30.8635 26.9604 32.2366L24.3845 28.2558C25.9461 27.2565 27.2724 25.9303 28.2717 24.3687L32.2681 26.8976Z" fill="#F1F2F2"/>
<path d="M32.1743 7.94601L28.1935 10.5218C27.1715 8.97127 25.8303 7.65668 24.2595 6.6659L26.7885 2.71631C28.9367 4.05485 30.7732 5.8381 32.1743 7.94601Z" fill="#F1F2F2"/>
<path d="M10.6312 28.2558L8.10221 32.2679C5.96837 30.9118 4.15681 29.1056 2.79443 26.9757L6.75966 24.3999C7.75451 25.9514 9.07571 27.2673 10.6312 28.2558Z" fill="#F1F2F2"/>
<path d="M13.7423 23.0179V21.1071L17.7516 17.597C18.0522 17.325 18.308 17.0763 18.5192 16.8509C18.7303 16.6219 18.8913 16.3929 19.0022 16.1639C19.1131 15.9313 19.1686 15.6791 19.1686 15.4071C19.1686 15.103 19.1024 14.8436 18.97 14.6289C18.8376 14.4106 18.6551 14.2424 18.4225 14.1244C18.19 14.0063 17.9234 13.9472 17.6228 13.9472C17.3187 13.9472 17.0521 14.0099 16.8231 14.1351C16.5941 14.2568 16.4152 14.4339 16.2864 14.6664C16.1611 14.899 16.0985 15.1817 16.0985 15.5145H13.5813C13.5813 14.7666 13.7495 14.1208 14.0858 13.5769C14.4222 13.033 14.8945 12.6144 15.5028 12.321C16.1146 12.024 16.8249 11.8755 17.6336 11.8755C18.4673 11.8755 19.1918 12.015 19.8073 12.2941C20.4227 12.5732 20.8986 12.9632 21.235 13.4642C21.5749 13.9616 21.7449 14.5394 21.7449 15.1978C21.7449 15.6164 21.6608 16.0315 21.4926 16.443C21.3244 16.8545 21.0221 17.3089 20.5855 17.8063C20.1526 18.3036 19.5371 18.8994 18.7392 19.5936L17.4242 20.8066V20.8763H21.879V23.0179H13.7423Z" fill="#181D3A"/>
</g>
<defs>
<clipPath id="clip0_896_5001">
<rect width="35" height="35" fill="white"/>
</clipPath>
</defs>
</svg>
