<svg width="14" height="16" viewBox="0 0 14 16" fill="none" xmlns="http://www.w3.org/2000/svg">
<g clip-path="url(#clip0_896_4945)">
<path d="M13.5932 9.40407C13.5954 9.87094 13.546 10.3366 13.4461 10.7927C13.2845 11.558 12.9854 12.2876 12.5635 12.9462C12.0507 13.7543 11.368 14.441 10.563 14.9586C9.49914 15.6411 8.2612 16.0026 6.99727 16C6.52278 15.9989 6.04964 15.9496 5.58511 15.8529C3.88662 15.4742 2.40637 14.4401 1.46632 12.9757C1.04249 12.3274 0.739486 11.6077 0.571947 10.8515C0.467794 10.376 0.414544 9.89082 0.413086 9.40407C0.413871 8.94318 0.463176 8.48366 0.560186 8.0331C0.718419 7.27513 1.01138 6.5517 1.42513 5.89721C1.93262 5.09274 2.60679 4.40652 3.40215 3.88488C4.05116 3.45984 4.7703 3.15306 5.52627 2.97874C6.01229 2.86488 6.50986 2.80762 7.00904 2.80811C7.46178 2.80987 7.91321 2.85718 8.35648 2.94933C9.11089 3.11638 9.82995 3.41515 10.4806 3.83192C11.4309 4.42181 12.2143 5.24525 12.756 6.22376C13.2978 7.20227 13.58 8.30324 13.5756 9.42172L13.5932 9.40407Z" fill="#184E9F"/>
<path d="M10.7454 9.40394C10.7454 10.1487 10.5245 10.8768 10.1107 11.4961C9.69695 12.1154 9.10882 12.598 8.42072 12.883C7.73261 13.1681 6.97545 13.2426 6.24497 13.0973C5.51448 12.952 4.84348 12.5934 4.31683 12.0667C3.79018 11.5401 3.43153 10.8691 3.28623 10.1386C3.14092 9.40812 3.2155 8.65095 3.50052 7.96285C3.78554 7.27474 4.26821 6.68661 4.88748 6.27283C5.50676 5.85904 6.23483 5.63818 6.97962 5.63818C7.97836 5.63818 8.9362 6.03493 9.64241 6.74115C10.3486 7.44736 10.7454 8.4052 10.7454 9.40394Z" fill="#F1F2F2"/>
<path d="M8.32703 2.94935L7.95633 4.71455C7.63541 4.64545 7.30785 4.61191 6.97959 4.61452C6.61317 4.6132 6.24785 4.65467 5.89105 4.73808L5.49683 2.97289C5.98285 2.85902 6.4804 2.80176 6.97959 2.80225C7.43253 2.80594 7.88396 2.85522 8.32703 2.94935Z" fill="#F1F2F2"/>
<path d="M8.40346 15.8472C7.93567 15.949 7.45829 16.0003 6.97954 16.0002C6.50505 15.999 6.03191 15.9498 5.56738 15.8531L5.94396 14.0879C6.28388 14.1638 6.63125 14.2013 6.97954 14.1997C7.3259 14.2016 7.67136 14.1641 8.00924 14.0879L8.40346 15.8472Z" fill="#F1F2F2"/>
<path d="M13.5932 9.40405C13.5953 9.87093 13.546 10.3366 13.4461 10.7927L11.6809 10.422C11.8298 9.73565 11.8298 9.02538 11.6809 8.33905L13.4461 7.94482C13.5488 8.42431 13.5982 8.91371 13.5932 9.40405Z" fill="#F1F2F2"/>
<path d="M2.28418 10.4574L0.518978 10.8516C0.414824 10.3762 0.361566 9.89093 0.360107 9.40417C0.360893 8.94329 0.410198 8.48376 0.507207 8.0332L2.27241 8.4039C2.20427 8.73302 2.1688 9.06808 2.1665 9.40417C2.16595 9.75856 2.20543 10.1119 2.28418 10.4574Z" fill="#F1F2F2"/>
<path d="M4.34363 5.38518C3.76214 5.76275 3.27015 6.26277 2.90205 6.8503L1.39575 5.89709C1.90324 5.09263 2.57742 4.40641 3.37277 3.88477L4.34363 5.38518Z" fill="#F1F2F2"/>
<path d="M12.5459 12.9464C12.0331 13.7545 11.3504 14.4412 10.5453 14.9587L9.57446 13.4583C10.1631 13.0816 10.6629 12.5818 11.0396 11.9932L12.5459 12.9464Z" fill="#F1F2F2"/>
<path d="M12.5105 5.80317L11.0101 6.77403C10.6249 6.1896 10.1194 5.69411 9.52734 5.32068L10.4806 3.83203C11.2902 4.33654 11.9824 5.00867 12.5105 5.80317Z" fill="#F1F2F2"/>
<path d="M4.39053 13.4582L3.43733 14.9704C2.63306 14.4593 1.95026 13.7785 1.43677 12.9757L2.93131 12.0049C3.30628 12.5897 3.80425 13.0856 4.39053 13.4582Z" fill="#F1F2F2"/>
<path d="M4.9248 10.7394V9.95855L6.62208 7.28418H7.31596V8.34422H6.91339L5.92011 9.91809V9.95046H8.37802V10.7394H4.9248ZM6.92553 11.4272V10.5007L6.94576 10.1588V7.28418H7.88239V11.4272H6.92553Z" fill="#181D3A"/>
</g>
<g clip-path="url(#clip1_896_4945)">
<path d="M13.5932 8.13454C13.5954 8.60141 13.546 9.06709 13.4461 9.52316C13.2845 10.2884 12.9854 11.0181 12.5635 11.6767C12.0507 12.4848 11.368 13.1715 10.563 13.689C9.49914 14.3715 8.2612 14.7331 6.99727 14.7305C6.52278 14.7294 6.04964 14.6801 5.58511 14.5834C3.88662 14.2046 2.40637 13.1706 1.46632 11.7061C1.04249 11.0578 0.739486 10.3382 0.571947 9.582C0.467794 9.10651 0.414544 8.62129 0.413086 8.13454C0.413871 7.67365 0.463176 7.21413 0.560186 6.76357C0.718419 6.0056 1.01138 5.28217 1.42513 4.62767C1.93262 3.82321 2.60679 3.13699 3.40215 2.61535C4.05116 2.19031 4.7703 1.88353 5.52627 1.70921C6.01229 1.59535 6.50986 1.53809 7.00904 1.53858C7.46178 1.54033 7.91321 1.58765 8.35648 1.67979C9.11089 1.84684 9.82995 2.14562 10.4806 2.56239C11.4309 3.15228 12.2143 3.97572 12.756 4.95423C13.2978 5.93274 13.58 7.03371 13.5756 8.15219L13.5932 8.13454Z" fill="#184E9F"/>
<path d="M10.7454 8.13441C10.7454 8.87921 10.5245 9.60728 10.1107 10.2266C9.69695 10.8458 9.10882 11.3285 8.42072 11.6135C7.73261 11.8985 6.97545 11.9731 6.24497 11.8278C5.51448 11.6825 4.84348 11.3239 4.31683 10.7972C3.79018 10.2705 3.43153 9.59956 3.28623 8.86907C3.14092 8.13859 3.2155 7.38142 3.50052 6.69332C3.78554 6.00521 4.26821 5.41708 4.88748 5.0033C5.50676 4.58951 6.23483 4.36865 6.97962 4.36865C7.97836 4.36865 8.9362 4.7654 9.64241 5.47162C10.3486 6.17783 10.7454 7.13567 10.7454 8.13441Z" fill="#F1F2F2"/>
<path d="M8.32703 1.67982L7.95633 3.44502C7.63541 3.37592 7.30785 3.34238 6.97959 3.34499C6.61317 3.34367 6.24785 3.38514 5.89105 3.46855L5.49683 1.70335C5.98285 1.58949 6.4804 1.53223 6.97959 1.53272C7.43253 1.53641 7.88396 1.58569 8.32703 1.67982Z" fill="#F1F2F2"/>
<path d="M8.40346 14.5777C7.93567 14.6795 7.45829 14.7308 6.97954 14.7307C6.50505 14.7295 6.03191 14.6802 5.56738 14.5836L5.94396 12.8184C6.28388 12.8943 6.63125 12.9318 6.97954 12.9302C7.3259 12.9321 7.67136 12.8946 8.00924 12.8184L8.40346 14.5777Z" fill="#F1F2F2"/>
<path d="M13.5932 8.13452C13.5953 8.6014 13.546 9.06708 13.4461 9.52315L11.6809 9.15245C11.8298 8.46612 11.8298 7.75585 11.6809 7.06952L13.4461 6.67529C13.5488 7.15478 13.5982 7.64417 13.5932 8.13452Z" fill="#F1F2F2"/>
<path d="M2.28418 9.18788L0.518978 9.58211C0.414824 9.10662 0.361566 8.6214 0.360107 8.13464C0.360893 7.67376 0.410198 7.21423 0.507207 6.76367L2.27241 7.13436C2.20427 7.46349 2.1688 7.79854 2.1665 8.13464C2.16595 8.48903 2.20543 8.84235 2.28418 9.18788Z" fill="#F1F2F2"/>
<path d="M4.34363 4.11565C3.76214 4.49321 3.27015 4.99324 2.90205 5.58077L1.39575 4.62756C1.90324 3.82309 2.57742 3.13688 3.37277 2.61523L4.34363 4.11565Z" fill="#F1F2F2"/>
<path d="M12.5459 11.6768C12.0331 12.4849 11.3504 13.1716 10.5453 13.6892L9.57446 12.1887C10.1631 11.8121 10.6629 11.3122 11.0396 10.7236L12.5459 11.6768Z" fill="#F1F2F2"/>
<path d="M12.5105 4.53364L11.0101 5.5045C10.6249 4.92007 10.1194 4.42458 9.52734 4.05115L10.4806 2.5625C11.2902 3.06701 11.9824 3.73914 12.5105 4.53364Z" fill="#F1F2F2"/>
<path d="M4.39053 12.1887L3.43733 13.7009C2.63306 13.1898 1.95026 12.509 1.43677 11.7062L2.93131 10.7354C3.30628 11.3201 3.80425 11.8161 4.39053 12.1887Z" fill="#F1F2F2"/>
<path d="M4.9248 9.46989V8.68902L6.62208 6.01465H7.31596V7.07469H6.91339L5.92011 8.64856V8.68093H8.37802V9.46989H4.9248ZM6.92553 10.1577V9.23118L6.94576 8.88929V6.01465H7.88239V10.1577H6.92553Z" fill="#181D3A"/>
</g>
<g clip-path="url(#clip2_896_4945)">
<path d="M13.5935 6.86549C13.5956 7.33237 13.5463 7.79805 13.4464 8.25412C13.2847 9.0194 12.9857 9.74904 12.5638 10.4077C12.051 11.2157 11.3683 11.9024 10.5632 12.42C9.49939 13.1025 8.26145 13.4641 6.99751 13.4615C6.52303 13.4603 6.04989 13.411 5.58536 13.3144C3.88687 12.9356 2.40662 11.9015 1.46656 10.4371C1.04274 9.78879 0.73973 9.06915 0.572191 8.31296C0.468038 7.83747 0.414788 7.35225 0.41333 6.86549C0.414115 6.40461 0.46342 5.94508 0.56043 5.49452C0.718663 4.73655 1.01162 4.01312 1.42538 3.35863C1.93286 2.55417 2.60703 1.86795 3.40239 1.34631C4.0514 0.921263 4.77054 0.614483 5.52651 0.440171C6.01253 0.326303 6.5101 0.269044 7.00928 0.269534C7.46203 0.271291 7.91345 0.318603 8.35672 0.410751C9.11114 0.577802 9.83019 0.876576 10.4808 1.29335C11.4311 1.88324 12.2145 2.70668 12.7563 3.68519C13.2981 4.6637 13.5802 5.76467 13.5758 6.88314L13.5935 6.86549Z" fill="#184E9F"/>
<path d="M10.7456 6.86537C10.7456 7.61016 10.5248 8.33823 10.111 8.95751C9.6972 9.57678 9.10906 10.0594 8.42096 10.3445C7.73286 10.6295 6.9757 10.7041 6.24521 10.5588C5.51473 10.4135 4.84373 10.0548 4.31708 9.52816C3.79043 9.00151 3.43177 8.33051 3.28647 7.60003C3.14117 6.86954 3.21574 6.11237 3.50076 5.42427C3.78579 4.73617 4.26845 4.14804 4.88773 3.73425C5.507 3.32047 6.23507 3.09961 6.97987 3.09961C7.97861 3.09961 8.93644 3.49636 9.64266 4.20257C10.3489 4.90879 10.7456 5.86663 10.7456 6.86537Z" fill="#F1F2F2"/>
<path d="M8.32727 0.410775L7.95658 2.17597C7.63565 2.10688 7.3081 2.07334 6.97983 2.07595C6.61341 2.07463 6.2481 2.11609 5.8913 2.19951L5.49707 0.434311C5.98309 0.320444 6.48065 0.263184 6.97983 0.263675C7.43277 0.267367 7.8842 0.316649 8.32727 0.410775Z" fill="#F1F2F2"/>
<path d="M8.40371 13.3081C7.93591 13.41 7.45853 13.4613 6.97978 13.4611C6.5053 13.46 6.03216 13.4107 5.56763 13.314L5.9442 11.5488C6.28413 11.6247 6.63149 11.6622 6.97978 11.6606C7.32614 11.6625 7.6716 11.625 8.00948 11.5488L8.40371 13.3081Z" fill="#F1F2F2"/>
<path d="M13.5935 6.86548C13.5956 7.33235 13.5462 7.79804 13.4464 8.2541L11.6812 7.88341C11.83 7.19708 11.83 6.48681 11.6812 5.80048L13.4464 5.40625C13.5491 5.88574 13.5984 6.37513 13.5935 6.86548Z" fill="#F1F2F2"/>
<path d="M2.28442 7.91883L0.519222 8.31306C0.415068 7.83758 0.36181 7.35236 0.360352 6.8656C0.361137 6.40471 0.410442 5.94519 0.507451 5.49463L2.27265 5.86532C2.20452 6.19445 2.16905 6.5295 2.16674 6.8656C2.1662 7.21999 2.20567 7.5733 2.28442 7.91883Z" fill="#F1F2F2"/>
<path d="M4.34387 2.84661C3.76239 3.22417 3.27039 3.7242 2.9023 4.31172L1.396 3.35852C1.90348 2.55405 2.57766 1.86783 3.37302 1.34619L4.34387 2.84661Z" fill="#F1F2F2"/>
<path d="M12.5461 10.4078C12.0333 11.2159 11.3506 11.9026 10.5456 12.4201L9.57471 10.9197C10.1633 10.543 10.6632 10.0432 11.0398 9.45459L12.5461 10.4078Z" fill="#F1F2F2"/>
<path d="M12.5108 3.26459L11.0104 4.23545C10.6251 3.65103 10.1196 3.15554 9.52759 2.78211L10.4808 1.29346C11.2905 1.79797 11.9827 2.4701 12.5108 3.26459Z" fill="#F1F2F2"/>
<path d="M4.39078 10.9197L3.43757 12.4318C2.63331 11.9207 1.95051 11.2399 1.43701 10.4372L2.93155 9.46631C3.30652 10.0511 3.8045 10.547 4.39078 10.9197Z" fill="#F1F2F2"/>
<path d="M4.92505 8.20084V7.41998L6.62232 4.74561H7.3162V5.80564H6.91363L5.92035 7.37952V7.41188H8.37826V8.20084H4.92505ZM6.92577 8.88866V7.96213L6.946 7.62025V4.74561H7.88264V8.88866H6.92577Z" fill="#181D3A"/>
</g>
<defs>
<clipPath id="clip0_896_4945">
<rect width="13.1919" height="13.1919" fill="white" transform="translate(0.383545 2.80811)"/>
</clipPath>
<clipPath id="clip1_896_4945">
<rect width="13.1919" height="13.1919" fill="white" transform="translate(0.383545 1.53857)"/>
</clipPath>
<clipPath id="clip2_896_4945">
<rect width="13.1919" height="13.1919" fill="white" transform="translate(0.383789 0.269531)"/>
</clipPath>
</defs>
</svg>
