<svg width="14" height="17" viewBox="0 0 14 17" fill="none" xmlns="http://www.w3.org/2000/svg">
<g clip-path="url(#clip0_896_4859)">
<path d="M13.2094 10.1311C13.2116 10.598 13.1622 11.0637 13.0623 11.5197C12.9007 12.285 12.6016 13.0147 12.1797 13.6733C11.6669 14.4814 10.9843 15.1681 10.1792 15.6856C9.11535 16.3681 7.87742 16.7297 6.61348 16.7271C6.13899 16.7259 5.66586 16.6767 5.20132 16.58C3.50283 16.2012 2.02258 15.1672 1.08253 13.7027C0.658704 13.0544 0.355697 12.3348 0.188158 11.5786C0.0840046 11.1031 0.0307552 10.6179 0.0292969 10.1311C0.030082 9.67023 0.079387 9.21071 0.176397 8.76015C0.33463 8.00218 0.627589 7.27875 1.04134 6.62426C1.54883 5.81979 2.223 5.13357 3.01836 4.61193C3.66737 4.18689 4.38651 3.88011 5.14248 3.7058C5.6285 3.59193 6.12607 3.53467 6.62525 3.53516C7.07799 3.53692 7.52942 3.58423 7.97269 3.67638C8.72711 3.84343 9.44616 4.1422 10.0968 4.55898C11.0471 5.14886 11.8305 5.9723 12.3723 6.95081C12.914 7.92932 13.1962 9.03029 13.1918 10.1488L13.2094 10.1311Z" fill="#FF0000"/>
<path d="M10.3618 10.131C10.3618 10.8758 10.141 11.6039 9.72719 12.2231C9.31341 12.8424 8.72527 13.3251 8.03717 13.6101C7.34907 13.8951 6.59191 13.9697 5.86142 13.8244C5.13094 13.6791 4.45994 13.3204 3.93329 12.7938C3.40664 12.2671 3.04798 11.5961 2.90268 10.8657C2.75738 10.1352 2.83195 9.378 3.11698 8.6899C3.402 8.0018 3.88466 7.41367 4.50394 6.99988C5.12321 6.58609 5.85128 6.36523 6.59608 6.36523C7.59482 6.36523 8.55265 6.76198 9.25887 7.4682C9.96509 8.17441 10.3618 9.13225 10.3618 10.131Z" fill="#F1F2F2"/>
<path d="M7.94324 3.6764L7.57254 5.4416C7.25162 5.37251 6.92406 5.33896 6.5958 5.34157C6.22938 5.34025 5.86406 5.38172 5.50726 5.46513L5.11304 3.69994C5.59906 3.58607 6.09662 3.52881 6.5958 3.5293C7.04874 3.53299 7.50017 3.58227 7.94324 3.6764Z" fill="#F1F2F2"/>
<path d="M8.01992 16.5738C7.55212 16.6756 7.07474 16.7269 6.59599 16.7268C6.12151 16.7256 5.64837 16.6763 5.18384 16.5797L5.56041 14.8145C5.90034 14.8903 6.2477 14.9279 6.59599 14.9263C6.94236 14.9282 7.28781 14.8907 7.62569 14.8145L8.01992 16.5738Z" fill="#F1F2F2"/>
<path d="M13.2094 10.1311C13.2115 10.598 13.1622 11.0637 13.0623 11.5197L11.2971 11.149C11.446 10.4627 11.446 9.75243 11.2971 9.0661L13.0623 8.67188C13.1651 9.15137 13.2144 9.64076 13.2094 10.1311Z" fill="#F1F2F2"/>
<path d="M1.90063 11.1845L0.135433 11.5787C0.0312792 11.1032 -0.0219792 10.618 -0.0234375 10.1312C-0.0226524 9.67034 0.0266526 9.21082 0.123662 8.76025L1.88886 9.13095C1.82073 9.46008 1.78526 9.79513 1.78295 10.1312C1.78241 10.4856 1.82188 10.8389 1.90063 11.1845Z" fill="#F1F2F2"/>
<path d="M3.96008 6.11223C3.3786 6.4898 2.8866 6.98982 2.51851 7.57735L1.01221 6.62414C1.51969 5.81968 2.19387 5.13346 2.98923 4.61182L3.96008 6.11223Z" fill="#F1F2F2"/>
<path d="M12.1621 13.6734C11.6493 14.4815 10.9666 15.1682 10.1615 15.6858L9.19067 14.1853C9.77926 13.8087 10.2791 13.3088 10.6558 12.7202L12.1621 13.6734Z" fill="#F1F2F2"/>
<path d="M12.127 6.53022L10.6266 7.50108C10.2413 6.91665 9.73583 6.42117 9.1438 6.04773L10.097 4.55908C10.9067 5.06359 11.5989 5.73572 12.127 6.53022Z" fill="#F1F2F2"/>
<path d="M4.00699 14.1853L3.05379 15.6975C2.24952 15.1863 1.56672 14.5056 1.05322 13.7028L2.54776 12.7319C2.92273 13.3167 3.42071 13.8127 4.00699 14.1853Z" fill="#F1F2F2"/>
<path d="M7.23994 8.01123V12.1543H6.24059V8.94584H6.21632L5.28979 9.51228V8.64644L6.3114 8.01123H7.23994Z" fill="#181D3A"/>
</g>
<g clip-path="url(#clip1_896_4859)">
<path d="M13.2094 8.36354C13.2116 8.83041 13.1622 9.2961 13.0623 9.75216C12.9007 10.5174 12.6016 11.2471 12.1797 11.9057C11.6669 12.7138 10.9843 13.4005 10.1792 13.918C9.11535 14.6005 7.87742 14.9621 6.61348 14.9595C6.13899 14.9584 5.66586 14.9091 5.20132 14.8124C3.50283 14.4336 2.02258 13.3996 1.08253 11.9351C0.658704 11.2868 0.355697 10.5672 0.188158 9.811C0.0840046 9.33552 0.0307552 8.8503 0.0292969 8.36354C0.030082 7.90265 0.079387 7.44313 0.176397 6.99257C0.33463 6.2346 0.627589 5.51117 1.04134 4.85668C1.54883 4.05221 2.223 3.366 3.01836 2.84435C3.66737 2.41931 4.38651 2.11253 5.14248 1.93822C5.6285 1.82435 6.12607 1.76709 6.62525 1.76758C7.07799 1.76934 7.52942 1.81665 7.97269 1.9088C8.72711 2.07585 9.44616 2.37462 10.0968 2.7914C11.0471 3.38128 11.8305 4.20473 12.3723 5.18324C12.914 6.16175 13.1962 7.26271 13.1918 8.38119L13.2094 8.36354Z" fill="#FF0000"/>
<path d="M10.3618 8.36341C10.3618 9.10821 10.141 9.83628 9.72719 10.4556C9.31341 11.0748 8.72527 11.5575 8.03717 11.8425C7.34907 12.1275 6.59191 12.2021 5.86142 12.0568C5.13094 11.9115 4.45994 11.5529 3.93329 11.0262C3.40664 10.4996 3.04798 9.82856 2.90268 9.09807C2.75738 8.36759 2.83195 7.61042 3.11698 6.92232C3.402 6.23422 3.88466 5.64609 4.50394 5.2323C5.12321 4.81851 5.85128 4.59766 6.59608 4.59766C7.59482 4.59766 8.55265 4.9944 9.25887 5.70062C9.96509 6.40684 10.3618 7.36467 10.3618 8.36341Z" fill="#F1F2F2"/>
<path d="M7.94324 1.90882L7.57254 3.67402C7.25162 3.60493 6.92406 3.57138 6.5958 3.57399C6.22938 3.57267 5.86406 3.61414 5.50726 3.69756L5.11304 1.93236C5.59906 1.81849 6.09662 1.76123 6.5958 1.76172C7.04874 1.76541 7.50017 1.8147 7.94324 1.90882Z" fill="#F1F2F2"/>
<path d="M8.01992 14.8062C7.55212 14.908 7.07474 14.9593 6.59599 14.9592C6.12151 14.958 5.64837 14.9087 5.18384 14.8121L5.56041 13.0469C5.90034 13.1228 6.2477 13.1603 6.59599 13.1587C6.94236 13.1606 7.28781 13.1231 7.62569 13.0469L8.01992 14.8062Z" fill="#F1F2F2"/>
<path d="M13.2094 8.36353C13.2115 8.8304 13.1622 9.29609 13.0623 9.75215L11.2971 9.38146C11.446 8.69513 11.446 7.98486 11.2971 7.29852L13.0623 6.9043C13.1651 7.38379 13.2144 7.87318 13.2094 8.36353Z" fill="#F1F2F2"/>
<path d="M1.90063 9.41688L0.135433 9.81111C0.0312792 9.33562 -0.0219792 8.8504 -0.0234375 8.36365C-0.0226524 7.90276 0.0266526 7.44324 0.123662 6.99268L1.88886 7.36337C1.82073 7.6925 1.78526 8.02755 1.78295 8.36365C1.78241 8.71804 1.82188 9.07135 1.90063 9.41688Z" fill="#F1F2F2"/>
<path d="M3.96008 4.34466C3.3786 4.72222 2.8866 5.22225 2.51851 5.80977L1.01221 4.85656C1.51969 4.0521 2.19387 3.36588 2.98923 2.84424L3.96008 4.34466Z" fill="#F1F2F2"/>
<path d="M12.1621 11.9058C11.6493 12.7139 10.9666 13.4006 10.1615 13.9182L9.19067 12.4178C9.77926 12.0411 10.2791 11.5412 10.6558 10.9526L12.1621 11.9058Z" fill="#F1F2F2"/>
<path d="M12.127 4.76264L10.6266 5.7335C10.2413 5.14907 9.73583 4.65359 9.1438 4.28015L10.097 2.7915C10.9067 3.29602 11.5989 3.96815 12.127 4.76264Z" fill="#F1F2F2"/>
<path d="M4.00699 12.4177L3.05379 13.9299C2.24952 13.4188 1.56672 12.738 1.05322 11.9352L2.54776 10.9644C2.92273 11.5491 3.42071 12.0451 4.00699 12.4177Z" fill="#F1F2F2"/>
<path d="M7.23994 6.24365V10.3867H6.24059V7.17827H6.21632L5.28979 7.7447V6.87887L6.3114 6.24365H7.23994Z" fill="#181D3A"/>
</g>
<g clip-path="url(#clip2_896_4859)">
<path d="M13.2094 6.59596C13.2116 7.06283 13.1622 7.52852 13.0623 7.98459C12.9007 8.74987 12.6016 9.47951 12.1797 10.1381C11.6669 10.9462 10.9843 11.6329 10.1792 12.1505C9.11535 12.833 7.87742 13.1945 6.61348 13.1919C6.13899 13.1908 5.66586 13.1415 5.20132 13.0448C3.50283 12.6661 2.02258 11.632 1.08253 10.1675C0.658704 9.51926 0.355697 8.79962 0.188158 8.04342C0.0840046 7.56794 0.0307552 7.08272 0.0292969 6.59596C0.030082 6.13508 0.079387 5.67555 0.176397 5.22499C0.33463 4.46702 0.627589 3.74359 1.04134 3.0891C1.54883 2.28463 2.223 1.59842 3.01836 1.07678C3.66737 0.651732 4.38651 0.344952 5.14248 0.170639C5.6285 0.0567721 6.12607 -0.000487618 6.62525 3.12775e-06C7.07799 0.00176007 7.52942 0.0490713 7.97269 0.14122C8.72711 0.30827 9.44616 0.607045 10.0968 1.02382C11.0471 1.6137 11.8305 2.43715 12.3723 3.41566C12.914 4.39417 13.1962 5.49513 13.1918 6.61361L13.2094 6.59596Z" fill="#FF0000"/>
<path d="M10.3618 6.59583C10.3618 7.34063 10.141 8.0687 9.72719 8.68798C9.31341 9.30725 8.72527 9.78992 8.03717 10.0749C7.34907 10.36 6.59191 10.4345 5.86142 10.2892C5.13094 10.1439 4.45994 9.78528 3.93329 9.25863C3.40664 8.73198 3.04798 8.06098 2.90268 7.3305C2.75738 6.60001 2.83195 5.84284 3.11698 5.15474C3.402 4.46664 3.88466 3.87851 4.50394 3.46472C5.12321 3.05094 5.85128 2.83008 6.59608 2.83008C7.59482 2.83008 8.55265 3.22683 9.25887 3.93304C9.96509 4.63926 10.3618 5.59709 10.3618 6.59583Z" fill="#F1F2F2"/>
<path d="M7.94324 0.141244L7.57254 1.90644C7.25162 1.83735 6.92406 1.80381 6.5958 1.80641C6.22938 1.80509 5.86406 1.84656 5.50726 1.92998L5.11304 0.16478C5.59906 0.0509128 6.09662 -0.00634699 6.5958 -0.00585625C7.04874 -0.00216404 7.50017 0.0471177 7.94324 0.141244Z" fill="#F1F2F2"/>
<path d="M8.01992 13.0386C7.55212 13.1405 7.07474 13.1917 6.59599 13.1916C6.12151 13.1905 5.64837 13.1412 5.18384 13.0445L5.56041 11.2793C5.90034 11.3552 6.2477 11.3927 6.59599 11.3911C6.94236 11.393 7.28781 11.3555 7.62569 11.2793L8.01992 13.0386Z" fill="#F1F2F2"/>
<path d="M13.2094 6.59595C13.2115 7.06282 13.1622 7.52851 13.0623 7.98457L11.2971 7.61388C11.446 6.92755 11.446 6.21728 11.2971 5.53095L13.0623 5.13672C13.1651 5.61621 13.2144 6.1056 13.2094 6.59595Z" fill="#F1F2F2"/>
<path d="M1.90063 7.6493L0.135433 8.04353C0.0312792 7.56805 -0.0219792 7.08283 -0.0234375 6.59607C-0.0226524 6.13518 0.0266526 5.67566 0.123662 5.2251L1.88886 5.59579C1.82073 5.92492 1.78526 6.25997 1.78295 6.59607C1.78241 6.95046 1.82188 7.30377 1.90063 7.6493Z" fill="#F1F2F2"/>
<path d="M3.96008 2.57708C3.3786 2.95464 2.8866 3.45467 2.51851 4.04219L1.01221 3.08898C1.51969 2.28452 2.19387 1.5983 2.98923 1.07666L3.96008 2.57708Z" fill="#F1F2F2"/>
<path d="M12.1621 10.1383C11.6493 10.9464 10.9666 11.633 10.1615 12.1506L9.19067 10.6502C9.77926 10.2735 10.2791 9.77365 10.6558 9.18506L12.1621 10.1383Z" fill="#F1F2F2"/>
<path d="M12.127 2.99506L10.6266 3.96592C10.2413 3.38149 9.73583 2.88601 9.1438 2.51258L10.097 1.02393C10.9067 1.52844 11.5989 2.20057 12.127 2.99506Z" fill="#F1F2F2"/>
<path d="M4.00699 10.6501L3.05379 12.1623C2.24952 11.6512 1.56672 10.9704 1.05322 10.1676L2.54776 9.19678C2.92273 9.78155 3.42071 10.2775 4.00699 10.6501Z" fill="#F1F2F2"/>
<path d="M7.23994 4.47607V8.61912H6.24059V5.41069H6.21632L5.28979 5.97712V5.11129L6.3114 4.47607H7.23994Z" fill="#181D3A"/>
</g>
<defs>
<clipPath id="clip0_896_4859">
<rect width="13.1919" height="13.1919" fill="white" transform="translate(0 3.53516)"/>
</clipPath>
<clipPath id="clip1_896_4859">
<rect width="13.1919" height="13.1919" fill="white" transform="translate(0 1.76758)"/>
</clipPath>
<clipPath id="clip2_896_4859">
<rect width="13.1919" height="13.1919" fill="white"/>
</clipPath>
</defs>
</svg>
