<svg width="14" height="17" viewBox="0 0 14 17" fill="none" xmlns="http://www.w3.org/2000/svg">
<g clip-path="url(#clip0_896_4896)">
<path d="M13.4018 10.4041C13.4039 10.8709 13.3546 11.3366 13.2547 11.7927C13.0931 12.558 12.794 13.2876 12.3721 13.9462C11.8593 14.7543 11.1766 15.441 10.3716 15.9586C9.30774 16.6411 8.0698 17.0026 6.80586 17C6.33138 16.9989 5.85824 16.9496 5.39371 16.8529C3.69522 16.4742 2.21497 15.4401 1.27491 13.9757C0.851087 13.3274 0.54808 12.6077 0.380541 11.8515C0.276387 11.376 0.223138 10.8908 0.22168 10.4041C0.222465 9.94318 0.27177 9.48366 0.36878 9.0331C0.527013 8.27513 0.819972 7.5517 1.23373 6.89721C1.74121 6.09274 2.41538 5.40652 3.21074 4.88488C3.85975 4.45984 4.57889 4.15306 5.33486 3.97874C5.82088 3.86488 6.31845 3.80762 6.81763 3.80811C7.27038 3.80987 7.7218 3.85718 8.16507 3.94933C8.91949 4.11638 9.63854 4.41515 10.2892 4.83192C11.2395 5.42181 12.0228 6.24525 12.5646 7.22376C13.1064 8.20227 13.3886 9.30324 13.3842 10.4217L13.4018 10.4041Z" fill="#05A43B"/>
<path d="M10.554 10.4039C10.554 11.1487 10.3331 11.8768 9.91933 12.4961C9.50555 13.1154 8.91741 13.598 8.22931 13.883C7.54121 14.1681 6.78405 14.2426 6.05356 14.0973C5.32308 13.952 4.65208 13.5934 4.12543 13.0667C3.59878 12.5401 3.24012 11.8691 3.09482 11.1386C2.94952 10.4081 3.02409 9.65095 3.30911 8.96285C3.59413 8.27474 4.0768 7.68661 4.69608 7.27283C5.31535 6.85904 6.04342 6.63818 6.78822 6.63818C7.78696 6.63818 8.74479 7.03493 9.45101 7.74115C10.1572 8.44736 10.554 9.4052 10.554 10.4039Z" fill="#F1F2F2"/>
<path d="M8.13562 3.94935L7.76493 5.71455C7.444 5.64545 7.11645 5.61191 6.78818 5.61452C6.42176 5.6132 6.05645 5.65467 5.69965 5.73808L5.30542 3.97289C5.79144 3.85902 6.289 3.80176 6.78818 3.80225C7.24112 3.80594 7.69255 3.85522 8.13562 3.94935Z" fill="#F1F2F2"/>
<path d="M8.21206 16.8472C7.74426 16.949 7.26688 17.0003 6.78813 17.0002C6.31365 16.999 5.84051 16.9498 5.37598 16.8531L5.75255 15.0879C6.09248 15.1638 6.43984 15.2013 6.78813 15.1997C7.13449 15.2016 7.47995 15.1641 7.81783 15.0879L8.21206 16.8472Z" fill="#F1F2F2"/>
<path d="M13.4018 10.4041C13.4039 10.8709 13.3546 11.3366 13.2547 11.7927L11.4895 11.422C11.6384 10.7357 11.6384 10.0254 11.4895 9.33905L13.2547 8.94482C13.3574 9.42431 13.4068 9.91371 13.4018 10.4041Z" fill="#F1F2F2"/>
<path d="M2.09277 11.4574L0.327572 11.8516C0.223418 11.3762 0.170159 10.8909 0.168701 10.4042C0.169486 9.94329 0.218791 9.48376 0.315801 9.0332L2.081 9.4039C2.01287 9.73302 1.9774 10.0681 1.97509 10.4042C1.97455 10.7586 2.01402 11.1119 2.09277 11.4574Z" fill="#F1F2F2"/>
<path d="M4.15222 6.38518C3.57073 6.76275 3.07874 7.26277 2.71065 7.8503L1.20435 6.89709C1.71183 6.09263 2.38601 5.40641 3.18137 4.88477L4.15222 6.38518Z" fill="#F1F2F2"/>
<path d="M12.3542 13.9464C11.8414 14.7545 11.1587 15.4412 10.3537 15.9587L9.38281 14.4583C9.9714 14.0816 10.4713 13.5818 10.8479 12.9932L12.3542 13.9464Z" fill="#F1F2F2"/>
<path d="M12.3191 6.80317L10.8187 7.77403C10.4335 7.1896 9.92797 6.69411 9.33594 6.32068L10.2892 4.83203C11.0988 5.33654 11.791 6.00867 12.3191 6.80317Z" fill="#F1F2F2"/>
<path d="M4.19913 14.4582L3.24592 15.9704C2.44166 15.4593 1.75886 14.7785 1.24536 13.9757L2.7399 13.0049C3.11487 13.5897 3.61285 14.0856 4.19913 14.4582Z" fill="#F1F2F2"/>
<path d="M5.37172 12.4839V11.7637L6.88289 10.4407C6.99617 10.3382 7.0926 10.2444 7.17217 10.1595C7.25174 10.0732 7.31243 9.98685 7.35424 9.90054C7.39605 9.81287 7.41695 9.71779 7.41695 9.6153C7.41695 9.50066 7.392 9.40288 7.3421 9.32197C7.2922 9.2397 7.22342 9.17631 7.13576 9.13181C7.0481 9.0873 6.94762 9.06505 6.83433 9.06505C6.7197 9.06505 6.61922 9.08865 6.53291 9.13585C6.4466 9.18171 6.37917 9.24846 6.33061 9.33613C6.28341 9.42379 6.25981 9.53033 6.25981 9.65576H5.31104C5.31104 9.37389 5.37442 9.13046 5.50119 8.92546C5.62797 8.72047 5.80599 8.56268 6.03526 8.45209C6.26588 8.34015 6.53359 8.28418 6.83838 8.28418C7.15262 8.28418 7.42572 8.33678 7.65768 8.44197C7.88965 8.54717 8.06902 8.69417 8.1958 8.88298C8.32392 9.07044 8.38798 9.28825 8.38798 9.5364C8.38798 9.69419 8.35628 9.85064 8.2929 10.0057C8.22951 10.1608 8.11555 10.3321 7.95102 10.5196C7.78783 10.707 7.55586 10.9316 7.25511 11.1932L6.75948 11.6504V11.6767H8.43855V12.4839H5.37172Z" fill="#181D3A"/>
</g>
<g clip-path="url(#clip1_896_4896)">
<path d="M13.4018 9.13454C13.4039 9.60141 13.3546 10.0671 13.2547 10.5232C13.0931 11.2884 12.794 12.0181 12.3721 12.6767C11.8593 13.4848 11.1766 14.1715 10.3716 14.689C9.30774 15.3715 8.0698 15.7331 6.80586 15.7305C6.33138 15.7294 5.85824 15.6801 5.39371 15.5834C3.69522 15.2046 2.21497 14.1706 1.27491 12.7061C0.851087 12.0578 0.54808 11.3382 0.380541 10.582C0.276387 10.1065 0.223138 9.62129 0.22168 9.13454C0.222465 8.67365 0.27177 8.21413 0.36878 7.76357C0.527013 7.0056 0.819972 6.28217 1.23373 5.62767C1.74121 4.82321 2.41538 4.13699 3.21074 3.61535C3.85975 3.19031 4.57889 2.88353 5.33486 2.70921C5.82088 2.59535 6.31845 2.53809 6.81763 2.53858C7.27038 2.54033 7.7218 2.58765 8.16507 2.67979C8.91949 2.84684 9.63854 3.14562 10.2892 3.56239C11.2395 4.15228 12.0228 4.97572 12.5646 5.95423C13.1064 6.93274 13.3886 8.03371 13.3842 9.15219L13.4018 9.13454Z" fill="#05A43B"/>
<path d="M10.554 9.13441C10.554 9.87921 10.3331 10.6073 9.91933 11.2266C9.50555 11.8458 8.91741 12.3285 8.22931 12.6135C7.54121 12.8985 6.78405 12.9731 6.05356 12.8278C5.32308 12.6825 4.65208 12.3239 4.12543 11.7972C3.59878 11.2705 3.24012 10.5996 3.09482 9.86907C2.94952 9.13859 3.02409 8.38142 3.30911 7.69332C3.59413 7.00521 4.0768 6.41708 4.69608 6.0033C5.31535 5.58951 6.04342 5.36865 6.78822 5.36865C7.78696 5.36865 8.74479 5.7654 9.45101 6.47162C10.1572 7.17783 10.554 8.13567 10.554 9.13441Z" fill="#F1F2F2"/>
<path d="M8.13562 2.67982L7.76493 4.44502C7.444 4.37592 7.11645 4.34238 6.78818 4.34499C6.42176 4.34367 6.05645 4.38514 5.69965 4.46855L5.30542 2.70335C5.79144 2.58949 6.289 2.53223 6.78818 2.53272C7.24112 2.53641 7.69255 2.58569 8.13562 2.67982Z" fill="#F1F2F2"/>
<path d="M8.21206 15.5777C7.74426 15.6795 7.26688 15.7308 6.78813 15.7307C6.31365 15.7295 5.84051 15.6802 5.37598 15.5836L5.75255 13.8184C6.09248 13.8943 6.43984 13.9318 6.78813 13.9302C7.13449 13.9321 7.47995 13.8946 7.81783 13.8184L8.21206 15.5777Z" fill="#F1F2F2"/>
<path d="M13.4018 9.13452C13.4039 9.6014 13.3546 10.0671 13.2547 10.5231L11.4895 10.1525C11.6384 9.46612 11.6384 8.75585 11.4895 8.06952L13.2547 7.67529C13.3574 8.15478 13.4068 8.64417 13.4018 9.13452Z" fill="#F1F2F2"/>
<path d="M2.09277 10.1879L0.327572 10.5821C0.223418 10.1066 0.170159 9.6214 0.168701 9.13464C0.169486 8.67376 0.218791 8.21423 0.315801 7.76367L2.081 8.13436C2.01287 8.46349 1.9774 8.79854 1.97509 9.13464C1.97455 9.48903 2.01402 9.84235 2.09277 10.1879Z" fill="#F1F2F2"/>
<path d="M4.15222 5.11565C3.57073 5.49321 3.07874 5.99324 2.71065 6.58077L1.20435 5.62756C1.71183 4.82309 2.38601 4.13688 3.18137 3.61523L4.15222 5.11565Z" fill="#F1F2F2"/>
<path d="M12.3542 12.6768C11.8414 13.4849 11.1587 14.1716 10.3537 14.6892L9.38281 13.1887C9.9714 12.8121 10.4713 12.3122 10.8479 11.7236L12.3542 12.6768Z" fill="#F1F2F2"/>
<path d="M12.3191 5.53364L10.8187 6.5045C10.4335 5.92007 9.92797 5.42458 9.33594 5.05115L10.2892 3.5625C11.0988 4.06701 11.791 4.73914 12.3191 5.53364Z" fill="#F1F2F2"/>
<path d="M4.19913 13.1887L3.24592 14.7009C2.44166 14.1898 1.75886 13.509 1.24536 12.7062L2.7399 11.7354C3.11487 12.3201 3.61285 12.8161 4.19913 13.1887Z" fill="#F1F2F2"/>
<path d="M5.37172 11.2143V10.4942L6.88289 9.17114C6.99617 9.06864 7.0926 8.97491 7.17217 8.88995C7.25174 8.80363 7.31243 8.71732 7.35424 8.631C7.39605 8.54334 7.41695 8.44826 7.41695 8.34577C7.41695 8.23113 7.392 8.13335 7.3421 8.05243C7.2922 7.97017 7.22342 7.90678 7.13576 7.86227C7.0481 7.81777 6.94762 7.79552 6.83433 7.79552C6.7197 7.79552 6.61922 7.81912 6.53291 7.86632C6.4466 7.91217 6.37917 7.97893 6.33061 8.06659C6.28341 8.15426 6.25981 8.2608 6.25981 8.38622H5.31104C5.31104 8.10436 5.37442 7.86093 5.50119 7.65593C5.62797 7.45094 5.80599 7.29314 6.03526 7.18256C6.26588 7.07062 6.53359 7.01465 6.83838 7.01465C7.15262 7.01465 7.42572 7.06725 7.65768 7.17244C7.88965 7.27764 8.06902 7.42464 8.1958 7.61345C8.32392 7.80091 8.38798 8.01872 8.38798 8.26687C8.38798 8.42466 8.35628 8.5811 8.2929 8.7362C8.22951 8.89129 8.11555 9.06257 7.95102 9.25003C7.78783 9.4375 7.55586 9.66205 7.25511 9.92368L6.75948 10.3809V10.4072H8.43855V11.2143H5.37172Z" fill="#181D3A"/>
</g>
<g clip-path="url(#clip2_896_4896)">
<path d="M13.4018 7.86549C13.4039 8.33237 13.3546 8.79805 13.2547 9.25412C13.0931 10.0194 12.794 10.749 12.3721 11.4077C11.8593 12.2157 11.1766 12.9024 10.3716 13.42C9.30774 14.1025 8.0698 14.4641 6.80586 14.4615C6.33138 14.4603 5.85824 14.411 5.39371 14.3144C3.69522 13.9356 2.21497 12.9015 1.27491 11.4371C0.851087 10.7888 0.54808 10.0692 0.380541 9.31296C0.276387 8.83747 0.223138 8.35225 0.22168 7.86549C0.222465 7.40461 0.27177 6.94508 0.36878 6.49452C0.527013 5.73655 0.819972 5.01312 1.23373 4.35863C1.74121 3.55417 2.41538 2.86795 3.21074 2.34631C3.85975 1.92126 4.57889 1.61448 5.33486 1.44017C5.82088 1.3263 6.31845 1.26904 6.81763 1.26953C7.27038 1.27129 7.7218 1.3186 8.16507 1.41075C8.91949 1.5778 9.63854 1.87658 10.2892 2.29335C11.2395 2.88324 12.0228 3.70668 12.5646 4.68519C13.1064 5.6637 13.3886 6.76467 13.3842 7.88314L13.4018 7.86549Z" fill="#05A43B"/>
<path d="M10.554 7.86537C10.554 8.61016 10.3331 9.33823 9.91933 9.95751C9.50555 10.5768 8.91741 11.0594 8.22931 11.3445C7.54121 11.6295 6.78405 11.7041 6.05356 11.5588C5.32308 11.4135 4.65208 11.0548 4.12543 10.5282C3.59878 10.0015 3.24012 9.33051 3.09482 8.60003C2.94952 7.86954 3.02409 7.11237 3.30911 6.42427C3.59413 5.73617 4.0768 5.14804 4.69608 4.73425C5.31535 4.32047 6.04342 4.09961 6.78822 4.09961C7.78696 4.09961 8.74479 4.49636 9.45101 5.20257C10.1572 5.90879 10.554 6.86663 10.554 7.86537Z" fill="#F1F2F2"/>
<path d="M8.13562 1.41077L7.76493 3.17597C7.444 3.10688 7.11645 3.07334 6.78818 3.07595C6.42176 3.07463 6.05645 3.11609 5.69965 3.19951L5.30542 1.43431C5.79144 1.32044 6.289 1.26318 6.78818 1.26368C7.24112 1.26737 7.69255 1.31665 8.13562 1.41077Z" fill="#F1F2F2"/>
<path d="M8.21206 14.3081C7.74426 14.41 7.26688 14.4613 6.78813 14.4611C6.31365 14.46 5.84051 14.4107 5.37598 14.314L5.75255 12.5488C6.09248 12.6247 6.43984 12.6622 6.78813 12.6606C7.13449 12.6625 7.47995 12.625 7.81783 12.5488L8.21206 14.3081Z" fill="#F1F2F2"/>
<path d="M13.4018 7.86548C13.4039 8.33235 13.3546 8.79804 13.2547 9.2541L11.4895 8.88341C11.6384 8.19708 11.6384 7.48681 11.4895 6.80048L13.2547 6.40625C13.3574 6.88574 13.4068 7.37513 13.4018 7.86548Z" fill="#F1F2F2"/>
<path d="M2.09277 8.91883L0.327572 9.31306C0.223418 8.83758 0.170159 8.35236 0.168701 7.8656C0.169486 7.40471 0.218791 6.94519 0.315801 6.49463L2.081 6.86532C2.01287 7.19445 1.9774 7.5295 1.97509 7.8656C1.97455 8.21999 2.01402 8.5733 2.09277 8.91883Z" fill="#F1F2F2"/>
<path d="M4.15222 3.84661C3.57073 4.22417 3.07874 4.7242 2.71065 5.31172L1.20435 4.35852C1.71183 3.55405 2.38601 2.86783 3.18137 2.34619L4.15222 3.84661Z" fill="#F1F2F2"/>
<path d="M12.3542 11.4078C11.8414 12.2159 11.1587 12.9026 10.3537 13.4201L9.38281 11.9197C9.9714 11.543 10.4713 11.0432 10.8479 10.4546L12.3542 11.4078Z" fill="#F1F2F2"/>
<path d="M12.3191 4.26459L10.8187 5.23545C10.4335 4.65103 9.92797 4.15554 9.33594 3.78211L10.2892 2.29346C11.0988 2.79797 11.791 3.4701 12.3191 4.26459Z" fill="#F1F2F2"/>
<path d="M4.19913 11.9197L3.24592 13.4318C2.44166 12.9207 1.75886 12.2399 1.24536 11.4372L2.7399 10.4663C3.11487 11.0511 3.61285 11.547 4.19913 11.9197Z" fill="#F1F2F2"/>
<path d="M5.37172 9.9453V9.22512L6.88289 7.9021C6.99617 7.7996 7.0926 7.70587 7.17217 7.6209C7.25174 7.53459 7.31243 7.44828 7.35424 7.36196C7.39605 7.2743 7.41695 7.17922 7.41695 7.07672C7.41695 6.96209 7.392 6.86431 7.3421 6.78339C7.2922 6.70112 7.22342 6.63774 7.13576 6.59323C7.0481 6.54873 6.94762 6.52647 6.83433 6.52647C6.7197 6.52647 6.61922 6.55007 6.53291 6.59728C6.4466 6.64313 6.37917 6.70989 6.33061 6.79755C6.28341 6.88521 6.25981 6.99176 6.25981 7.11718H5.31104C5.31104 6.83531 5.37442 6.59188 5.50119 6.38689C5.62797 6.18189 5.80599 6.0241 6.03526 5.91351C6.26588 5.80157 6.53359 5.74561 6.83838 5.74561C7.15262 5.74561 7.42572 5.7982 7.65768 5.9034C7.88965 6.00859 8.06902 6.15559 8.1958 6.34441C8.32392 6.53187 8.38798 6.74967 8.38798 6.99783C8.38798 7.15562 8.35628 7.31206 8.2929 7.46716C8.22951 7.62225 8.11555 7.79353 7.95102 7.98099C7.78783 8.16845 7.55586 8.393 7.25511 8.65464L6.75948 9.11183V9.13813H8.43855V9.9453H5.37172Z" fill="#181D3A"/>
</g>
<g clip-path="url(#clip3_896_4896)">
<path d="M13.4016 6.59596C13.4037 7.06283 13.3544 7.52852 13.2545 7.98459C13.0928 8.74987 12.7938 9.47951 12.3719 10.1381C11.8591 10.9462 11.1764 11.6329 10.3713 12.1505C9.30749 12.833 8.06955 13.1945 6.80562 13.1919C6.33113 13.1908 5.85799 13.1415 5.39346 13.0448C3.69497 12.6661 2.21472 11.632 1.27467 10.1675C0.850843 9.51926 0.547836 8.79962 0.380297 8.04342C0.276143 7.56794 0.222894 7.08272 0.221436 6.59596C0.222221 6.13508 0.271526 5.67555 0.368535 5.22499C0.526769 4.46702 0.819727 3.74359 1.23348 3.0891C1.74097 2.28463 2.41514 1.59842 3.2105 1.07678C3.85951 0.651732 4.57865 0.344952 5.33462 0.170639C5.82064 0.0567721 6.31821 -0.000487618 6.81739 3.12775e-06C7.27013 0.00176007 7.72156 0.0490713 8.16483 0.14122C8.91924 0.30827 9.6383 0.607045 10.2889 1.02382C11.2392 1.6137 12.0226 2.43715 12.5644 3.41566C13.1062 4.39417 13.3883 5.49513 13.3839 6.61361L13.4016 6.59596Z" fill="#05A43B"/>
<path d="M10.5537 6.59583C10.5537 7.34063 10.3329 8.0687 9.91909 8.68798C9.5053 9.30725 8.91717 9.78992 8.22907 10.0749C7.54096 10.36 6.7838 10.4345 6.05332 10.2892C5.32283 10.1439 4.65183 9.78528 4.12518 9.25863C3.59853 8.73198 3.23988 8.06098 3.09458 7.3305C2.94927 6.60001 3.02385 5.84284 3.30887 5.15474C3.59389 4.46664 4.07656 3.87851 4.69583 3.46472C5.31511 3.05094 6.04318 2.83008 6.78797 2.83008C7.78671 2.83008 8.74455 3.22683 9.45076 3.93304C10.157 4.63926 10.5537 5.59709 10.5537 6.59583Z" fill="#F1F2F2"/>
<path d="M8.13538 0.141244L7.76468 1.90644C7.44376 1.83735 7.1162 1.80381 6.78794 1.80641C6.42152 1.80509 6.0562 1.84656 5.6994 1.92998L5.30518 0.16478C5.7912 0.0509128 6.28875 -0.00634699 6.78794 -0.00585625C7.24088 -0.00216404 7.6923 0.0471177 8.13538 0.141244Z" fill="#F1F2F2"/>
<path d="M8.21181 13.0386C7.74402 13.1405 7.26664 13.1917 6.78789 13.1916C6.3134 13.1905 5.84026 13.1412 5.37573 13.0445L5.75231 11.2793C6.09223 11.3552 6.4396 11.3927 6.78789 11.3911C7.13425 11.393 7.4797 11.3555 7.81759 11.2793L8.21181 13.0386Z" fill="#F1F2F2"/>
<path d="M13.4016 6.59595C13.4037 7.06282 13.3544 7.52851 13.2545 7.98457L11.4893 7.61388C11.6381 6.92755 11.6381 6.21728 11.4893 5.53095L13.2545 5.13672C13.3572 5.61621 13.4065 6.1056 13.4016 6.59595Z" fill="#F1F2F2"/>
<path d="M2.09253 7.6493L0.327327 8.04353C0.223174 7.56805 0.169915 7.08283 0.168457 6.59607C0.169242 6.13518 0.218547 5.67566 0.315557 5.2251L2.08076 5.59579C2.01262 5.92492 1.97715 6.25997 1.97485 6.59607C1.9743 6.95046 2.01378 7.30377 2.09253 7.6493Z" fill="#F1F2F2"/>
<path d="M4.15198 2.57708C3.57049 2.95464 3.0785 3.45467 2.7104 4.04219L1.2041 3.08898C1.71159 2.28452 2.38577 1.5983 3.18112 1.07666L4.15198 2.57708Z" fill="#F1F2F2"/>
<path d="M12.3542 10.1383C11.8414 10.9464 11.1587 11.633 10.3537 12.1506L9.38281 10.6502C9.9714 10.2735 10.4713 9.77365 10.8479 9.18506L12.3542 10.1383Z" fill="#F1F2F2"/>
<path d="M12.3189 2.99506L10.8185 3.96592C10.4332 3.38149 9.92772 2.88601 9.33569 2.51258L10.2889 1.02393C11.0986 1.52844 11.7908 2.20057 12.3189 2.99506Z" fill="#F1F2F2"/>
<path d="M4.19888 10.6501L3.24568 12.1623C2.44141 11.6512 1.75861 10.9704 1.24512 10.1676L2.73966 9.19678C3.11463 9.78155 3.6126 10.2775 4.19888 10.6501Z" fill="#F1F2F2"/>
<path d="M5.37148 8.67577V7.95559L6.88264 6.63256C6.99593 6.53007 7.09236 6.43634 7.17193 6.35137C7.2515 6.26506 7.31219 6.17874 7.35399 6.09243C7.3958 6.00477 7.41671 5.90969 7.41671 5.80719C7.41671 5.69256 7.39176 5.59478 7.34186 5.51386C7.29196 5.43159 7.22318 5.36821 7.13551 5.3237C7.04785 5.27919 6.94738 5.25694 6.83409 5.25694C6.71946 5.25694 6.61898 5.28054 6.53267 5.32775C6.44635 5.3736 6.37892 5.44036 6.33037 5.52802C6.28317 5.61568 6.25957 5.72223 6.25957 5.84765H5.31079C5.31079 5.56578 5.37418 5.32235 5.50095 5.11736C5.62772 4.91236 5.80575 4.75457 6.03502 4.64398C6.26563 4.53204 6.53334 4.47607 6.83814 4.47607C7.15237 4.47607 7.42547 4.52867 7.65744 4.63387C7.88941 4.73906 8.06878 4.88606 8.19555 5.07487C8.32367 5.26234 8.38773 5.48014 8.38773 5.7283C8.38773 5.88609 8.35604 6.04253 8.29265 6.19762C8.22927 6.35272 8.11531 6.524 7.95077 6.71146C7.78759 6.89892 7.55562 7.12347 7.25487 7.38511L6.75924 7.8423V7.8686H8.43831V8.67577H5.37148Z" fill="#181D3A"/>
</g>
<defs>
<clipPath id="clip0_896_4896">
<rect width="13.1919" height="13.1919" fill="white" transform="translate(0.192139 3.80811)"/>
</clipPath>
<clipPath id="clip1_896_4896">
<rect width="13.1919" height="13.1919" fill="white" transform="translate(0.192139 2.53857)"/>
</clipPath>
<clipPath id="clip2_896_4896">
<rect width="13.1919" height="13.1919" fill="white" transform="translate(0.192139 1.26953)"/>
</clipPath>
<clipPath id="clip3_896_4896">
<rect width="13.1919" height="13.1919" fill="white" transform="translate(0.191895)"/>
</clipPath>
</defs>
</svg>
