<svg width="88" height="112" viewBox="0 0 88 112" fill="none" xmlns="http://www.w3.org/2000/svg">
<g clip-path="url(#clip0_896_22137)">
<path opacity="0.3" d="M18.0429 93.5723C20.401 94.2251 22.8124 93.5234 25.2104 93.71C26.1963 93.7854 27.0223 94.4605 27.7417 95.0866C28.6432 95.8771 29.5313 96.7874 30.1131 97.8488C30.384 98.3417 30.5616 98.8347 30.9613 99.2432C31.3077 99.5985 31.7118 99.856 31.9161 100.327C32.4756 101.615 32.1337 103.227 32.0493 104.572C32.7243 104.288 33.3238 103.95 33.6746 103.28C34.0832 102.494 34.1453 101.561 34.4162 100.726C34.7049 99.8338 35.1934 99.1055 35.8595 98.4483C36.4546 97.8621 37.094 97.3425 37.4626 96.5787C38.3375 94.7535 37.9911 92.6575 40.025 91.5251C41.2862 90.8234 42.8271 90.668 44.2393 90.5525C46.1577 90.3927 48.0851 90.3705 50.0079 90.3261C54.3954 90.2284 58.7919 90.1928 63.1616 89.7043C65.462 89.4468 67.7712 89.096 70.0094 88.5053C71.164 88.2033 73.2556 87.7992 73.9217 86.6446C74.8765 84.9882 71.2927 83.8425 70.227 83.7181C68.4506 83.5094 66.5988 83.7359 64.818 83.7981C61.141 83.9268 57.4641 83.949 53.7871 83.838C48.7245 83.687 43.7464 83.3407 38.8792 81.9063C36.6278 81.2446 33.981 80.9604 31.7073 81.6842C31.3387 81.7997 30.9835 81.9551 30.6327 82.1194C29.6601 81.1158 28.3412 81.5199 27.1155 81.7686C26.4361 81.9063 25.8188 81.8619 25.2682 82.3326C24.5399 82.9499 23.9359 83.7448 23.3053 84.4553C22.2928 85.601 21.2714 86.7379 20.2722 87.8969C19.0821 89.2691 17.5722 90.708 18.1806 92.6442L18.0429 93.5723Z" fill="black"/>
<path d="M26.2675 40.5882C26.2675 40.7081 26.1875 40.8013 26.0854 40.8013C25.9833 40.8013 25.9033 40.7036 25.9033 40.5882C25.9033 40.4683 25.9833 40.375 26.0854 40.375C26.1875 40.375 26.2675 40.4727 26.2675 40.5882Z" fill="#CF0000"/>
<path d="M27.2268 60.7108C27.2801 66.1552 27.1513 71.8173 26.5918 77.2262C26.1921 81.0631 25.0908 84.891 23.4255 88.3016C22.413 90.3754 19.9528 94.9273 17.1995 93.3286C14.6593 91.8542 14.5128 86.8672 14.3129 84.2205C13.9665 79.5887 13.8777 80.7389 13.6912 76.0982C13.5447 72.399 14.8947 64.7608 15.4897 61.106C15.8583 58.8279 15.8361 56.119 15.805 53.792C15.7784 51.8203 17.1995 45.4833 20.2148 43.4893C24.065 40.9403 29.5272 39.1373 30.6418 40.5317C33.1065 43.6181 26.2676 57.1404 28.0395 60.7152H27.2268V60.7108Z" fill="#FFBD87"/>
<path opacity="0.5" d="M17.9897 69.8187C18.6559 68.1667 19.2376 66.4925 19.5218 64.7029C19.7838 63.0287 19.8371 61.3323 19.6906 59.6403C19.5485 57.9661 19.2021 56.3497 18.9001 54.7066C18.4782 52.4151 18.2873 49.9771 18.9978 47.7256C19.735 45.3897 21.3026 43.5424 23.0078 41.9748C23.0078 41.9703 23.0123 41.9659 23.0123 41.9659C23.0656 41.9126 23.1189 41.8637 23.1722 41.8193C22.1463 42.3123 21.1338 42.8762 20.2101 43.4891C17.1948 45.483 15.7738 51.8201 15.8004 53.7918C15.8315 56.1188 15.8581 58.8232 15.4851 61.1058C14.89 64.7606 13.54 72.3988 13.6866 76.098C13.8731 80.7386 13.9619 79.5885 14.3083 84.2202C14.3261 84.4378 14.3394 84.6688 14.3571 84.913C14.3616 84.6421 14.366 84.3712 14.3749 84.1003C14.4815 80.8097 14.9744 77.5501 16.0624 74.4682C16.6308 72.8828 17.3636 71.373 17.9897 69.8187Z" fill="#EBAE7C"/>
<path d="M59.2582 40.8421C59.2582 40.962 59.1783 41.0552 59.0761 41.0552C58.974 41.0552 58.894 40.9575 58.894 40.8421C58.894 40.7222 58.974 40.6289 59.0761 40.6289C59.1738 40.6289 59.2582 40.7222 59.2582 40.8421Z" fill="#CF0000"/>
<path d="M44.5635 2.00258C46.1977 1.08777 48.538 1.53185 50.2388 1.95817C53.867 2.86854 56.7446 5.01345 58.0147 8.60163C59.5423 12.9137 59.6267 17.6742 59.1116 22.1728C58.9162 23.8736 57.877 30.7435 57.5262 32.4843C56.7668 36.2635 57.0955 42.5206 61.5984 43.7862C61.3542 44.2036 60.9456 44.3946 60.4971 44.5323C59.1871 44.9408 57.726 44.9897 56.3627 45.0696C53.0854 45.2694 49.5816 45.4915 46.3176 45.0296C45.909 44.9719 46.2732 38.7059 46.9304 36.6365C47.8541 33.7278 49.3329 31.0499 50.4031 28.1989C51.4245 25.4812 51.8953 22.6657 52.0596 19.7747C52.2994 15.5915 52.628 10.7243 50.563 6.90524C49.7281 5.35983 48.5513 4.15637 46.7528 4.04091C46.6151 3.659 44.5635 2.00258 44.5635 2.00258Z" fill="#120F0D"/>
<path d="M50.825 3.83668C54.3288 5.74623 55.6211 8.37963 56.7979 12.1321C58.4543 17.4122 57.5573 23.061 55.3191 28.0258C54.8884 28.9761 54.6308 29.7577 54.5375 30.788C55.1504 29.1848 59.871 21.0759 57.8548 13.2024C57.2464 10.831 56.2473 8.5395 54.6175 6.701C53.5295 5.4709 52.1617 4.47171 50.6785 3.76562L50.825 3.83668Z" fill="#333E45"/>
<path d="M27.7373 5.77772C28.8741 4.03248 30.2863 2.66027 32.1959 1.75434C35.411 0.231145 44.3859 -2.41114 50.9539 4.78298C52.6991 6.69697 53.6228 10.032 53.685 12.55C53.7338 14.4684 53.6539 16.5067 53.1743 18.3719C52.8457 19.6553 52.144 20.8276 51.4957 21.9689C51.2692 22.3686 49.5239 25.6237 49.0044 24.8732C48.84 24.6379 48.9111 24.1183 48.9111 23.8563C48.9155 23.1635 48.9644 22.4663 48.9866 21.7735C49.0443 19.8285 48.9688 17.8656 48.4448 15.9783C45.9668 7.06556 34.141 8.35339 26.4495 8.32231C26.4495 8.32675 27.049 6.83908 27.7373 5.77772Z" fill="#120F0D"/>
<path d="M53.6849 12.5493C53.6227 10.0314 52.699 6.69632 50.9538 4.78233C44.3858 -2.40735 35.411 0.230494 32.1958 1.75369C32.0271 1.83363 31.8628 1.918 31.7029 2.00238C35.0246 0.470298 43.8485 -2.00768 50.3321 5.09319C52.0773 7.00718 53.001 10.3422 53.0632 12.8602C53.112 14.7786 53.0321 16.8169 52.5525 18.6821C52.2239 19.9655 51.5222 21.1378 50.8739 22.2791C50.714 22.5589 49.8125 24.242 49.1064 24.9658C49.7237 25.2589 51.2824 22.3502 51.4956 21.9683C52.1439 20.827 52.8412 19.6546 53.1742 18.3712C53.6538 16.5061 53.7338 14.4677 53.6849 12.5493Z" fill="#333E45"/>
<path d="M66.6167 44.8558C70.7822 48.2353 70.9421 54.4036 71.0442 59.5016C71.1597 65.4434 70.6356 71.3408 71.5726 77.2338C71.9812 79.8095 73.4067 84.8853 70.7999 86.7815C68.0688 88.7666 63.3971 85.7202 61.23 84.0948C59.5425 82.8292 58.1081 81.6879 58.7565 79.5608C59.5602 76.9318 59.4625 74.4805 59.4315 71.7272C59.3426 63.6182 47.9653 38.4566 56.0431 40.0242C60.0487 40.8058 64.2142 42.9063 66.6167 44.8558Z" fill="#FFBD87"/>
<path d="M71.5727 77.2341C70.6357 71.3411 71.1597 65.4437 71.0442 59.5019C70.9465 54.4038 70.7822 48.2356 66.6167 44.8561C65.8041 44.1944 64.7827 43.515 63.637 42.8755C64.725 43.9635 65.6176 45.2424 66.3281 46.6058C67.4117 48.6841 68.1177 50.9578 68.473 53.2714C68.6551 54.4482 68.7528 55.6428 68.7306 56.8374C68.6995 58.3828 68.5219 59.9193 68.322 61.447C68.2199 62.2152 68.1133 62.9835 68.0245 63.7518C67.9312 64.5111 67.8291 65.275 67.8202 66.0432C67.8024 67.562 68.1 69.0585 68.5307 70.5107C69.2502 72.9398 70.2493 75.2846 70.8799 77.7403C71.3773 79.6765 71.666 81.7237 71.213 83.6999C70.9021 85.0543 70.276 86.2667 69.4633 87.3547C69.9429 87.2614 70.3959 87.0794 70.8044 86.7818C73.4023 84.8856 71.9813 79.8097 71.5727 77.2341Z" fill="#EBAE7C"/>
<path opacity="0.5" d="M60.2664 59.0051C59.2849 57.1044 58.5078 48.9377 58.3879 46.8062C58.2769 44.8122 58.0459 43.0714 58.6721 40.6467C56.0875 39.8963 53.0101 39.2745 51.1183 37.5293L50.9406 37.7069C48.0763 37.8002 45.2964 37.8402 42.4098 37.7291C37.7603 37.5471 26.6227 40.2604 25.7568 40.8066C25.7035 40.8377 28.2348 43.4533 27.8973 47.57C27.4443 53.0633 26.4895 58.6942 25.6014 60.3329C18.2829 73.8196 23.7806 76.8483 26.343 78.7267C28.7366 80.4809 33.5327 82.8789 36.397 82.6169C38.2799 82.4437 41.2597 82.235 42.5919 80.6452C43.8398 82.0218 46.26 82.1462 47.9786 82.2572C50.8874 82.4481 53.6318 81.8087 56.1941 80.4142C60.2042 78.2294 61.8517 77.0126 63.1396 72.8515C63.5925 71.3861 63.8501 65.9549 60.2664 59.0051Z" fill="#DB9B67"/>
<path d="M60.7103 59.0051C59.7289 57.1044 58.9518 48.9377 58.8319 46.8062C58.7209 44.8122 58.4899 43.0714 59.1161 40.6467C56.5315 39.8963 53.454 39.2745 51.5623 37.5293L51.3846 37.7069C48.5203 37.8002 45.7403 37.8402 42.8538 37.7291C38.2043 37.5471 28.8697 39.8963 26.0498 40.367C25.9876 40.3759 28.6787 43.4533 28.3368 47.5655C27.8838 53.0588 26.5205 59.8177 25.5746 61.4209C19.8016 71.2218 25.9254 79.042 28.4878 80.9205C30.8814 82.6746 33.9722 82.8745 36.8321 82.6124C38.715 82.4393 41.6948 82.7634 43.027 81.1736C44.2749 82.5503 46.6951 82.1417 48.4137 82.2527C51.3225 82.4437 54.0669 81.8042 56.6292 80.4098C60.6393 78.2249 62.2868 77.0081 63.5747 72.8471C64.0365 71.3861 64.2941 65.9549 60.7103 59.0051Z" fill="#FF0000"/>
<path d="M63.3703 66.3145C63.3748 67.065 63.3392 67.811 63.2415 68.5571C63.055 70.0048 62.6287 71.4214 61.8782 72.6781C61.0389 74.0726 59.8532 75.2183 58.5076 76.1198C56.7757 77.2788 54.8129 78.1048 52.8145 78.6777C50.7229 79.2772 48.5336 79.6236 46.3531 79.557C45.2563 79.5214 43.3911 79.3616 42.3164 79.1262C41.3439 79.7035 37.7824 80.5206 33.5814 79.6413C25.5968 77.9716 23.8737 71.7189 23.4696 70.2712C23.3275 69.7605 23.2431 69.2365 23.2121 68.7169C22.8035 74.9474 26.6137 79.5392 28.4966 80.9203C30.8902 82.6744 33.981 82.8743 36.8409 82.6122C38.7238 82.439 41.7036 82.8076 43.0358 81.2178C44.2837 82.5945 46.704 82.1415 48.4226 82.2525C51.3313 82.4435 54.0757 81.804 56.6381 80.4096C60.6481 78.2247 62.2957 77.0079 63.5835 72.8469C63.8588 71.9587 64.0631 69.5962 63.3703 66.3145Z" fill="#CF0202"/>
<path d="M51.2427 29.5143C51.4026 32.0322 51.407 38.4981 51.971 40.7007C52.5394 42.93 53.3832 50.9323 54.9374 52.5399C55.6302 53.2549 55.235 54.3385 54.862 56.2613C54.5111 58.0865 56.0299 72.4348 44.6303 77.0088C42.7119 77.7771 42.3211 79.1271 42.3211 79.1271C42.3211 79.1271 42.0991 77.0088 38.2489 74.5442C35.9396 73.0654 30.362 68.669 33.1863 60.1204C34.452 56.2924 33.4528 53.4503 33.3462 52.4911C33.2352 51.5274 37.2452 44.0091 32.8533 39.0398C32.1383 38.2316 43.2981 38.467 44.8124 36.8461C46.3001 35.2563 47.2859 29.4344 49.7994 29.4832C50.1014 29.4832 51.2427 29.5143 51.2427 29.5143Z" fill="#FFBD87"/>
<path d="M53.9737 52.886C52.6814 54.8755 43.8397 55.2929 44.4614 57.7975C44.9721 59.8403 46.6552 57.1225 47.5389 56.7539C48.9733 56.1544 51.0072 56.0745 52.5526 55.6393C53.9293 55.253 56.5094 54.5113 54.7197 52.4863L53.9737 52.886Z" fill="#FFC391"/>
<path opacity="0.7" d="M53.374 51.6241C51.0826 49.0395 47.2679 47.2987 43.3955 44.0747C42.8315 43.604 31.5696 39.6916 24.8995 43.9504C24.6864 44.088 24.1002 44.39 24.4599 45.2648C25.6189 48.0626 31.0634 57.0641 30.788 57.3616C30.1841 58.0144 20.0457 66.2477 22.8967 72.9711C25.7477 79.6945 27.9415 80.3606 28.2657 80.3295C28.2834 79.8277 28.1502 79.246 28.1014 78.7308C28.0569 78.2423 28.0125 77.7672 28.0125 77.2742C28.0125 76.8479 27.9903 76.4172 28.0125 75.9953C28.0481 75.338 28.1902 74.703 28.2834 74.0546C28.5676 72.0696 29.2648 70.2311 29.78 68.3526C29.9487 67.7398 30.1175 67.1403 30.3084 66.5408C30.4994 65.9324 30.7126 66.5497 30.868 65.9413C31.8938 65.6082 32.9596 65.2085 33.9233 64.7378C35.0601 64.1827 35.9039 63.1347 37.0807 62.6684C37.6091 62.4597 38.1864 62.2865 38.7504 62.2332C39.2567 62.1888 39.7141 62.211 40.1715 61.9534C40.4646 61.7891 41.3172 61.5093 41.1884 61.1408C41.1529 61.0342 44.2038 59.0491 47.2635 56.8509C47.41 56.7133 48.4314 55.5498 48.9599 55.2567C49.0576 55.2034 49.8436 54.7948 49.9413 54.7415C52.2683 53.0096 53.6272 51.9083 53.374 51.6241Z" fill="#CFC3BA"/>
<path opacity="0.5" d="M54.9374 52.5394C53.3831 50.9318 52.5438 42.9294 51.9709 40.7001C51.4069 38.4975 51.4602 32.0139 51.3004 29.496C51.3004 29.496 50.9717 29.5404 50.5499 29.5892C50.541 29.4693 50.5321 29.3494 50.5143 29.234C50.3811 29.2118 49.5729 29.0208 49.4397 29.0208C46.9262 28.9764 44.6791 33.9856 43.1914 35.5754C42.4942 36.3215 41.7748 37.0498 41.0554 37.7825C38.9149 37.938 36.0462 38.3998 33.3328 38.9061C32.8976 38.7906 32.64 38.7995 32.6889 39.026C31.8229 39.1903 30.9792 39.359 30.1887 39.5233C30.4774 39.9319 34.0256 41.9347 34.3009 42.2544C35.0869 43.1737 38.6929 43.7243 38.7462 43.6844C38.7462 43.6844 38.7462 43.6844 38.7506 43.6844C39.5278 44.2794 40.256 47.539 40.8955 47.4369C42.059 47.2548 42.3477 43.0804 43.5067 41.8903C44.1373 41.2464 47.6944 37.6671 49.5018 33.8791C49.8837 36.3171 50.3767 38.9416 50.7319 40.1628C51.3758 42.3699 52.4816 50.3411 54.0892 51.8954C54.8042 52.5882 54.4444 53.6806 54.138 55.6168C53.8449 57.4509 55.8433 71.7459 44.5992 76.6885C43.8131 77.0349 43.6888 77.4523 43.2669 77.51C42.3654 77.6344 42.5031 73.3002 42.5031 73.3002C42.5031 73.3002 42.0013 77.5678 41.5128 76.9727C40.9755 76.3199 40.2028 75.6627 38.1422 74.437C37.9424 74.3171 37.7159 74.175 37.4717 74.0151C37.7559 74.2238 38.0179 74.397 38.2488 74.548C42.099 77.0082 42.321 79.1309 42.321 79.1309C42.321 79.1309 42.7118 77.7809 44.6302 77.0127C56.0298 72.4431 54.5111 58.0904 54.8619 56.2652C55.2349 54.3379 55.6301 53.2543 54.9374 52.5394Z" fill="#CFC3BA"/>
<path d="M27.1956 23.0428C27.8883 23.9886 28.4301 24.748 28.2347 25.9604C28.0038 27.4214 27.8972 28.5982 28.3191 30.0548C29.1939 33.0879 31.0768 35.5259 32.378 38.3502C32.902 39.4915 33.1996 40.0155 34.0433 40.9881C34.8515 41.9162 36.0816 42.4358 37.2496 42.4313C38.644 42.4225 40.1938 41.8141 41.4062 41.0769C42.7517 40.2598 43.7509 38.9187 44.759 37.7596C46.6996 35.5259 49.5595 33.6563 49.4218 30.5344C49.413 30.3079 49.4174 29.8594 49.3908 29.6329C50.9362 30.6143 51.5312 30.2324 52.939 28.8203C53.8804 27.8788 53.9959 26.511 54.2623 25.2942C54.4622 24.3972 54.6442 21.826 54.1691 20.9867C53.7738 20.285 53.9159 18.9705 52.1174 19.8365C51.5446 20.1118 50.0569 22.088 50.0569 24.3839C49.9947 24.5526 49.5506 25.3742 49.5107 25.2276C48.8534 22.683 48.3649 15.3779 47.6722 13.1575C46.0246 7.85517 42.1656 9.68035 39.2346 10.2932C35.5487 11.0614 29.94 11.8563 26.9424 14.0545C26.2408 14.5697 26.8359 21.9281 27.1822 22.9317L27.1956 23.0428Z" fill="#FFCFA8"/>
<path d="M35.1757 37.1827C34.9403 37.156 34.6783 37.2182 34.4652 37.0938C34.1721 36.9207 35.0647 35.5174 35.0203 35.2332C34.9092 34.4782 31.4365 35.3664 32.3602 34.6958C32.6977 34.4516 33.0707 34.0652 33.4793 34.1496C34.1765 34.2873 34.3097 33.9142 34.1765 33.4346C34.1321 33.2792 34.1054 32.3289 33.9411 32.2534C33.8079 32.1912 33.0574 32.2045 32.9197 32.1601C32.4979 32.0224 32.116 31.6938 31.9916 31.2719C31.7163 30.3127 32.3957 29.3402 32.7021 28.4609C33.1462 27.1953 33.275 25.8231 32.942 24.5263C32.8265 24.0823 31.8273 22.5768 31.6141 22.1638C31.441 21.8263 35.4865 21.2446 35.1135 21.0758C35.1979 21.0714 35.2956 21.067 35.3977 21.0625C35.3222 21.0581 35.2423 21.0447 35.1668 21.0359C35.1402 21.0314 35.149 20.987 35.1801 20.9915C35.3489 21.0181 35.5176 21.0314 35.6864 21.0314C36.3658 21.0314 37.0586 20.8804 37.7158 20.7117C38.2931 20.5651 38.8172 20.272 39.3634 20.0367C39.8741 19.8191 40.3848 19.6592 40.9443 19.7169C41.5749 19.7836 42.1833 19.9878 42.7917 20.1743C43.44 20.3697 44.084 20.5207 44.7634 20.5429C45.4606 20.5651 46.1623 20.5119 46.8506 20.3875C47.53 20.2676 48.2006 20.09 48.8534 19.8679C48.9644 19.828 49.0754 19.7924 49.1864 19.7525C46.9172 18.0783 43.9818 15.6891 43.3956 15.4493C43.107 15.3294 29.4737 20.4941 29.2383 20.3165C29.0429 20.4541 28.8475 20.5918 28.6566 20.7339C27.9549 21.249 26.7648 21.6443 27.1112 22.6523L27.2 23.0476C27.8927 23.9934 28.4345 24.7528 28.2391 25.9652C28.0082 27.4262 27.0357 28.6297 27.3909 30.104C28.6033 35.1399 31.0813 35.5307 32.3824 38.355C32.9064 39.4963 33.204 40.1536 34.0477 41.1261C34.6694 41.8455 35.602 42.3385 36.5346 42.3784C35.9573 42.3296 34.2031 40.3223 35.4999 39.1677C35.9484 38.768 37.778 38.586 37.9867 38.4572C39.5854 37.4802 39.994 35.9126 39.994 35.9126C39.9185 35.3486 35.7352 37.2493 35.1757 37.1827Z" fill="#F7B783"/>
<path d="M43.3024 21.595C42.321 20.6402 41.3351 20.205 40.1361 20.2361C38.7417 20.2716 37.8313 22.3322 36.539 22.7585C36.2149 22.8651 35.2556 23.1271 35.2823 22.643C35.3045 22.2078 36.7389 21.7504 37.0853 21.6127C38.1599 21.1775 39.0437 19.7743 40.2338 19.8586C41.4595 19.9474 42.6762 20.547 43.4001 21.6083L43.3024 21.595Z" fill="#2B0A0A"/>
<path d="M36.7433 30.6318C37.7159 31.6044 36.2637 32.1684 35.5265 32.2883C35.1047 32.3549 34.7716 32.6524 34.4385 32.7146C34.0788 32.7812 33.6836 32.5858 33.3239 32.5192C32.8798 32.4392 32.2137 32.5592 32.1604 31.9374C32.6178 31.7332 33.0441 31.9596 33.4971 32.044C34.1943 32.1772 34.1277 31.9774 34.7005 31.7065C35.2734 31.4356 37.4405 32.0884 36.7966 30.6674L36.7433 30.6318Z" fill="#FFBD87"/>
<path d="M34.6606 31.5066C34.0078 31.7863 34.8383 32.146 35.1447 32.146C35.4245 32.146 35.6687 31.8529 35.944 31.7863C35.9396 31.7863 35.3312 31.2179 34.6606 31.5066Z" fill="#A14D4D"/>
<path d="M33.5415 32.4758C33.2484 32.3781 32.7111 31.3923 32.2315 31.9163C31.8051 32.3914 33.3328 32.4803 33.5415 32.4758Z" fill="#A14D4D"/>
<path d="M39.6343 35.4866C38.271 36.1882 36.3614 36.8455 34.8116 36.8188C34.5762 36.8144 33.4038 36.8188 33.1507 36.4813C32.9553 36.2149 32.5912 35.7175 32.7288 35.4067C33.0663 34.634 35.9307 34.4608 36.579 34.5585C37.556 34.7006 40.0384 33.6126 40.9621 33.9145L39.6343 35.4866Z" fill="#947070"/>
<path d="M40.4204 34.4518C39.0571 35.1534 36.3615 36.1792 34.8161 36.157C34.5807 36.1526 33.4084 36.157 33.1552 35.8195C32.8977 35.4643 32.5824 35.0912 32.7334 34.7449C33.0709 33.9722 35.2202 34.8115 36.1928 34.4296C37.112 34.0699 40.2561 33.9189 41.1976 33.6924L40.4204 34.4518Z" fill="white"/>
<path d="M37.3651 34.1674C36.6412 34.3761 35.9307 34.5182 35.1802 34.5493C34.7628 34.5626 34.372 34.6026 33.959 34.6737C33.657 34.7225 33.355 34.7492 33.0886 34.6381C32.9775 34.5893 32.8932 34.5404 32.831 34.4827C32.8221 34.576 32.8488 34.6737 32.9154 34.7758C33.5193 35.7039 36.206 35.0289 37.072 34.8024C38.1999 34.5093 40.145 34.1985 41.1975 33.7544V33.6123C41.0154 33.6301 38.12 33.9454 37.3651 34.1674Z" fill="#A5B6C7"/>
<path d="M51.882 22.5646C52.3705 21.9695 53.201 22.0051 53.3475 22.8399C53.463 23.4838 53.1521 24.3454 52.9212 24.9404C52.7835 25.3046 52.6015 25.6554 52.4283 26.0062C52.7436 25.0559 53.9603 21.8097 51.8154 22.649L51.882 22.5646Z" fill="#7D5656"/>
<path d="M51.5712 24.7579C51.962 25.3929 51.0561 25.6016 50.7985 26.0812C50.461 26.6985 50.763 27.3469 51.3669 26.6452C51.549 26.4365 51.5757 26.1256 51.6911 25.877C51.8377 25.5661 52.0863 25.3485 52.2551 25.0598C52.5127 24.6158 52.5571 23.9097 51.962 23.6788C50.9273 23.2746 51.438 24.5003 51.5979 24.9133L51.5712 24.7579Z" fill="#7D5656"/>
<path d="M31.1833 21.0713C32.0182 21.7108 33.1861 23.7713 33.3593 24.9037C33.4925 25.7874 33.3504 27.4971 33.0795 28.3187C32.7109 29.4245 32.3201 29.5088 32.0626 30.6457C31.9471 31.1431 31.9871 31.9957 32.3646 32.4042C30.7881 31.7026 32.6177 28.7583 32.8042 28.1633C33.266 26.7067 33.4437 25.5165 32.4045 24.1754C31.2499 22.6789 29.6779 25.894 27.9815 25.2945C27.1244 24.9925 26.0808 23.3317 26.0586 22.0216C26.0586 22.0216 27.6173 21.2578 28.2479 21.3599C29.7089 21.6042 31.1833 21.0713 31.1833 21.0713Z" fill="#E3A878"/>
<path d="M31.0944 23.2651C30.4683 23.3717 28.8873 22.7767 28.2701 22.7145C27.5151 22.639 27.4707 23.0298 27.1554 23.6559C27.0089 23.9446 26.9556 23.9668 26.6492 24.0956C27.2931 23.7225 26.7469 22.8566 27.8926 22.4125C28.612 22.1327 29.891 22.6834 31.0278 22.599C31.5296 22.5591 32.0004 22.8966 31.5296 23.1497C31.423 23.203 31.0944 23.2651 31.0944 23.2651Z" fill="#2B0A0A"/>
<path d="M41.0243 33.5277C41.566 33.6076 41.4861 34.1316 41.5749 34.5224C42.4364 34.2382 41.7437 33.208 40.9221 33.5099L41.0243 33.5277Z" fill="#FFBD87"/>
<path d="M32.8088 34.4254C32.791 34.2877 32.7999 34.1012 32.8621 33.9502C32.8399 33.9591 32.8177 33.9724 32.791 33.9813C32.0982 34.3055 32.2448 34.563 31.6675 34.4342C31.814 34.5231 32.3558 34.6385 32.9242 34.7273C32.8665 34.6385 32.8265 34.5408 32.8088 34.4254Z" fill="#C22A2A"/>
<path d="M41.4995 33.7455C40.1317 35.5219 39.6033 37.0451 37.7248 37.8178C36.3748 38.3729 33.6481 38.5594 33.173 37.276C32.9509 36.6765 32.4269 34.909 31.8274 34.496C32.0406 34.5094 32.7156 34.6071 32.7289 34.7358C32.9598 37.4092 35.8108 36.7475 36.5435 36.4589C37.7248 35.9926 38.7417 35.7306 39.6477 35.1178C40.0917 34.8158 40.6957 34.0919 41.1886 33.6789C41.424 33.4924 41.5439 33.6878 41.4995 33.7455Z" fill="#FF3838"/>
<path d="M33.3461 36.2023C33.0219 35.8914 32.791 35.4252 32.7333 34.7413C32.7244 34.6125 32.0449 34.5148 31.8318 34.5015C32.3203 34.839 32.7555 36.0735 33.0219 36.8418C32.9953 36.5842 33.0797 36.3533 33.3461 36.2023Z" fill="#CF2D2D"/>
<path d="M43.7954 24.5611C46.8418 24.117 45.8293 26.7859 45.021 27.9361C44.013 29.366 41.6238 30.0854 41.1176 29.89C40.2605 29.557 40.7134 28.0782 41.5883 26.8969C42.9116 25.1117 43.7954 24.5611 43.7954 24.5611Z" fill="#FFE0C7"/>
<path d="M31.965 25.0068C31.2945 24.3096 30.1532 24.3851 29.043 24.6293C27.9949 24.8602 27.8573 24.9268 27.9594 25.7972C28.0926 26.7787 29.2739 26.8986 30.2109 26.7431C30.7838 26.6499 31.5698 26.4856 32.0805 26.0148C32.1205 25.9793 32.4491 25.9438 32.4846 25.9083C32.5157 25.8772 32.4624 25.7573 32.4135 25.6862L31.965 25.0068Z" fill="#7A1B1B"/>
<path d="M31.9205 24.7845C31.2499 24.0873 30.4328 24.1805 29.3271 24.4292C28.279 24.6601 28.1281 24.971 28.0925 25.5794C28.1547 26.512 29.2294 26.6674 30.1664 26.5164C30.8236 26.4098 32.0404 26.1167 32.4001 25.6105L31.9205 24.7845Z" fill="white"/>
<path d="M29.2072 24.4556C29.0606 24.611 28.9452 24.7842 28.8608 24.9574C28.6388 25.4192 28.6521 25.9033 28.9052 26.3385C28.9452 26.4051 28.9985 26.4539 29.0429 26.5161C28.5144 26.4362 28.2035 26.1031 28.0925 25.7123C28.1281 25.1306 28.2568 24.7043 29.2072 24.4556Z" fill="#E6E6E6"/>
<path d="M31.9782 25.9618C32.067 25.904 32.3689 25.8019 32.44 25.7397C32.4089 25.642 32.1513 25.309 31.9426 25.2734C31.9559 25.3134 32.2091 25.8374 31.9782 25.9618Z" fill="#AD5D4C"/>
<path d="M31.5474 24.9813C31.8094 25.9716 30.5971 26.7265 29.8111 26.2514C28.9851 25.7495 28.9629 24.4395 29.8333 24.3818C30.2951 24.3507 30.9968 24.3152 31.3965 24.5638L31.5474 24.9813Z" fill="url(#paint0_radial_896_22137)"/>
<path d="M30.5793 26.4863C30.9746 26.4152 31.3387 26.1621 31.5341 25.8246C31.6895 25.5581 31.7295 25.2562 31.6451 24.9542L31.6407 24.9453L31.4764 24.4923L31.4453 24.4701C31.0367 24.2126 30.3928 24.2348 29.82 24.2703C29.4247 24.297 29.145 24.5723 29.0917 24.9897C29.0251 25.5049 29.3004 26.06 29.7622 26.3442C30.002 26.4907 30.2862 26.5396 30.5793 26.4863ZM31.4497 25.0119C31.5119 25.2517 31.4808 25.4915 31.3565 25.7047C31.1922 25.9889 30.8769 26.2065 30.5394 26.2687C30.2907 26.3131 30.0553 26.2731 29.8599 26.1577C29.4114 25.8823 29.2515 25.385 29.2959 25.0341C29.3359 24.7144 29.5402 24.5146 29.8422 24.4923C30.2241 24.4657 30.9213 24.4213 31.3165 24.6433L31.4497 25.0119Z" fill="url(#paint1_linear_896_22137)"/>
<path d="M32.3691 25.6196C32.4845 25.4686 31.7873 23.9676 30.6327 23.6923C29.5536 23.4392 28.47 23.9143 28.0348 24.5627C27.8128 24.8913 28.1991 25.0911 27.9016 25.3887C28.6921 25.3531 28.8564 24.727 29.6158 24.4872C31.3077 23.9543 32.3691 25.6196 32.3691 25.6196Z" fill="#B87E7E"/>
<path d="M27.9816 24.5666C28.3813 23.9716 29.3582 23.5319 30.3574 23.6474C30.1709 23.7362 30.0332 23.9183 30.0865 24.1137C30.1176 24.2158 30.1665 24.3046 30.2375 24.3801C30.0421 24.389 29.829 24.4201 29.6114 24.4911C28.852 24.731 28.5589 24.9263 27.8972 25.3926C28.1948 25.0951 27.764 24.8953 27.9816 24.5666Z" fill="#7D5656"/>
<path d="M29.8111 25.3716C29.8688 25.6602 30.1841 25.8911 30.5128 25.8334C30.8369 25.7757 31.059 25.4915 31.0013 25.2028C30.9435 24.9142 30.6327 24.7277 30.3085 24.7854C29.9799 24.8431 29.7578 25.0785 29.8111 25.3716Z" fill="black"/>
<path d="M30.5972 25.2162C30.6283 25.3716 30.797 25.4737 30.9747 25.4427C31.1523 25.4116 31.2722 25.2561 31.2411 25.1007C31.21 24.9453 31.0413 24.8431 30.8636 24.8742C30.686 24.9053 30.5661 25.0607 30.5972 25.2162Z" fill="white"/>
<path opacity="0.5" d="M32.4267 25.7133C32.4134 25.6378 32.0892 24.6031 30.5482 24.4255C29.4913 24.3056 28.9273 24.5232 28.239 25.0827C27.9326 25.327 27.9814 25.8155 27.9592 25.8732C28.1813 25.4069 29.2382 24.5099 31.1255 25.0428C31.8627 25.2515 32.4267 25.7133 32.4267 25.7133Z" fill="black"/>
<path d="M30.5305 24.3009C29.6202 24.1943 29.5713 24.2476 28.772 24.5052C28.4345 24.6162 28.0392 24.3986 27.8971 24.2432C27.9815 24.4608 28.1858 24.665 28.3501 24.7938C28.3368 24.8027 28.3634 24.7849 28.3501 24.7938C28.1503 24.7805 27.5641 24.4474 27.4442 24.3275C27.5241 24.5007 27.9327 24.927 28.1103 25.007C28.1014 25.0159 28.1192 24.9981 28.1103 25.007C27.8794 25.0025 27.0445 24.6828 26.8979 24.5096C26.9734 24.6562 27.4175 25.047 27.8083 25.1757C27.6529 25.2024 27.2221 25.118 26.8979 24.9537C27.0889 25.0914 27.3864 25.3489 27.6662 25.4022C27.4975 25.4511 27.12 25.4244 26.9779 25.4022C27.1555 25.5088 27.5818 25.6909 27.7906 25.6198C27.6529 25.7308 27.1555 25.7752 27.009 25.7308C27.2132 25.8241 27.7373 25.8818 27.9593 25.8729C28.0437 25.5621 28.2702 25.3134 28.7542 25.0336C29.4736 24.6118 30.2818 24.6828 31.0856 24.8427C31.8406 24.9937 32.4312 25.7175 32.4312 25.7175C32.4134 25.6376 32.0715 24.4785 30.5305 24.3009Z" fill="#2B0A0A"/>
<path d="M39.1458 35.9082C39.1369 36.3523 38.2354 37.2005 36.9254 37.6268C36.5923 37.7334 36.1882 37.8311 35.9484 37.5291C35.5443 37.014 36.5302 36.8896 36.8765 36.823C37.4094 36.712 39.1458 35.9082 39.1458 35.9082Z" fill="white"/>
<path d="M35.4332 37.2277C35.4154 37.3476 35.4376 37.5697 35.2999 37.6319C35.1623 37.694 34.9358 37.5253 34.8647 37.432C34.5938 37.0723 35.2067 37.0634 35.4287 37.2189L35.4332 37.2277Z" fill="white"/>
<path opacity="0.5" d="M27.6574 27.938C27.9239 28.6885 28.6477 29.2969 29.2339 29.8031C29.4871 30.0207 30.353 30.6602 30.3308 31.1354C30.2598 32.8184 27.7907 31.1221 27.5908 30.7091C26.9025 29.288 27.6574 27.938 27.6574 27.938Z" fill="#FFCFA8"/>
<path d="M33.2795 29.8471C33.2395 30.1935 33.4793 31.5523 32.8398 31.3392C32.2181 31.1305 32.6444 29.8693 33.1596 29.7627L33.2795 29.8471Z" fill="#FFDFC4"/>
<path d="M42.6807 23.1023C41.7171 23.3954 40.8289 23.1289 39.8919 23.0579C38.8927 22.9824 38.1245 23.3421 37.4628 23.9061C37.1564 24.1681 36.7967 24.8298 36.6768 25.1229C37.6093 25.3849 40.3138 26.0643 42.1523 24.4523C42.4765 24.1681 42.6052 23.3554 42.8406 23.0312L42.6807 23.1023Z" fill="white"/>
<path d="M38.0888 23.6251C37.9778 24.1758 38.0311 24.7353 38.3019 25.246C38.3375 25.3171 38.3819 25.3837 38.4218 25.4547C37.6713 25.3881 37.0319 25.2194 36.6677 25.1172C36.7876 24.8286 37.1473 24.1625 37.4537 23.9005C37.6669 23.7184 37.8934 23.5585 38.1332 23.4253C38.1199 23.4919 38.1021 23.5585 38.0888 23.6251Z" fill="#F0F0F0"/>
<path d="M42.7516 23.1773C42.4496 22.6222 41.1751 22.0094 40.0516 22.0227C38.9547 22.036 37.6047 22.6666 37.054 23.7679C36.8675 24.1365 36.6766 24.7271 36.7165 25.0025C36.8187 24.6916 37.4937 23.7946 38.1776 23.4704C39.1368 23.013 40.2958 23.3549 41.3261 23.3372C41.7879 23.3283 42.3208 23.3194 42.7516 23.1773Z" fill="#B87E7E"/>
<path d="M37.054 23.7673C37.2583 23.3632 37.5692 23.0213 37.9333 22.7504C37.8978 22.817 37.88 22.888 37.8889 22.968C37.8978 23.0879 38.0843 23.1634 38.2086 23.1367C38.3863 23.0967 38.5284 22.9902 38.7016 22.9413C39.2966 22.7637 39.9672 22.7237 40.5934 22.7726C40.842 22.7903 41.0685 22.8614 41.3128 22.9013C41.4815 22.928 41.7213 22.9591 41.8634 22.8525C41.9833 22.7637 42.0233 22.6482 42.0055 22.5283C42.3608 22.7237 42.6317 22.9546 42.7516 23.1722C42.3164 23.3188 41.7879 23.3232 41.3261 23.3321C40.2958 23.3499 39.1368 23.0079 38.1776 23.4653C37.4937 23.7895 36.8187 24.6866 36.7165 24.9974C36.6766 24.7265 36.8675 24.1359 37.054 23.7673Z" fill="#7D5656"/>
<path d="M41.6148 23.7269C41.6503 24.7127 40.5578 25.552 39.6164 25.0413C38.786 24.5928 38.6838 23.7535 39.0702 23.2872C39.2833 23.1984 39.5187 23.1229 39.7718 23.1007C40.4202 23.0474 41.1129 23.2428 41.5837 23.4293L41.6148 23.7269Z" fill="url(#paint2_radial_896_22137)"/>
<path d="M40.4424 25.2819C41.1707 25.1576 41.7435 24.4559 41.7169 23.7276V23.7232L41.6858 23.3635L41.6281 23.3413C41.2506 23.1903 40.5046 22.946 39.7718 23.0038C39.5453 23.0215 39.3189 23.0793 39.0391 23.1947L39.0169 23.2036L38.9991 23.2214C38.7948 23.4656 38.7149 23.7987 38.7815 24.1317C38.8615 24.5447 39.1412 24.9 39.5764 25.1354C39.8384 25.2819 40.1404 25.3308 40.4424 25.2819ZM41.5126 23.7365C41.5348 24.3671 41.0375 24.9711 40.4069 25.0776C40.1537 25.122 39.8962 25.0776 39.6652 24.9533C39.2878 24.749 39.0435 24.4426 38.9769 24.0918C38.9281 23.8298 38.9858 23.5678 39.1368 23.3724C39.3855 23.2702 39.5853 23.2214 39.7851 23.2036C40.4602 23.1503 41.1662 23.3768 41.4949 23.5011L41.5126 23.7365Z" fill="url(#paint3_linear_896_22137)"/>
<path d="M37.6269 25.3129C37.4315 25.2597 36.8276 25.2463 36.6588 25.1753C36.6411 24.9666 36.8365 24.1628 37.1695 23.9585C37.1784 24.0384 37.1384 25.2152 37.6269 25.3129Z" fill="#AD5D4C"/>
<path d="M36.6633 24.8475L36.7255 25.1539C36.9475 25.2916 37.134 25.1584 37.4271 25.2161C38.8748 25.5136 40.9576 25.7002 42.1122 24.2036C42.2898 23.9682 42.4852 23.4487 42.6406 23.2755C42.6717 23.2666 42.7028 23.2577 42.7339 23.2488L42.8893 23.1733C42.6584 23.4975 42.4763 24.3102 42.1521 24.5944C40.7222 25.86 38.9592 25.678 37.4893 25.3582C37.1518 25.2827 36.9253 25.4026 36.6766 25.2472C36.6855 25.2161 36.6455 24.8786 36.6633 24.8475Z" fill="#7A1B1B"/>
<path d="M39.6121 24.185C39.7142 24.5181 40.0783 24.709 40.4247 24.6158C40.7711 24.5225 40.9665 24.1761 40.8644 23.8431C40.7622 23.51 40.3981 23.319 40.0517 23.4123C39.7053 23.5055 39.5099 23.8519 39.6121 24.185Z" fill="black"/>
<path d="M40.4823 23.9545C40.5401 24.1188 40.7355 24.212 40.9264 24.1632C41.1174 24.1143 41.2239 23.9456 41.1707 23.7813C41.1129 23.617 40.9175 23.5237 40.7266 23.5726C40.5356 23.617 40.4246 23.7902 40.4823 23.9545Z" fill="white"/>
<path opacity="0.5" d="M40.5712 23.7279C40.2292 23.679 39.874 23.679 39.5231 23.6568C37.7157 23.5591 36.57 24.9402 36.6633 24.847C36.8986 24.767 36.943 23.8256 39.1856 23.346C39.8651 23.1994 42.0455 23.3815 42.5473 23.5325L42.5163 23.648C41.9079 23.8789 40.7621 23.7545 40.5712 23.7279Z" fill="black"/>
<path d="M41.628 22.4843C41.4859 22.4576 41.3483 22.3777 41.2062 22.3333C41.0108 22.2756 40.7932 22.2267 40.5889 22.2001C40.3091 22.169 39.9317 22.1645 39.6963 22.3155C40.0915 22.2356 40.5489 22.4043 40.9175 22.5154C41.0152 22.5464 41.7435 22.7552 41.6547 22.4976L41.628 22.4843Z" fill="#EDA3A3"/>
<path d="M42.7516 23.0668C42.8982 22.8848 43.32 22.4718 43.2934 22.2719C43.2001 22.565 42.3741 22.9469 42.3031 22.9514C42.3386 22.9025 42.3742 22.8492 42.4052 22.7915C42.5207 22.5917 42.6983 22.3296 42.7339 22.1165C42.5695 22.4362 41.6237 22.8714 41.5926 22.867C41.9523 22.7027 42.1965 22.3652 42.2853 22.0898C42.1077 22.4318 41.0952 22.7782 41.0108 22.7648C41.0952 22.7116 41.1707 22.6449 41.2373 22.5739C41.335 22.4673 41.3838 22.3163 41.486 22.2231C41.2995 22.4051 41.0153 22.6005 40.7133 22.7293C40.0472 22.6538 39.381 22.6449 38.706 22.8448C37.1029 23.32 36.4545 24.4701 36.6766 25.2473C36.8098 25.305 36.721 24.5412 37.3205 24.1371C38.2708 23.4976 39.35 23.2622 40.5179 23.5065C41.4815 23.7107 43.0225 23.7774 43.622 22.8181C43.6176 22.8181 43.0003 23.1734 42.7516 23.0668Z" fill="#2B0A0A"/>
<path d="M31.2188 31.7026C30.9346 32.1645 30.4239 32.7151 30.3706 33.2658C30.3129 33.8564 30.7081 34.2073 31.059 34.6114C30.8813 34.2827 30.6104 33.9186 30.535 33.5545C30.455 33.1681 30.7126 32.8617 30.8547 32.5197C30.9391 32.3199 31.0234 32.1067 31.0812 31.898L31.2188 31.7026Z" fill="#E3A878"/>
<path d="M37.2097 29.9087C38.1601 30.3927 38.089 31.0544 39.7587 31.8138C40.5004 32.1513 41.4507 32.2446 42.0147 32.8974C42.2012 33.115 42.2589 33.3548 42.3122 33.6301C42.3966 32.4444 41.4685 32.1557 40.4959 31.8849C39.6477 31.645 39.1148 31.201 38.3599 30.7658C38.0446 30.5837 37.7115 30.0819 37.3696 29.9531C37.3341 29.9398 37.2097 29.9087 37.2097 29.9087Z" fill="#FFBD87"/>
<path d="M50.763 5.36426C51.1538 5.77725 51.3225 6.47002 51.4025 7.0118C51.5046 7.70901 51.5756 8.39289 51.5312 9.09898C51.4913 9.70293 51.3447 10.2758 51.1937 10.8575C50.9495 11.8123 50.1457 12.2564 50.0569 12.4962C50.1546 12.6605 51.2293 14.4191 51.0694 16.1865C51.247 16.04 51.9931 14.7077 52.033 14.499C52.113 14.0372 52.2062 13.5753 52.264 13.1135C52.3794 12.2342 52.4416 11.3327 52.3839 10.4445C52.3039 9.14339 52.1396 7.85111 51.589 6.65653C51.3936 6.2391 51.1627 5.81278 50.8607 5.46196L50.763 5.36426Z" fill="#333E45"/>
<path d="M31.5831 6.21694C24.762 7.70905 23.4298 11.2972 22.7148 15.4449C22.2352 18.2338 23.2477 21.7021 26.5517 23.767C26.0498 22.0218 26.9158 21.9108 28.0926 21.3912C28.7188 22.5325 30.7393 21.3779 31.5831 20.8228C32.3203 21.9951 35.0958 20.6096 35.9395 20.0678C37.4583 20.0856 38.8749 19.6504 40.2338 19.0464C41.5172 18.478 42.3832 19.606 43.631 19.8591C45.0699 20.1478 45.9491 20.0945 47.3435 20.321C48.3694 20.4853 49.9148 23.6338 48.9023 26.0141C48.4404 27.1021 50.5942 23.9091 50.763 23.0299C51.0783 21.3779 51.4646 18.0384 50.1368 13.9262C49.2176 11.0796 47.3036 8.57501 44.6791 7.19391C40.3981 4.94686 34.7894 5.51529 31.5831 6.21694Z" fill="#120F0D"/>
<path d="M28.0926 8.32666C25.7523 9.2015 24.6465 11.9459 24.7265 14.2196C24.7664 15.4497 25.0684 16.8219 25.6413 17.9144C25.961 18.5228 26.4051 19.3044 26.9602 19.7262C24.8774 16.9552 24.3845 12.6431 26.5916 9.79657C27.0179 9.24591 27.4975 8.68637 28.0926 8.32666Z" fill="#333E45"/>
<path d="M43.7377 30.7878C44.2972 31.1165 44.4171 31.676 44.5459 32.2444C45.8115 31.827 44.839 30.1972 43.6311 30.6457L43.7377 30.7878Z" fill="#FFC596"/>
<path d="M50.9539 29.9352C51.5279 29.9352 51.9931 29.47 51.9931 28.8961C51.9931 28.3222 51.5279 27.8569 50.9539 27.8569C50.38 27.8569 49.9148 28.3222 49.9148 28.8961C49.9148 29.47 50.38 29.9352 50.9539 29.9352Z" fill="#EBAE7C"/>
<path d="M50.9539 29.6252C51.5279 29.6252 51.9931 29.1599 51.9931 28.586C51.9931 28.0121 51.5279 27.5469 50.9539 27.5469C50.38 27.5469 49.9148 28.0121 49.9148 28.586C49.9148 29.1599 50.38 29.6252 50.9539 29.6252Z" fill="#B91500"/>
<path d="M50.7629 29.0566C51.1504 29.0566 51.4646 28.7425 51.4646 28.355C51.4646 27.9675 51.1504 27.6533 50.7629 27.6533C50.3754 27.6533 50.0613 27.9675 50.0613 28.355C50.0613 28.7425 50.3754 29.0566 50.7629 29.0566Z" fill="#FF0000"/>
<path d="M50.7629 28.1109C50.7629 28.2442 50.6519 28.3552 50.5187 28.3552C50.3854 28.3552 50.2744 28.2442 50.2744 28.1109C50.2744 27.9777 50.3854 27.8667 50.5187 27.8667C50.6563 27.8667 50.7629 27.9733 50.7629 28.1109Z" fill="white"/>
<path d="M40.3669 57.0107C39.4254 55.9183 35.4287 54.5061 33.6479 54.4839C33.7501 54.697 33.7989 54.9413 33.8611 55.1678C33.91 55.3454 33.9455 55.523 33.9677 55.7051C34.6871 56.1359 35.8284 56.2513 36.5212 56.4911C37.507 56.8375 40.4424 58.9247 40.3669 57.0107Z" fill="#FFC391"/>
<path d="M41.1042 33.466C39.0392 34.0167 36.7877 33.2529 35.7885 33.4261C34.8826 33.5859 35.2601 34.03 34.3142 34.0211C33.5148 34.0123 33.6836 33.5682 32.7954 33.9812C32.1026 34.3054 32.2492 34.5629 31.6719 34.4341C31.965 34.6162 33.8212 34.8915 34.3719 34.8605C35.0425 34.8205 36.7522 34.5807 37.3916 34.4208C37.9645 34.2787 40.0872 33.9945 41.1752 33.7147C41.2862 33.6881 41.4239 33.7281 41.5083 33.7014C41.5083 33.7058 41.3751 33.395 41.1042 33.466Z" fill="#CF2D2D"/>
<path d="M41.7882 50.2533C41.9703 50.5731 41.8637 50.9772 41.544 51.1637L34.3721 55.3025C34.0523 55.4846 33.6482 55.378 33.4617 55.0583L26.2942 42.6462C26.1122 42.3265 26.2187 41.9224 26.5385 41.7358L33.7148 37.5926C34.0346 37.4105 34.4387 37.5171 34.6252 37.8368L41.7882 50.2533Z" fill="#28A142"/>
<path d="M34.927 38.7877C34.6917 38.7255 34.4741 38.65 34.2698 38.5789L33.0974 38.2104L33.1196 38.126C33.4749 38.2104 33.8035 38.3258 34.1277 38.4368C34.1854 38.4546 34.2387 38.4768 34.2964 38.4946L34.9492 38.6988L34.927 38.7877Z" fill="#476B42"/>
<path d="M35.5931 39.9419L33.7324 39.3557C33.1951 39.187 32.5822 39.0005 31.9783 38.8051L32.0049 38.7207L33.759 39.2714L33.7946 39.2802C34.3896 39.4668 35.0025 39.6533 35.6197 39.8531L35.5931 39.9419Z" fill="#476B42"/>
<path d="M36.2593 41.0962L35.8596 40.9675L30.8726 39.3954L30.8992 39.311L36.2859 41.0074L36.2593 41.0962Z" fill="#476B42"/>
<path d="M36.9255 42.2469C35.6998 41.865 34.4697 41.4786 33.284 41.1012L33.1197 41.0479L29.8113 40.0043L29.8379 39.9199C30.9126 40.253 31.9695 40.5905 33.1463 40.9635L36.9521 42.1625L36.9255 42.2469Z" fill="#476B42"/>
<path d="M37.5916 43.4021C36.2505 43.0069 34.9049 42.5761 33.6038 42.1542C33.1242 41.9988 32.6446 41.8434 32.1605 41.6924L31.0548 41.3416C30.473 41.1595 29.9446 40.9996 29.4383 40.8531L29.4294 40.8486C29.3672 40.8175 29.3095 40.7953 29.2473 40.7687L28.8876 40.6577C28.8477 40.6532 28.821 40.6399 28.7944 40.6266L28.448 40.4268L28.9098 40.5733C28.9276 40.5777 28.9454 40.5777 28.9631 40.5822C28.9942 40.5866 29.0253 40.5866 29.0475 40.5955L29.0564 40.6C29.1274 40.6355 29.1896 40.6577 29.2562 40.6843L29.274 40.6888L31.077 41.2572C31.4145 41.3638 31.7786 41.4748 32.1827 41.608L37.6094 43.3177L37.5916 43.4021Z" fill="#476B42"/>
<path d="M27.7789 41.1628L27.7522 41.2476L38.2566 44.5559L38.2833 44.4712L27.7789 41.1628Z" fill="#476B42"/>
<path d="M38.9237 45.71L26.6892 41.8554L26.7159 41.771C31.019 43.1166 35.3133 44.4755 38.9503 45.6256L38.9237 45.71Z" fill="#476B42"/>
<path d="M26.522 42.6526L26.4954 42.7373L39.5878 46.8608L39.6144 46.776L26.522 42.6526Z" fill="#476B42"/>
<path d="M27.1888 43.8074L27.1621 43.8921L40.2545 48.0155L40.2812 47.9308L27.1888 43.8074Z" fill="#476B42"/>
<path d="M27.8558 44.9612L27.8291 45.0459L40.9215 49.1694L40.9482 49.0846L27.8558 44.9612Z" fill="#476B42"/>
<path d="M28.5225 46.116L28.4958 46.2007L41.5882 50.3241L41.6149 50.2394L28.5225 46.116Z" fill="#476B42"/>
<path d="M41.1042 51.1153C39.0171 50.4802 36.8899 49.8008 34.8294 49.1436L34.2476 48.957L29.1584 47.3539L29.1851 47.2695C30.8904 47.7935 32.6312 48.3486 34.2743 48.8727L41.1309 51.0309L41.1042 51.1153Z" fill="#476B42"/>
<path d="M40.0385 51.7229C38.3599 51.2255 36.6813 50.6793 35.2025 50.1997L29.8291 48.5077L29.8557 48.4233C31.601 48.9385 33.3595 49.5069 35.0559 50.0576L35.2336 50.1153L40.0696 51.6385L40.0385 51.7229Z" fill="#476B42"/>
<path d="M39.0348 52.3536C37.5782 51.9362 36.1172 51.4566 34.7006 50.9903L34.5807 50.9503L30.4951 49.6625L30.5218 49.5781C31.9339 49.9867 33.355 50.453 34.6073 50.866L39.0614 52.2693L39.0348 52.3536Z" fill="#476B42"/>
<path d="M37.9825 52.9666L33.9236 51.6877C33.0398 51.4124 32.1028 51.1193 31.1614 50.8173L31.188 50.7329L33.9502 51.6033L34.3632 51.7321C35.5578 52.1007 36.7923 52.487 38.0091 52.8823L37.9825 52.9666Z" fill="#476B42"/>
<path d="M36.9254 53.5748C36.8011 53.5392 36.6679 53.4948 36.5213 53.446L31.8274 51.9672L31.854 51.8828C32.4402 52.0516 33.0353 52.2381 33.6082 52.4157C34.1011 52.5711 34.6118 52.7266 35.1269 52.882C35.3978 52.9708 35.6687 53.0596 35.9263 53.1484C36.1305 53.2195 36.3437 53.2905 36.548 53.3616L36.9521 53.4904L36.9254 53.5748Z" fill="#476B42"/>
<path d="M35.864 54.1882C34.9225 53.9084 33.9766 53.602 33.0574 53.3089C32.8664 53.2468 32.6799 53.189 32.4934 53.1269L32.5201 53.0425L35.8906 54.1038L35.864 54.1882Z" fill="#476B42"/>
<path d="M33.1856 54.1936L33.1589 54.2783L34.8701 54.8173L34.8968 54.7326L33.1856 54.1936Z" fill="#476B42"/>
<path d="M26.9513 43.3915L26.8669 43.3693L27.0801 42.4056C27.1423 42.0859 27.2089 41.7528 27.2977 41.4331L27.3821 41.4553L27.1645 42.4323C27.1023 42.7476 27.0357 43.0762 26.9513 43.3915Z" fill="#476B42"/>
<path d="M27.6129 44.5465L27.5286 44.5243L28.0792 42.0553C28.1503 41.6911 28.2391 41.2603 28.3501 40.8296L28.4345 40.8518L28.1636 42.0775C28.137 42.2196 28.1103 42.3617 28.0792 42.4993C27.9504 43.1743 27.8172 43.876 27.6129 44.5465Z" fill="#476B42"/>
<path d="M29.4209 40.1649L28.1963 45.6792L28.283 45.6985L29.5076 40.1842L29.4209 40.1649Z" fill="#476B42"/>
<path d="M30.4776 39.5529L28.8601 46.8359L28.9468 46.8552L30.5643 39.5722L30.4776 39.5529Z" fill="#476B42"/>
<path d="M29.5005 48.1087L29.9845 45.9283C30.2021 44.9069 30.4331 43.8811 30.6551 42.9174L31.5388 38.9429L31.6276 38.9606C31.3656 40.1819 31.0903 41.412 30.8194 42.6021L30.7439 42.9307L30.0734 45.9416C29.9446 46.5322 29.8336 47.0784 29.727 47.6069C29.7181 47.6424 29.7136 47.6868 29.7136 47.7312C29.7092 47.8334 29.7048 47.9533 29.6026 48.0288L29.5005 48.1087Z" fill="#476B42"/>
<path d="M30.2819 49.1606L30.1931 49.1428L32.5778 38.3916L32.6666 38.4094C32.4624 39.3464 32.2581 40.2789 32.0538 41.2115C31.4854 43.8183 30.8992 46.5094 30.2819 49.1606Z" fill="#476B42"/>
<path d="M30.9482 50.3156L30.8594 50.3022C30.8771 50.1557 30.8993 50.0536 30.9349 49.9514L32.9021 41.0964C32.9643 40.7989 33.022 40.5058 33.0753 40.226C33.1775 39.8486 33.253 39.4711 33.3329 39.1025C33.4173 38.6939 33.5061 38.2676 33.626 37.8413L33.7104 37.8635L32.991 41.1097C32.7689 42.2111 32.5247 43.2946 32.2849 44.3471C32.0451 45.4085 31.8008 46.5053 31.5743 47.6155C31.4855 47.9975 31.4056 48.366 31.3212 48.7346C31.2368 49.1032 31.1569 49.4718 31.0681 49.8537L31.0637 49.8626C31.0459 49.8981 31.0281 49.9336 31.0192 49.9692L30.9482 50.3156Z" fill="#476B42"/>
<path d="M34.5008 38.0503L31.5249 51.4502L31.6116 51.4695L34.5875 38.0696L34.5008 38.0503Z" fill="#476B42"/>
<path d="M35.1676 39.2051L32.1917 52.605L32.2784 52.6242L35.2543 39.2244L35.1676 39.2051Z" fill="#476B42"/>
<path d="M35.8302 40.3579L32.8542 53.7578L32.941 53.7771L35.9169 40.3772L35.8302 40.3579Z" fill="#476B42"/>
<path d="M36.4984 41.5157L33.5225 54.9155L33.6092 54.9348L36.5851 41.5349L36.4984 41.5157Z" fill="#476B42"/>
<path d="M34.5141 55.0233L34.4253 55.0055L37.1653 42.6689L37.2541 42.6867C36.3615 46.7279 35.4378 50.9111 34.5141 55.0233Z" fill="#476B42"/>
<path d="M35.571 54.4146L35.4822 54.3969L37.8314 43.8233V43.8188L37.9202 43.8366C37.6626 45.009 37.4006 46.1902 37.1519 47.336C36.6412 49.6585 36.1172 52.0566 35.571 54.4146Z" fill="#476B42"/>
<path d="M36.6457 53.7354L36.5569 53.7176L38.3243 45.7641C38.3821 45.5021 38.4398 45.2356 38.4975 44.9736L38.5863 44.9914L38.4087 45.7819C38.2355 46.5723 38.0579 47.3672 37.8847 48.1621C37.485 49.9873 37.072 51.8791 36.6457 53.7354Z" fill="#476B42"/>
<path d="M37.7026 53.1271L37.6138 53.1094C38.1245 50.7424 38.6529 48.3977 39.1636 46.1284L39.2524 46.1462L37.7026 53.1271Z" fill="#476B42"/>
<path d="M38.7595 52.5175L38.6707 52.4953L38.7639 52.0823L39.8297 47.2773L39.9185 47.2995L38.7595 52.5175Z" fill="#476B42"/>
<path d="M39.8164 51.9058L39.7275 51.8881C39.8341 51.3152 39.9762 50.7334 40.0872 50.2672L40.4958 48.4331L40.5846 48.4509C40.4736 49.0459 40.3315 49.641 40.1938 50.2139L40.1761 50.2849L39.8164 51.9058Z" fill="#476B42"/>
<path d="M40.8867 51.2438L40.7979 51.226C40.8556 50.9196 40.9266 50.6087 40.9977 50.3112L41.0421 50.1158L41.1576 49.5918L41.2464 49.6096C41.2064 49.7961 41.1664 49.9782 41.1309 50.1336L40.8867 51.2438Z" fill="#476B42"/>
<path d="M41.6327 51.3146L34.4608 55.4579C34.0567 55.6888 33.5416 55.5511 33.3062 55.147L26.1387 42.735C25.9078 42.3308 26.0455 41.8157 26.4496 41.5803L33.6215 37.4371C34.0256 37.2061 34.5407 37.3438 34.7761 37.7479L41.9436 50.1644C42.1745 50.5641 42.0368 51.0837 41.6327 51.3146ZM26.6228 41.8868C26.3874 42.02 26.3075 42.322 26.4451 42.5529L33.6126 54.9694C33.7458 55.2048 34.0478 55.2847 34.2787 55.147L41.4551 51.0038C41.6905 50.8705 41.7704 50.5686 41.6327 50.3376L34.4653 37.9256C34.332 37.6902 34.0301 37.6103 33.7991 37.7479L26.6228 41.8868Z" fill="#DCFFD6"/>
<path opacity="0.3" d="M34.9801 37.6499L34.4161 51.7228L34.1541 51.6429C34.1541 51.6429 33.4125 42.1751 33.4791 38.507C33.488 38.0318 34.9801 37.6499 34.9801 37.6499Z" fill="black"/>
<path d="M43.9552 52.8331C43.9552 53.2017 43.6577 53.4992 43.2891 53.4992H35.0025C34.634 53.4992 34.3364 53.2017 34.3364 52.8331V38.4982C34.3364 38.1296 34.634 37.832 35.0025 37.832H43.2891C43.6577 37.832 43.9552 38.1296 43.9552 38.4982V52.8331Z" fill="#28A142"/>
<path d="M43.7467 39.4753C43.5779 39.3021 43.4225 39.1289 43.2804 38.9691L42.45 38.0631L42.5121 38.001C42.7741 38.2541 43.0051 38.5161 43.2271 38.7737C43.2671 38.8181 43.3026 38.8625 43.3426 38.9069L43.8044 39.4132L43.7467 39.4753Z" fill="#476B42"/>
<path d="M43.742 40.807L42.4275 39.3726C42.0456 38.9596 41.6104 38.4889 41.1841 38.0182L41.2507 37.9604L42.5163 39.3415C42.9382 39.7989 43.3734 40.2697 43.8086 40.7537L43.742 40.807Z" fill="#476B42"/>
<path d="M43.7422 42.1402V42.1358L39.9275 37.9747L39.9897 37.917L43.8088 42.078L43.7422 42.1402Z" fill="#476B42"/>
<path d="M43.742 43.4725C42.8716 42.5311 42.0012 41.5763 41.1619 40.6571L41.0464 40.5283L38.7017 37.9704L38.7683 37.9082C39.5321 38.7342 40.2826 39.5557 41.113 40.4661L43.8086 43.4104L43.742 43.4725Z" fill="#476B42"/>
<path d="M43.7464 44.8045C42.7828 43.7919 41.8324 42.7439 40.9176 41.7314C40.5801 41.3584 40.2426 40.9853 39.9007 40.6123L39.1146 39.7508C38.7016 39.3023 38.3242 38.9026 37.96 38.5207L37.9556 38.5163C37.9156 38.4585 37.8757 38.4097 37.8357 38.3564L37.5826 38.0811C37.5515 38.0544 37.5337 38.0322 37.5204 38.01L37.3206 37.6592L37.6447 38.0144C37.6581 38.0278 37.6758 38.0366 37.6891 38.05C37.7158 38.0677 37.738 38.0855 37.7558 38.1033L37.7602 38.1121C37.8046 38.1788 37.8446 38.232 37.889 38.2853L37.9023 38.2987L39.1768 39.6886C39.4211 39.9506 39.6786 40.2304 39.9673 40.5501L43.813 44.7423L43.7464 44.8045Z" fill="#476B42"/>
<path d="M36.3667 37.9585L36.3013 38.0186L43.744 46.1364L43.8095 46.0764L36.3667 37.9585Z" fill="#476B42"/>
<path d="M43.7422 47.4683L35.0737 38.0138L35.1403 37.9517C38.1956 41.2689 41.2376 44.5907 43.8088 47.4062L43.7422 47.4683Z" fill="#476B42"/>
<path d="M34.5332 38.6275L34.4678 38.6875L43.7442 48.8053L43.8096 48.7453L34.5332 38.6275Z" fill="#476B42"/>
<path d="M34.5332 39.958L34.4678 40.0181L43.7442 50.1359L43.8096 50.0759L34.5332 39.958Z" fill="#476B42"/>
<path d="M34.5332 41.292L34.4678 41.3521L43.7442 51.4699L43.8096 51.4099L34.5332 41.292Z" fill="#476B42"/>
<path d="M34.533 42.6236L34.4675 42.6836L43.7439 52.8014L43.8094 52.7414L34.533 42.6236Z" fill="#476B42"/>
<path d="M42.9295 53.2418C41.4374 51.6476 39.9364 49.9956 38.4842 48.3969L38.0757 47.944L34.4697 44.0138L34.5363 43.9517C35.7531 45.2573 36.9832 46.6117 38.1423 47.8862L42.9961 53.1841L42.9295 53.2418Z" fill="#476B42"/>
<path d="M41.6994 53.2372C40.496 51.9671 39.3147 50.6571 38.2711 49.498L34.4653 45.3459L34.5319 45.2837C35.7887 46.6026 37.0232 47.9748 38.2178 49.2982L38.3422 49.4358L41.7705 53.175L41.6994 53.2372Z" fill="#476B42"/>
<path d="M40.5182 53.277C39.4657 52.189 38.4399 51.0388 37.4451 49.9286L37.3607 49.8309L34.4653 46.6735L34.5319 46.6113C35.5489 47.6682 36.5481 48.7829 37.4274 49.7687L40.5848 53.2104L40.5182 53.277Z" fill="#476B42"/>
<path d="M39.3014 53.2816L36.4282 50.1508C35.7976 49.4714 35.1315 48.7475 34.4653 48.0104L34.5319 47.9526L36.4948 50.0931L36.7879 50.4084C37.6361 51.3232 38.5109 52.2735 39.368 53.2239L39.3014 53.2816Z" fill="#476B42"/>
<path d="M38.0802 53.2824C37.9913 53.1847 37.8981 53.0826 37.7915 52.9671L34.4653 49.3434L34.5319 49.2812C34.9538 49.7209 35.3757 50.1783 35.7843 50.6224C36.1351 51.0043 36.4992 51.3951 36.8678 51.7859C37.0588 51.999 37.2453 52.2122 37.4274 52.4165C37.5695 52.5808 37.716 52.7495 37.8626 52.9094L38.1512 53.2203L38.0802 53.2824Z" fill="#476B42"/>
<path d="M36.8589 53.2817C36.1839 52.5667 35.5089 51.8251 34.8605 51.1057C34.7317 50.9636 34.5985 50.817 34.4697 50.6749L34.5363 50.6172L36.9255 53.2239L36.8589 53.2817Z" fill="#476B42"/>
<path d="M34.532 51.9468L34.4666 52.0068L35.679 53.3293L35.7445 53.2692L34.532 51.9468Z" fill="#476B42"/>
<path d="M34.5319 39.4749L34.4697 39.4127L35.1358 38.6844C35.349 38.4401 35.571 38.1826 35.8109 37.9517L35.873 38.0138L35.198 38.751C34.9849 38.9908 34.7673 39.2439 34.5319 39.4749Z" fill="#476B42"/>
<path d="M34.5319 40.8071L34.4697 40.7449L36.1794 38.8798C36.4237 38.6 36.7168 38.2714 37.0276 37.9517L37.0942 38.0138L36.2461 38.9375C36.1528 39.0441 36.0595 39.1551 35.9618 39.2617C35.5089 39.7857 35.0381 40.3275 34.5319 40.8071Z" fill="#476B42"/>
<path d="M38.2811 37.9129L34.4648 42.0771L34.5303 42.1372L38.3466 37.9729L38.2811 37.9129Z" fill="#476B42"/>
<path d="M39.5037 37.9136L34.4634 43.4136L34.5289 43.4736L39.5692 37.9736L39.5037 37.9136Z" fill="#476B42"/>
<path d="M34.3853 44.8358L35.8951 43.1882C36.5923 42.4155 37.3073 41.6428 37.9734 40.919L40.7267 37.917L40.7933 37.9747C39.9585 38.9029 39.1014 39.831 38.271 40.728L38.04 40.9812L35.9617 43.2504C35.5532 43.6989 35.1802 44.1164 34.8249 44.5205C34.7983 44.5471 34.776 44.5827 34.7538 44.6182C34.7006 44.707 34.6339 44.8047 34.5052 44.8225L34.3853 44.8358Z" fill="#476B42"/>
<path d="M34.5319 46.1365L34.4653 46.0744L41.9081 37.9565L41.9748 38.0187C41.3308 38.7248 40.6869 39.4309 40.043 40.137C38.2489 42.1087 36.3926 44.1515 34.5319 46.1365Z" fill="#476B42"/>
<path d="M34.5319 47.4683L34.4653 47.4105C34.5541 47.2951 34.6252 47.2151 34.7096 47.1441L40.8379 40.4607C41.0377 40.2342 41.2331 40.0077 41.4196 39.7945C41.695 39.5192 41.9525 39.2305 42.2012 38.9508C42.481 38.6399 42.7697 38.3157 43.085 38.0049L43.1471 38.0671L40.9001 40.5228C40.1585 41.3621 39.4035 42.1837 38.6708 42.9742C37.9336 43.7735 37.1698 44.5995 36.4193 45.4477C36.1528 45.7363 35.8953 46.0161 35.6377 46.2959C35.3846 46.5712 35.127 46.851 34.8606 47.1352L34.8517 47.1441C34.8162 47.1663 34.7851 47.1885 34.7584 47.2107L34.5319 47.4683Z" fill="#476B42"/>
<path d="M43.744 38.6239L34.469 48.7432L34.5345 48.8032L43.8095 38.684L43.744 38.6239Z" fill="#476B42"/>
<path d="M43.7438 39.9565L34.4688 50.0757L34.5342 50.1357L43.8093 40.0165L43.7438 39.9565Z" fill="#476B42"/>
<path d="M43.7392 41.2861L34.4656 51.4053L34.5311 51.4653L43.8047 41.3461L43.7392 41.2861Z" fill="#476B42"/>
<path d="M43.739 42.6186L34.4653 52.7378L34.5308 52.7978L43.8045 42.6786L43.739 42.6186Z" fill="#476B42"/>
<path d="M35.269 53.3307L35.2024 53.2685L43.7421 43.9517L43.8087 44.0138C41.0154 47.0691 38.1244 50.231 35.269 53.3307Z" fill="#476B42"/>
<path d="M36.4858 53.3309L36.4192 53.2687L43.7421 45.2886L43.8087 45.3507C42.996 46.2345 42.1789 47.1315 41.3929 47.9975C39.7942 49.7472 38.1422 51.5634 36.4858 53.3309Z" fill="#476B42"/>
<path d="M37.7558 53.2784L37.6892 53.2162L43.1958 47.2078C43.3779 47.008 43.56 46.8126 43.7376 46.6172L43.8042 46.6794L43.2624 47.27C42.7118 47.8695 42.1655 48.469 41.6149 49.073C40.3581 50.4585 39.057 51.884 37.7558 53.2784Z" fill="#476B42"/>
<path d="M38.977 53.2816L38.9104 53.2239C40.5402 51.4209 42.17 49.6579 43.742 47.9526L43.8086 48.0148L38.977 53.2816Z" fill="#476B42"/>
<path d="M43.7431 49.2858L40.1333 53.2241L40.1988 53.2841L43.8086 49.3458L43.7431 49.2858Z" fill="#476B42"/>
<path d="M41.4196 53.2817L41.353 53.2239C41.7305 52.7843 42.1435 52.3491 42.4766 51.9983L43.7422 50.6172L43.8088 50.6749C43.4136 51.1368 42.9961 51.5764 42.592 52.0072L42.5432 52.0605L41.4196 53.2817Z" fill="#476B42"/>
<path d="M42.6762 53.242L42.6096 53.1842C42.8139 52.9489 43.0315 52.7135 43.2447 52.4915L43.3823 52.3449L43.742 51.9497L43.8086 52.0074C43.6799 52.1495 43.5555 52.2872 43.4489 52.4027L42.6762 53.242Z" fill="#476B42"/>
<path d="M43.289 53.6763H35.0024C34.5362 53.6763 34.1587 53.2988 34.1587 52.8325V38.4976C34.1587 38.0313 34.5362 37.6538 35.0024 37.6538H43.289C43.7553 37.6538 44.1328 38.0313 44.1328 38.4976V52.8325C44.1328 53.2988 43.7553 53.6763 43.289 53.6763ZM35.0024 38.0091C34.7316 38.0091 34.514 38.2267 34.514 38.4976V52.8325C34.514 53.1034 34.7316 53.321 35.0024 53.321H43.289C43.5599 53.321 43.7775 53.1034 43.7775 52.8325V38.4976C43.7775 38.2267 43.5599 38.0091 43.289 38.0091H35.0024Z" fill="#DCFFD6"/>
<path opacity="0.3" d="M43.0892 38.0585L35.4643 49.9022L35.2778 49.6979C35.2778 49.6979 39.4433 41.1627 41.3617 38.0363C41.606 37.6322 43.0892 38.0585 43.0892 38.0585Z" fill="black"/>
<path d="M43.2492 55.6785C43.0671 55.9982 42.6585 56.1048 42.3388 55.9227L35.1669 51.7794C34.8472 51.5973 34.7406 51.1888 34.9226 50.8691L42.0901 38.4525C42.2722 38.1328 42.6807 38.0262 43.0005 38.2083L50.1768 42.3516C50.4966 42.5336 50.6032 42.9422 50.4211 43.2619L43.2492 55.6785Z" fill="#28A142"/>
<path d="M49.7504 44.0017C49.6883 43.7663 49.6439 43.5398 49.5995 43.3311L49.333 42.1321L49.4174 42.1099C49.5195 42.4607 49.5861 42.8026 49.6483 43.1357C49.6616 43.1934 49.6705 43.2512 49.6838 43.3089L49.8304 43.9794L49.7504 44.0017Z" fill="#476B42"/>
<path d="M49.0842 45.1564L48.6624 43.2557C48.538 42.705 48.3959 42.0789 48.2627 41.4616L48.3515 41.4438L48.7556 43.2735C48.8933 43.8819 49.0354 44.508 49.1686 45.143L49.0842 45.1564Z" fill="#476B42"/>
<path d="M47.274 40.7737L47.1873 40.793L48.4113 46.3072L48.498 46.288L47.274 40.7737Z" fill="#476B42"/>
<path d="M47.752 47.4608C47.4678 46.2085 47.1925 44.9473 46.9216 43.7305L46.8816 43.5573L46.1311 40.1823L46.2199 40.1646C46.4686 41.2614 46.704 42.3405 46.9704 43.5396L47.8364 47.4475L47.752 47.4608Z" fill="#476B42"/>
<path d="M47.086 48.6165C46.7573 47.2576 46.4598 45.8766 46.1712 44.5399C46.0646 44.0469 45.958 43.554 45.8514 43.0566L45.5983 41.9242C45.4651 41.3292 45.3363 40.7918 45.2119 40.2811V40.2722C45.2075 40.2012 45.1986 40.139 45.1897 40.0769L45.1098 39.7127C45.0965 39.6772 45.092 39.6461 45.092 39.6194V39.2153L45.1986 39.6861C45.2031 39.7038 45.2119 39.7216 45.2208 39.7349C45.2341 39.7616 45.2475 39.7882 45.2519 39.8148V39.8237C45.2564 39.9037 45.2652 39.9703 45.2786 40.0413L45.283 40.0591L45.6916 41.9065C45.7715 42.2529 45.8514 42.6214 45.9447 43.0389L47.1792 48.5943L47.086 48.6165Z" fill="#476B42"/>
<path d="M46.4199 49.77L44.0308 39.0187L44.1196 39.001V39.0143L46.5043 49.7477L46.4199 49.77Z" fill="#476B42"/>
<path d="M45.7538 50.9256L42.9739 38.4025L43.0627 38.3848C44.0486 42.7723 45.0211 47.1776 45.8426 50.9079L45.7538 50.9256Z" fill="#476B42"/>
<path d="M42.1936 38.6575L42.1069 38.6768L45.0815 52.0766L45.1682 52.0574L42.1936 38.6575Z" fill="#476B42"/>
<path d="M41.5276 39.8113L41.4409 39.8306L44.4155 53.2304L44.5022 53.2112L41.5276 39.8113Z" fill="#476B42"/>
<path d="M40.8616 40.9676L40.7749 40.9868L43.7494 54.3867L43.8361 54.3674L40.8616 40.9676Z" fill="#476B42"/>
<path d="M40.1949 42.1165L40.1082 42.1357L43.0827 55.5356L43.1694 55.5164L40.1949 42.1165Z" fill="#476B42"/>
<path d="M42.1611 55.5168C41.6682 53.3896 41.193 51.2092 40.7312 49.0953L40.6024 48.4958L39.4478 43.2912L39.5366 43.2734C39.9362 45.0098 40.327 46.7994 40.6912 48.4781L42.2499 55.4946L42.1611 55.5168Z" fill="#476B42"/>
<path d="M41.0999 54.8948C40.6913 53.1939 40.3227 51.4665 39.9986 49.9433L38.7773 44.4455L38.8617 44.4233C39.288 46.1952 39.6744 47.9982 40.043 49.7434L40.0829 49.9211L41.1798 54.8726L41.0999 54.8948Z" fill="#476B42"/>
<path d="M40.0561 54.3443C39.6875 52.8744 39.3722 51.3689 39.0703 49.9079L39.0436 49.7836L38.1155 45.6003L38.1999 45.5781C38.5551 47.0036 38.8571 48.4691 39.128 49.7614L40.1405 54.3221L40.0561 54.3443Z" fill="#476B42"/>
<path d="M38.9949 53.7355L38.0757 49.5878C37.8714 48.6819 37.6538 47.7182 37.4451 46.7546L37.5339 46.7368L38.1645 49.5701L38.2577 49.9875C38.5331 51.2043 38.8173 52.4655 39.0837 53.7178L38.9949 53.7355Z" fill="#476B42"/>
<path d="M37.9379 53.123C37.9068 52.9942 37.8757 52.861 37.8446 52.7055L36.7788 47.905L36.8632 47.8828C37.0097 48.4734 37.1474 49.0818 37.2762 49.6725C37.3916 50.1787 37.5071 50.6983 37.6314 51.2179C37.6936 51.4976 37.7469 51.773 37.8002 52.0439C37.8402 52.257 37.8846 52.4746 37.929 52.6878L38.0222 53.1008L37.9379 53.123Z" fill="#476B42"/>
<path d="M36.8811 52.5142C36.6546 51.555 36.4414 50.578 36.2371 49.6277C36.1972 49.4367 36.1572 49.2502 36.1128 49.0593L36.2016 49.0415L36.9699 52.492L36.8811 52.5142Z" fill="#476B42"/>
<path d="M35.8373 51.9637V51.9593L35.4465 50.2141L35.5353 50.1963L35.9217 51.946L35.8373 51.9637Z" fill="#476B42"/>
<path d="M41.7703 39.3967L41.7437 39.3124L42.6851 39.0148C42.996 38.9082 43.3157 38.8017 43.6354 38.7173L43.6621 38.8017L42.7117 39.1036C42.4053 39.2058 42.09 39.3124 41.7703 39.3967Z" fill="#476B42"/>
<path d="M41.1042 40.5513L41.082 40.4669L43.4978 39.7075C43.8487 39.5876 44.2661 39.45 44.6969 39.3301L44.7235 39.4145L43.5245 39.7919C43.3868 39.8363 43.2536 39.8852 43.1159 39.934C42.4587 40.1516 41.7837 40.387 41.1042 40.5513Z" fill="#476B42"/>
<path d="M45.7989 39.9223L40.4111 41.6187L40.4378 41.7034L45.8255 40.0071L45.7989 39.9223Z" fill="#476B42"/>
<path d="M46.8625 40.5318L39.7466 42.7744L39.7733 42.8591L46.8892 40.6165L46.8625 40.5318Z" fill="#476B42"/>
<path d="M39.1726 44.0281C39.1371 44.0281 39.106 44.0237 39.0749 44.0104L38.9639 43.9615L41.0999 43.291C42.0902 42.9712 43.0894 42.6604 44.0308 42.3673L47.9165 41.1416L47.9432 41.226C46.7531 41.6123 45.5496 41.9854 44.3817 42.3495L44.053 42.4516L41.1221 43.3753C40.5448 43.5618 40.0119 43.735 39.5012 43.9082C39.4657 43.9171 39.4257 43.9393 39.3902 43.9571C39.328 43.9882 39.2525 44.0281 39.1726 44.0281Z" fill="#476B42"/>
<path d="M38.4397 45.1657L38.4131 45.0814L48.9156 41.7729L48.9423 41.8573C48.0274 42.146 47.1171 42.4391 46.2067 42.7277C43.671 43.536 41.042 44.3753 38.4397 45.1657Z" fill="#476B42"/>
<path d="M37.7738 46.3201L37.7427 46.2357C37.8759 46.178 37.978 46.1469 38.0846 46.1292L46.7353 43.4025C47.024 43.3048 47.3037 43.2115 47.5702 43.1183C47.9477 43.0162 48.3118 42.8963 48.6715 42.7808C49.0712 42.652 49.4797 42.5143 49.9105 42.4033L49.9327 42.4877L46.762 43.4869C45.6962 43.8421 44.6348 44.1752 43.6046 44.4949C42.5654 44.8191 41.4907 45.1522 40.4205 45.5119C40.0386 45.6318 39.6744 45.7473 39.3058 45.8583C38.9506 45.9693 38.5953 46.0803 38.2267 46.1958H38.2178C38.1779 46.2002 38.1379 46.2047 38.1024 46.2091L37.7738 46.3201Z" fill="#476B42"/>
<path d="M50.1765 43.2694L37.0828 47.3901L37.1094 47.4749L50.2032 43.3541L50.1765 43.2694Z" fill="#476B42"/>
<path d="M49.5108 44.4174L36.417 48.5381L36.4437 48.6228L49.5374 44.5021L49.5108 44.4174Z" fill="#476B42"/>
<path d="M48.8433 45.5751L35.7495 49.6958L35.7762 49.7805L48.8699 45.6598L48.8433 45.5751Z" fill="#476B42"/>
<path d="M48.1773 46.7279L35.0835 50.8486L35.1102 50.9334L48.2039 46.8126L48.1773 46.7279Z" fill="#476B42"/>
<path d="M35.4822 51.7602L35.4556 51.6758L47.5124 47.8789L47.539 47.9633C43.5956 49.2112 39.5189 50.5034 35.4822 51.7602Z" fill="#476B42"/>
<path d="M36.5347 52.3732L36.5081 52.2888L46.8418 49.0337L46.8685 49.1181C45.7272 49.4778 44.5726 49.8464 43.4535 50.2016C41.1931 50.921 38.8528 51.6671 36.5347 52.3732Z" fill="#476B42"/>
<path d="M37.6626 52.964L37.636 52.8796L45.4119 50.4283C45.665 50.3483 45.9225 50.2684 46.1757 50.1885L46.2023 50.2729L45.4385 50.5127C44.6614 50.7569 43.8887 51.0056 43.1115 51.2498C41.3307 51.8183 39.4878 52.4044 37.6626 52.964Z" fill="#476B42"/>
<path d="M38.7151 53.5711L38.6885 53.4868C40.9977 52.7451 43.2892 52.0302 45.5096 51.3374L45.5362 51.4218L38.7151 53.5711Z" fill="#476B42"/>
<path d="M44.8468 52.4968L39.7507 54.1006L39.7774 54.1853L44.8734 52.5815L44.8468 52.4968Z" fill="#476B42"/>
<path d="M40.8333 54.7937L40.8066 54.7093C41.3573 54.5183 41.9302 54.3452 42.392 54.2119L44.1817 53.6479L44.2083 53.7323C43.6354 53.9366 43.0537 54.1098 42.4853 54.2741L42.4142 54.2963L40.8333 54.7937Z" fill="#476B42"/>
<path d="M41.9436 55.387L41.917 55.3026C42.2101 55.2005 42.5165 55.1072 42.8096 55.0184L43.0005 54.9606L43.5112 54.8008L43.5379 54.8852C43.3558 54.9473 43.1782 55.0006 43.0228 55.045L41.9436 55.387Z" fill="#476B42"/>
<path d="M42.25 56.0732L35.0736 51.9299C34.6695 51.699 34.5318 51.1794 34.7627 50.7753L41.9302 38.3588C42.1611 37.9546 42.6807 37.817 43.0848 38.0479L50.2612 42.1912C50.6653 42.4221 50.803 42.9417 50.5721 43.3458L43.4046 55.7623C43.1737 56.1709 42.6541 56.3085 42.25 56.0732ZM42.9116 38.3632C42.6763 38.23 42.3787 38.3099 42.2455 38.5408L35.078 50.9574C34.9448 51.1927 35.0248 51.4903 35.2557 51.6235L42.432 55.7668C42.6674 55.9 42.9649 55.82 43.0982 55.5891L50.2656 43.1726C50.3989 42.9372 50.3189 42.6397 50.088 42.5065L42.9116 38.3632Z" fill="#DCFFD6"/>
<path opacity="0.3" d="M49.3906 41.6962L36.7032 48.6549L36.6455 48.384L48.276 41.0522L49.3906 41.6962Z" fill="black"/>
<path d="M40.8999 57.2687C40.5801 57.4508 40.176 57.3442 39.9895 57.0245L35.8462 49.8481C35.6642 49.5284 35.7707 49.1243 36.0905 48.9378L48.507 41.7703C48.8267 41.5882 49.2308 41.6948 49.4174 42.0145L53.5606 49.1909C53.7427 49.5106 53.6361 49.9148 53.3164 50.1013L40.8999 57.2687Z" fill="#28A142"/>
<path d="M52.4503 50.4329L52.366 50.4062C52.4281 50.1709 52.5036 49.9533 52.5747 49.749L52.9433 48.5811L53.0276 48.6033C52.9433 48.9585 52.8278 49.2871 52.7168 49.6113C52.699 49.6691 52.6768 49.7223 52.6591 49.7801L52.4503 50.4329Z" fill="#476B42"/>
<path d="M51.2958 51.1004L51.2114 51.0738L51.7976 49.2131C51.9664 48.6757 52.1529 48.0629 52.3483 47.4634L52.4326 47.49L51.8687 49.2752C51.6866 49.8703 51.4956 50.4831 51.2958 51.1004Z" fill="#476B42"/>
<path d="M51.7552 46.3521L50.0566 51.7393L50.1413 51.766L51.8399 46.3788L51.7552 46.3521Z" fill="#476B42"/>
<path d="M48.9865 52.4328L48.9021 52.4062C49.284 51.1805 49.6748 49.9504 50.0523 48.7603L50.1056 48.5915L51.1447 45.292L51.2291 45.3186C50.896 46.3933 50.563 47.4502 50.1899 48.6182L48.9865 52.4328Z" fill="#476B42"/>
<path d="M47.8363 53.0995L47.752 53.0728C48.1472 51.7317 48.5779 50.3861 48.9998 49.085C49.1552 48.6054 49.3107 48.1213 49.4661 47.6417L49.8125 46.536C49.9946 45.9542 50.1544 45.4258 50.301 44.9195L50.3054 44.9106C50.3365 44.8484 50.3587 44.7907 50.3854 44.7285L50.4964 44.3688C50.5008 44.3289 50.5141 44.3022 50.5275 44.2756L50.7273 43.9292L50.5807 44.391C50.5763 44.4088 50.5763 44.4266 50.5719 44.4443C50.5674 44.4754 50.5674 44.5065 50.5585 44.5287L50.5541 44.5376C50.5186 44.6086 50.4964 44.6708 50.4697 44.7374L50.4653 44.7552L49.8969 46.5582C49.7903 46.8957 49.6793 47.2598 49.5505 47.6639L47.8363 53.0995Z" fill="#476B42"/>
<path d="M46.6818 53.7641L46.5974 53.7374L46.6019 53.7197L49.9058 43.2305L49.9902 43.2571L46.6818 53.7641Z" fill="#476B42"/>
<path d="M45.5272 54.4305L45.4429 54.4039L49.2975 42.1694L49.3819 42.1961C48.0407 46.4859 46.6819 50.7846 45.5272 54.4305Z" fill="#476B42"/>
<path d="M48.4106 41.9793L44.2844 55.0703L44.3691 55.097L48.4953 42.006L48.4106 41.9793Z" fill="#476B42"/>
<path d="M47.2604 42.6478L43.1328 55.7388L43.2175 55.7655L47.3451 42.6745L47.2604 42.6478Z" fill="#476B42"/>
<path d="M46.1037 43.3079L41.9775 56.3989L42.0622 56.4256L46.1884 43.3346L46.1037 43.3079Z" fill="#476B42"/>
<path d="M44.9544 43.9725L40.8254 57.0635L40.9101 57.0902L45.0391 43.9992L44.9544 43.9725Z" fill="#476B42"/>
<path d="M40.1183 56.6106L40.0339 56.584C40.669 54.4968 41.3484 52.3652 42.0057 50.3091L42.1922 49.7229L43.7953 44.6382L43.8797 44.6648C43.3557 46.3701 42.8006 48.1109 42.2765 49.7496L40.1183 56.6106Z" fill="#476B42"/>
<path d="M39.5099 55.5413L39.4255 55.5146C39.9229 53.836 40.4691 52.1573 40.9487 50.6786L42.6407 45.3052L42.7251 45.3318C42.2099 47.0771 41.6415 48.8356 41.0908 50.532L41.0331 50.7052L39.5099 55.5413Z" fill="#476B42"/>
<path d="M38.8837 54.5405L38.7993 54.5139C39.2168 53.0573 39.6964 51.5962 40.1626 50.1796L40.2026 50.0553L41.4904 45.9697L41.5748 45.9964C41.1663 47.4086 40.7 48.8296 40.287 50.0819L38.8837 54.5405Z" fill="#476B42"/>
<path d="M38.2709 53.4884L38.1865 53.4617L39.461 49.4117C39.7364 48.528 40.0295 47.5821 40.3359 46.6406L40.4203 46.6673L39.5499 49.4383L39.4211 49.8469C39.0525 51.037 38.6661 52.2716 38.2709 53.4884Z" fill="#476B42"/>
<path d="M37.6625 52.4269L37.5781 52.4003C37.6181 52.2759 37.6581 52.1427 37.7069 51.9961L39.1857 47.3066L39.2701 47.3333C39.1013 47.9195 38.9148 48.5145 38.7372 49.0874C38.5817 49.5803 38.4263 50.091 38.2709 50.6062C38.1821 50.8771 38.0933 51.1479 38.0044 51.4055C37.9334 51.6098 37.8623 51.8185 37.7957 52.0272L37.6625 52.4269Z" fill="#476B42"/>
<path d="M37.0497 51.3704L36.9653 51.3437C37.2495 50.3978 37.556 49.4475 37.8491 48.5238C37.9068 48.3373 37.969 48.1552 38.0267 47.9731L38.1111 47.9998L37.0497 51.3704Z" fill="#476B42"/>
<path d="M36.8734 48.6371L36.3337 50.3481L36.4184 50.3749L36.9581 48.6638L36.8734 48.6371Z" fill="#476B42"/>
<path d="M49.6925 42.8574L48.72 42.6398C48.4047 42.5776 48.0761 42.5155 47.7563 42.4267L47.7786 42.3423L48.7422 42.5554C49.0619 42.6176 49.395 42.6842 49.7147 42.773L49.6925 42.8574Z" fill="#476B42"/>
<path d="M50.301 43.9152L49.0753 43.6443C48.9332 43.6177 48.7956 43.591 48.6535 43.5599C47.974 43.4267 47.2724 43.2935 46.6018 43.0937L46.624 43.0093L49.0931 43.5555C49.4572 43.6265 49.888 43.7154 50.3232 43.8264L50.301 43.9152Z" fill="#476B42"/>
<path d="M45.4668 43.6755L45.4475 43.7622L50.9618 44.9863L50.981 44.8996L45.4668 43.6755Z" fill="#476B42"/>
<path d="M51.5801 46.0461L51.5667 46.0417L44.2971 44.4252L44.3193 44.3408L51.6023 45.9573L51.5801 46.0461Z" fill="#476B42"/>
<path d="M52.1883 47.1037C50.9671 46.8417 49.7325 46.5663 48.5424 46.2954L48.2093 46.2199L45.2074 45.5538C44.6123 45.425 44.0661 45.314 43.5376 45.203C43.5021 45.1941 43.4577 45.1897 43.4177 45.1897C43.3156 45.1852 43.1957 45.1808 43.1202 45.0787L43.0447 44.981L45.2296 45.465C46.2465 45.6826 47.2723 45.9135 48.2315 46.1311L52.2105 47.0148L52.1883 47.1037Z" fill="#476B42"/>
<path d="M52.7434 48.1469C51.8064 47.9426 50.8694 47.7383 49.9368 47.534C47.3345 46.9656 44.6434 46.3794 41.9922 45.7622L42.01 45.6733L52.7612 48.0581L52.7434 48.1469Z" fill="#476B42"/>
<path d="M53.2852 49.1904L50.039 48.4709C48.9376 48.2489 47.8541 48.0047 46.8016 47.7649C45.7403 47.5251 44.6434 47.2808 43.5332 47.0543C43.1424 46.9655 42.7738 46.8856 42.4008 46.8012C42.0366 46.7213 41.6725 46.6369 41.295 46.5525L41.2861 46.5481C41.2506 46.5303 41.2151 46.5125 41.1795 46.5037L40.842 46.4282L40.8554 46.3394C41.0019 46.3571 41.104 46.3793 41.2062 46.4148L50.0612 48.3821C50.3587 48.4443 50.6518 48.502 50.9316 48.5553C51.309 48.6575 51.6865 48.7374 52.0551 48.8129C52.4636 48.8973 52.89 48.9861 53.3163 49.106L53.2852 49.1904Z" fill="#476B42"/>
<path d="M39.6989 47.0046L39.6797 47.0913L53.0796 50.0659L53.0988 49.9792L39.6989 47.0046Z" fill="#476B42"/>
<path d="M38.5449 47.6711L38.5256 47.7578L51.9255 50.7324L51.9447 50.6457L38.5449 47.6711Z" fill="#476B42"/>
<path d="M37.3908 48.3391L37.3716 48.4258L50.7714 51.4003L50.7907 51.3136L37.3908 48.3391Z" fill="#476B42"/>
<path d="M36.2368 49.0061L36.2175 49.0928L49.6174 52.0673L49.6366 51.9806L36.2368 49.0061Z" fill="#476B42"/>
<path d="M48.467 52.7292C44.4347 51.841 40.2692 50.9218 36.1304 49.9892L36.1481 49.9004L48.4847 52.6404L48.467 52.7292Z" fill="#476B42"/>
<path d="M47.3124 53.395C46.14 53.133 44.9543 52.8754 43.8086 52.6267C41.4905 52.1205 39.0924 51.5965 36.7344 51.0502L36.7521 50.9614L47.3257 53.3106H47.3302L47.3124 53.395Z" fill="#476B42"/>
<path d="M46.1578 54.0617L45.3718 53.8885C44.5769 53.7109 43.7819 53.5377 42.987 53.3645C41.1619 52.9648 39.2701 52.5518 37.4138 52.121L37.4316 52.0322L45.3895 53.7997C45.6515 53.8574 45.9135 53.9151 46.1711 53.9729L46.1578 54.0617Z" fill="#476B42"/>
<path d="M45.0076 54.727L38.0266 53.1772L38.0444 53.0884C40.4069 53.5946 42.7561 54.1275 45.0253 54.6382L45.0076 54.727Z" fill="#476B42"/>
<path d="M38.6535 54.1496L38.6343 54.2363L43.8494 55.394L43.8687 55.3073L38.6535 54.1496Z" fill="#476B42"/>
<path d="M42.6983 56.0646C42.1032 55.9536 41.5082 55.8115 40.9353 55.6738L40.8643 55.656L39.2478 55.2963L39.2656 55.2075C39.8384 55.3141 40.4202 55.4562 40.8865 55.5672L42.7205 55.9758L42.6983 56.0646Z" fill="#476B42"/>
<path d="M41.5439 56.7317C41.3574 56.6918 41.1753 56.6518 41.0199 56.6163L39.9097 56.372L39.9274 56.2832C40.2338 56.3409 40.5447 56.412 40.8422 56.483L41.0376 56.5274L41.5617 56.6429L41.5439 56.7317Z" fill="#476B42"/>
<path d="M39.8384 57.1132L35.6951 49.9369C35.4642 49.5328 35.6019 49.0176 36.006 48.7823L48.4225 41.6148C48.8266 41.3839 49.3417 41.5215 49.5771 41.9257L53.7204 49.102C53.9513 49.5061 53.8136 50.0213 53.4095 50.2566L40.9886 57.4241C40.5845 57.655 40.0693 57.5174 39.8384 57.1132ZM49.2618 42.1033C49.1286 41.8679 48.8266 41.788 48.5957 41.9257L36.1792 49.0931C35.9438 49.2264 35.8639 49.5283 36.0015 49.7593L40.1448 56.9356C40.278 57.171 40.58 57.2509 40.8109 57.1132L53.2275 49.9458C53.4628 49.8125 53.5428 49.5106 53.4051 49.2796L49.2618 42.1033Z" fill="#DCFFD6"/>
<path d="M45.7803 54.5035C45.5183 54.6279 45.1719 54.6279 44.8877 54.6723C44.6612 54.7078 44.3859 54.7567 44.1638 54.7034C43.9196 54.6456 43.702 54.5613 43.4533 54.5213C43.2535 54.4902 43.2357 54.6723 43.1513 54.8277C43.067 54.9787 43.0181 55.1519 42.9337 55.3073C42.8538 55.4539 42.7383 55.6271 42.6318 55.7425C42.5563 55.8269 42.4008 55.9823 42.2854 56.0045C42.2632 56.0933 42.3076 56.1822 42.2854 56.2754C42.2454 56.4619 42.1477 56.6351 42.0633 56.8039C41.9123 57.1014 41.7924 57.3235 41.4283 57.3501C40.9443 57.3812 40.5712 57.359 40.1449 57.1325C39.9051 57.0082 39.6609 56.906 39.4344 56.7595C38.9503 56.4486 38.484 56.0889 38.0844 55.6759C37.2317 54.7922 36.3835 53.8685 35.9128 52.7183C35.7041 52.2032 35.5442 51.6747 35.6153 51.1108C35.6686 50.7022 35.8906 50.2226 36.2459 49.9961C36.5745 49.783 36.9386 49.7963 37.3161 49.8007C37.889 49.8052 38.4974 49.8407 39.0613 49.9561C39.6786 50.0894 40.3048 50.2359 40.9043 50.4357C41.5127 50.64 42.1255 50.791 42.7117 51.0663C43.6176 51.4927 44.4303 52.3098 44.8877 53.1935L45.7803 54.5035Z" fill="#9E958E"/>
<path d="M43.4665 54.3077C43.4044 54.5253 43.2978 54.7474 43.1512 54.9117C42.9736 55.1071 42.6228 55.2092 42.3741 55.298C41.7746 55.5112 41.0596 55.5023 40.4379 55.4179C39.7807 55.3247 39.0701 55.1737 38.4795 54.8584C38.253 54.7385 38.0132 54.5697 38.0621 54.2988C38.1154 54.0102 38.3463 53.9525 38.5772 53.8148C39.0346 53.5439 39.4387 53.5039 39.9761 53.4773C40.6155 53.4418 41.2461 53.4506 41.8856 53.3751C42.3075 53.3219 42.716 53.2908 43.0802 53.5439C43.3999 53.7659 43.3511 54.1212 43.4576 54.4543L43.4665 54.3077Z" fill="#EDB07E"/>
<path d="M44.9988 51.5897C44.5636 51.0746 44.3327 50.6394 43.8797 50.1287C43.6488 49.8667 43.4756 49.7645 43.2181 49.5381C42.9871 49.3338 42.361 49.0362 42.0635 48.9874C40.9088 48.7876 39.7675 48.4589 38.6351 48.1348C37.9601 47.9438 37.2807 47.7484 36.6057 47.5575C36.1216 47.4198 35.571 47.2688 35.0692 47.3088C34.2121 47.3754 33.6437 48.0104 32.9953 48.4723C32.4891 48.832 31.9872 49.1917 31.4765 49.5425C30.9259 49.92 30.3841 50.2886 29.8779 50.7193C29.0519 51.4165 25.3171 55.1513 24.349 55.7374C22.5772 56.8166 19.8372 65.3252 19.2066 67.0171C17.4303 71.7821 13.6822 79.6601 13.6822 79.6601C13.4824 79.9976 13.2825 80.3395 13.1271 80.6992C11.6128 84.1853 13.1493 88.2797 15.1299 91.0863C16.249 92.6673 17.3459 94.7189 19.5929 93.8796C22.6527 92.7339 24.8819 89.048 26.0188 86.1792C27.3954 82.7021 27.4976 75.9121 27.4798 72.2395C27.4709 70.6763 27.6175 69.1665 27.9461 67.6388C28.0882 66.986 28.6966 64.81 29.265 62.563C29.6114 62.634 29.9578 62.6873 30.3042 62.714C30.695 62.745 32.2404 62.5052 32.6312 62.3898C33.1818 62.2299 35.3711 61.364 35.8596 61.062C36.0506 60.9421 36.6457 60.5646 36.7567 60.5069C37.072 60.3337 37.6182 60.4269 37.969 60.3959C38.4797 60.347 39.8875 60.3959 40.2338 60.3781C41.3574 60.3115 41.8059 58.8771 41.233 58.4153C40.971 58.2065 39.0348 57.6603 38.5508 57.5049C38.1955 57.3894 37.2985 56.9764 37.1519 56.599C37.2496 56.6878 38.4397 57.1452 38.7062 57.2207C39.2347 57.3717 41.344 57.9223 41.5794 57.8868C41.8991 57.8379 42.2322 57.5182 42.3166 57.2384C42.6541 56.0927 42.4098 55.995 41.837 55.5731C41.1353 55.0536 40.4825 54.8404 39.6965 54.4718C38.9327 54.1121 38.2044 53.9611 37.2629 53.3394C37.6715 53.6014 38.1644 53.5703 38.7284 53.8412C39.4967 54.2098 41.4062 54.7116 42.2411 54.8937C43.8131 55.2356 44.0218 53.0996 42.9561 52.6688C42.25 52.3846 39.8608 51.2567 39.2302 51.0257C38.9105 50.9103 38.0001 50.4751 37.858 50.4085C38.2266 50.515 40.2827 51.159 40.9044 51.3366C41.4195 51.4831 41.8769 51.5142 42.3876 51.6474C42.6585 51.7185 44.1862 53.3749 44.4304 53.668C44.7768 54.0855 45.9492 54.8626 46.4954 54.4718C47.5212 53.7391 45.4873 52.167 44.9988 51.5897Z" fill="#FFC391"/>
<path d="M17.3147 73.1672C18.4693 71.3065 18.8735 69.6723 19.9925 67.7938C20.5565 66.8524 23.8561 58.1839 24.3001 57.2202C24.6776 56.4031 27.2977 54.9288 28.6211 53.9918C29.2827 53.5255 33.2173 50.7944 33.7857 50.2037C34.3231 49.6442 34.9226 49.0758 35.6375 48.7516C35.9706 48.6006 36.3081 48.5118 36.6767 48.5162C37.1074 48.5207 37.5382 48.6051 37.9556 48.7072C38.382 48.8093 38.8038 48.9381 39.2346 49.0181C39.7275 49.1113 40.2249 49.1735 40.7223 49.2356C41.2196 49.2978 41.7215 49.3556 42.2188 49.4444C42.6274 49.5199 43.0137 49.6087 43.3823 49.8041C43.5422 49.8884 43.6976 49.9861 43.8486 50.0883C43.631 49.8529 43.4667 49.7508 43.2224 49.5332C42.9915 49.3289 42.3654 49.0314 42.0678 48.9825C40.9132 48.7827 39.7719 48.4541 38.6395 48.1299C37.9645 47.9389 37.2851 47.7435 36.6101 47.5526C36.126 47.4149 35.5754 47.2639 35.0736 47.3039C34.2165 47.3705 33.6481 48.0055 32.9997 48.4674C32.4934 48.8271 31.9916 49.1868 31.4809 49.5376C30.9303 49.9151 30.3885 50.2837 29.8822 50.7144C29.0563 51.4116 25.3215 55.1464 24.3534 55.7326C22.5815 56.8117 19.8416 65.3203 19.211 67.0122C18.1363 69.8988 16.3378 73.931 15.0854 76.6577C15.8004 75.4809 16.5909 74.3351 17.3147 73.1672Z" fill="#FFD9BA"/>
<path d="M36.6589 49.7643C36.3302 49.7021 36.0105 49.8176 35.6819 49.8398C35.7085 49.8486 35.7352 49.8531 35.7618 49.862C35.8817 49.8975 36.0016 49.9419 36.1171 49.9863C36.348 50.0707 36.61 50.1906 36.8631 50.195C36.9431 50.195 37.023 50.1728 36.9919 50.0751C36.9475 49.9064 36.8232 49.7954 36.6589 49.7643Z" fill="#FFCFA8"/>
<path d="M34.9668 52.883C35.3265 52.8475 35.6818 52.8741 36.037 52.9363C36.1925 52.9629 36.3479 53.0118 36.5078 52.994C36.5566 52.9896 36.641 52.9807 36.6632 52.9318C36.6943 52.8608 36.6188 52.7764 36.5744 52.732C36.1392 52.2835 35.4464 52.7053 34.9668 52.883Z" fill="#FFCFA8"/>
<path d="M35.5132 55.7598C35.1668 55.782 34.8248 55.8708 34.5007 55.9952C34.4873 55.9996 34.4785 55.9952 34.474 55.9819C34.434 55.9952 34.3985 56.0085 34.3674 56.0352C34.8604 56.1328 35.3577 56.1728 35.8462 56.3149C35.9528 56.346 36.5568 56.4259 36.4679 56.1728C36.3347 55.8131 35.8418 55.7421 35.5132 55.7598Z" fill="#FFCFA8"/>
<path d="M40.8822 59.3432C40.4204 59.5386 39.8919 59.5475 39.4034 59.5164C39.057 59.4942 38.7106 59.4498 38.3687 59.4009C37.8536 59.3254 37.3073 59.3299 36.7878 59.3743C36.2726 59.4187 35.7664 59.5208 35.2734 59.6851C34.7494 59.8628 34.2565 60.1114 33.7458 60.3246C32.7466 60.7376 31.6986 61.0973 30.6195 61.195C29.6425 61.2794 28.6344 61.1195 27.8928 60.4578C27.9594 60.7776 28.0971 61.0751 28.2259 61.3726C28.3413 61.6346 28.2925 61.981 28.368 62.2564C28.4435 62.5317 27.5731 69.3661 27.5997 69.7391C27.693 68.5446 29.1274 63.0957 29.2606 62.5717C29.607 62.6427 29.9534 62.696 30.2997 62.7226C30.6905 62.7537 32.2359 62.5139 32.6267 62.3985C33.1774 62.2386 35.3667 61.3726 35.8552 61.0707C36.0462 60.9508 36.6412 60.5733 36.7522 60.5156C37.0675 60.3424 37.6138 60.4356 37.9646 60.4045C38.4753 60.3557 39.883 60.4045 40.2294 60.3868C41.1309 60.3335 41.6016 59.3965 41.4506 58.7881C41.3485 59.0279 41.1575 59.2277 40.8822 59.3432Z" fill="#F7B783"/>
<path d="M27.4753 72.1641C27.2089 73.6073 26.8802 78.3013 26.5694 79.7357C26.263 81.1345 25.8988 82.5245 25.2949 83.8256C24.6909 85.1268 23.9227 86.348 23.1366 87.547C22.7414 88.151 22.3329 88.7505 21.9509 89.3633C21.6845 89.7897 21.3914 90.2071 21.045 90.5712C20.4633 91.1885 19.6772 91.7036 18.7935 91.526C18.2873 91.4239 17.8698 91.1397 17.4702 90.8288C17.066 90.5135 16.6753 90.1804 16.3067 89.8296C15.534 89.0969 14.8323 88.2798 14.255 87.3827C13.6866 86.499 13.2292 85.5309 12.9849 84.5051C12.7451 83.4793 12.7229 82.4179 12.9583 81.3921C12.9583 81.3832 12.9627 81.3788 12.9716 81.3788C12.9761 81.2455 12.9894 81.1123 13.0116 80.9791C11.6882 84.4029 13.1937 88.3597 15.1254 91.0953C16.2445 92.6762 17.3414 94.7278 19.5884 93.8885C22.6482 92.7428 24.8774 89.0569 26.0143 86.1882C27.3909 82.711 27.4931 75.921 27.4753 72.2484C27.4753 72.2174 27.4753 72.1907 27.4753 72.1641Z" fill="#F7B783"/>
<path d="M42.3122 55.9727C42.3122 56.1103 42.3166 56.2435 42.3299 56.3812C42.3299 56.3901 42.3255 56.399 42.321 56.399C42.583 57.2072 41.0154 57.0695 40.6024 57.034C39.9097 56.9763 39.2214 56.8519 38.5419 56.7098C38.271 56.6521 38.0001 56.5944 37.7337 56.5278C37.6449 56.5056 37.5516 56.4834 37.4628 56.4567C37.4317 56.4478 37.3962 56.4389 37.3651 56.4301C37.2985 56.4123 37.2852 56.5056 37.2852 56.5988C37.294 56.6033 37.2985 56.6121 37.294 56.621C37.2896 56.6388 37.2896 56.6565 37.2896 56.6743C37.6315 56.8342 38.4842 57.1584 38.7062 57.2205C39.2347 57.3715 41.3441 57.9222 41.5794 57.8866C41.8992 57.8378 42.2322 57.5181 42.3166 57.2383C42.5253 56.51 42.5031 56.2036 42.3122 55.9727Z" fill="#F7B783"/>
<path d="M40.6067 53.894C39.6164 53.5698 38.564 53.6142 37.5603 53.3656C37.5559 53.37 37.547 53.37 37.5426 53.37C37.4582 53.3478 37.3783 53.3389 37.2983 53.3656C37.698 53.6009 38.1776 53.5832 38.7238 53.8452C39.4921 54.2137 41.4017 54.7156 42.2365 54.8976C42.8449 55.0309 43.249 54.7911 43.4533 54.4269C43.2091 54.4891 42.9471 54.4802 42.7028 54.4536C41.979 54.3736 41.2951 54.116 40.6067 53.894Z" fill="#F7B783"/>
<path d="M46.433 53.9915C46.4375 54.0048 46.433 54.0181 46.4197 54.0225C46.1311 54.1158 45.8024 53.9826 45.5493 53.8494C44.8654 53.4896 44.2704 52.9079 43.7996 52.2995C43.5776 52.0153 43.3733 51.7089 43.2312 51.3758C43.1468 51.176 43.0758 50.9451 43.1069 50.723C43.0269 50.8118 42.9292 50.8829 42.8226 50.9406C42.5162 51.1094 42.1565 51.1671 41.8101 51.1804C41.3883 51.1982 40.9664 51.1538 40.5534 51.0872C39.7985 50.9628 39.0613 50.7541 38.3241 50.5454C38.3108 50.5409 38.3063 50.5321 38.3108 50.5232C38.2486 50.5143 38.1864 50.5099 38.1243 50.501C38.8126 50.7097 40.3669 51.1982 40.8909 51.3447C41.406 51.4913 41.8634 51.5224 42.3741 51.6556C42.645 51.7266 44.1727 53.3831 44.4169 53.6762C44.7633 54.0936 45.9357 54.8707 46.4819 54.48C46.7172 54.3112 46.7927 54.1025 46.7661 53.8716C46.6684 53.9382 46.5529 53.9781 46.433 53.9915Z" fill="#F7B783"/>
<path d="M46.8685 54.0088C46.8907 53.9866 46.9129 53.9644 46.9351 53.9422C46.7397 53.5026 46.3933 52.9652 46.038 52.6144C45.4074 51.9883 45.1099 52.2991 44.9545 52.4545C44.799 52.6144 45.0122 53.4404 45.6428 54.0621C45.8293 54.2486 45.9936 54.4041 46.1357 54.5195C46.4022 54.3819 46.6553 54.2176 46.8685 54.0088Z" fill="#F7B885"/>
<path d="M47.2191 54.7212C46.8195 55.0099 46.4908 54.7257 45.8602 54.0995C45.2296 53.4734 44.9898 52.674 45.1364 52.5275C45.2785 52.3809 45.5538 52.0967 46.1844 52.7229C46.815 53.349 47.4545 54.5525 47.2191 54.7212Z" fill="#FF0000"/>
<path d="M47.1348 54.494C47.0993 54.5207 46.8906 53.9611 46.4509 53.4149C46.0113 52.8687 45.5095 52.5445 45.545 52.5179C45.5805 52.4912 46.1356 52.771 46.5753 53.3172C47.0105 53.8634 47.1659 54.4674 47.1348 54.494Z" fill="white"/>
<path d="M69.7473 83.8956C69.3743 83.3405 68.1487 80.9957 67.8733 80.6538C62.8463 74.4811 52.4504 80.787 45.163 80.9913C42.0766 81.0757 38.4751 81.2267 35.3843 81.764C31.5297 82.4301 31.0146 81.7773 28.7764 84.9747C27.1111 87.3505 24.8418 90.4635 23.5584 93.0525C23.3053 93.5632 23.181 94.0206 23.1632 94.4292C22.3328 97.8841 22.3283 97.2313 21.6222 100.713C21.4446 101.592 21.5423 105.096 21.6267 106.411C21.6889 107.365 21.7865 107.8 22.5282 107.632C23.5895 107.387 23.3941 105.1 23.5673 103.946C23.6828 103.173 23.5718 102.285 23.6961 101.49C23.9048 100.122 24.3667 98.87 24.7219 97.7287C24.2246 99.9402 24.0869 101.659 23.9004 104.035C23.7672 105.696 23.9448 108.631 24.1269 110.474C24.2468 111.717 25.7122 111.384 25.9476 110.363C26.3828 108.484 26.0364 106.18 26.2185 104.123C26.3828 102.281 27.2043 99.2963 27.9193 97.5999C28.2568 98.1772 27.5596 102.178 27.4974 103.022C27.382 104.559 27.4663 107.05 28.0703 108.498C28.2435 109.253 29.1095 108.951 29.3004 108.809C29.669 108.533 29.7001 107.956 29.7001 107.565C29.6956 106.277 29.4736 104.488 29.5713 103.213C29.7267 101.104 30.4595 99.5717 30.9657 97.5777C30.979 98.9189 31.0146 100.651 30.9968 102.067C30.979 103.386 31.2144 104.652 31.3299 105.989C31.4542 108.142 32.9907 107.343 32.9241 105.953C32.9063 105.562 32.9508 104.772 32.9508 104.403C32.9508 103.155 32.7998 102.147 32.893 100.931C33.0662 98.6924 32.8353 99.4695 33.3327 97.3113C33.5414 96.4054 34.0654 95.5971 34.1986 94.6823C35.4865 93.6521 36.237 91.9201 37.0052 90.2015C37.4893 89.1224 37.3827 89.1047 38.1865 88.6162C40.2115 87.3816 44.0928 88.1321 46.7173 88.1366C53.3119 88.141 60.1374 89.531 66.6699 88.3808C69.6008 87.8612 71.7324 86.8443 69.7473 83.8956Z" fill="#FFC391"/>
<path d="M22.2219 99.945C22.6215 98.6705 23.6696 96.2724 23.9138 94.9579C24.1714 93.568 24.4334 92.9285 24.7043 92.4444C24.9663 91.9781 25.2771 91.5385 25.6102 91.1211C26.374 90.1618 27.1601 89.2382 27.8439 88.2168C28.5678 87.1288 30.353 85.3125 31.0768 84.2245C31.703 83.2875 36.1882 82.6657 38.2576 82.6258C41.0776 82.5725 43.8975 82.8611 46.7174 82.7146C48.1651 82.6391 49.5728 82.3904 50.9939 82.1329C52.3794 81.8842 53.765 81.631 55.1461 81.3557C56.5183 81.0848 57.8905 80.7917 59.2538 80.4675C59.8578 80.321 60.475 80.21 61.0834 80.0768C61.8384 79.908 62.5978 79.7259 63.3172 79.4417C63.7302 79.2819 64.5784 78.971 64.5561 78.4114C64.5561 78.3937 64.5695 78.3892 64.5828 78.3892C59.1028 76.604 51.1005 80.8228 45.1631 80.9871C42.0767 81.0715 38.4752 81.2225 35.3844 81.7598C31.5298 82.4259 30.9703 81.7287 28.7321 84.9261C27.0668 87.302 24.7975 90.415 23.5141 93.004C23.261 93.5147 22.2885 97.4892 21.5868 100.966C21.5069 101.357 21.5735 102.294 21.5247 103.209C21.8622 101.726 21.7733 101.362 22.2219 99.945Z" fill="#FFDABD"/>
<path d="M71.0086 85.0677C70.9686 83.1804 70.0716 81.5062 68.6994 80.1517C67.6735 79.1392 65.9594 78.6907 64.5783 78.3843C66.0349 78.9349 65.4975 78.6241 66.4612 79.228C66.5367 79.2769 66.6122 79.3213 66.6832 79.3657C66.8475 79.5655 68.4729 81.0443 67.98 82.4299C66.892 85.4807 63.9788 86.1646 57.1355 86.8529C54.5287 87.1149 51.8998 86.9684 49.2797 86.995C48.0718 87.0083 46.8639 87.035 45.656 87.0128C45.0343 87.0039 44.417 86.9595 43.7953 86.9284C42.241 86.8574 40.5979 86.7641 39.0703 87.1194C38.5152 87.2481 37.8446 87.4524 37.5071 87.9542C37.2984 88.2651 37.1829 88.6337 37.0808 88.9934C36.9609 89.4108 34.5362 91.3115 33.5947 92.9102C33.5459 92.999 32.973 95.5613 32.9419 96.4984C32.9286 96.9202 32.9064 97.3466 32.8576 97.764C32.7998 98.2525 32.5156 100.89 32.4446 101.379C32.1337 103.639 32.9952 105.167 32.2403 106.042C31.965 106.361 32.1692 106.885 32.1159 107.303C32.5334 107.254 32.7332 107.014 32.9108 106.295C33.0307 105.82 32.9819 104.758 32.9819 104.39C32.9819 103.142 32.933 101.916 33.0263 100.699C33.1995 98.4612 34.0521 95.5836 34.1854 94.6687C35.4732 93.6385 36.4901 92.2441 37.2584 90.5255C37.7735 89.3753 37.2984 89.0911 38.1732 88.6026C40.1849 87.4791 44.155 88.4072 46.704 88.6115C53.3253 89.1355 60.1242 89.5174 66.6566 88.3672C69.2456 87.9098 71.0841 87.519 71.0041 85.0544C71.0086 85.0633 71.0086 85.0677 71.0086 85.0677Z" fill="#F7B783"/>
<path d="M28.6698 109.081C29.4025 109.072 29.4647 107.793 29.4203 107.064C29.3759 106.336 28.5499 106.341 28.2612 106.505C27.8127 106.762 27.9148 107.109 27.9592 107.837C28.0037 108.57 28.3234 109.085 28.6698 109.081Z" fill="#FFBD87"/>
<path d="M28.652 109.559C29.3448 109.559 29.3892 108.116 29.3404 107.294C29.2915 106.472 28.5099 106.468 28.239 106.65C27.8172 106.934 27.9193 107.329 27.9682 108.151C28.0214 108.973 28.3234 109.559 28.652 109.559Z" fill="#FF0000"/>
<path d="M28.781 109.382C28.7366 109.377 28.9586 108.822 28.9986 108.125C29.0386 107.423 28.8876 106.846 28.932 106.851C28.9764 106.855 29.2828 106.988 29.1585 108.134C29.083 108.827 28.8254 109.382 28.781 109.382Z" fill="white"/>
<path d="M31.9517 107.552C32.5157 107.548 32.5646 106.562 32.529 106.002C32.4935 105.443 31.8585 105.443 31.6364 105.571C31.29 105.771 31.37 106.038 31.4055 106.597C31.441 107.157 31.6853 107.552 31.9517 107.552Z" fill="#FFBD87"/>
<path d="M31.9384 107.921C32.4713 107.921 32.5068 106.81 32.4669 106.18C32.4269 105.549 31.8274 105.545 31.6231 105.683C31.2989 105.9 31.3789 106.207 31.4144 106.837C31.4544 107.468 31.6897 107.921 31.9384 107.921Z" fill="#FF0000"/>
<path d="M32.0405 107.778C32.005 107.778 32.1738 107.347 32.2093 106.81C32.2448 106.272 32.1249 105.828 32.156 105.828C32.1915 105.828 32.4269 105.935 32.3292 106.814C32.2715 107.356 32.0716 107.782 32.0405 107.778Z" fill="white"/>
<path d="M22.2484 108.072C22.879 108.067 22.9323 106.97 22.8923 106.344C22.8523 105.723 22.1462 105.723 21.902 105.865C21.5156 106.087 21.6045 106.384 21.6444 107.006C21.68 107.632 21.9508 108.072 22.2484 108.072Z" fill="#FFBD87"/>
<path d="M22.2351 108.481C22.8302 108.481 22.8657 107.246 22.8213 106.54C22.7769 105.834 22.1108 105.83 21.8798 105.99C21.5201 106.234 21.6045 106.571 21.6489 107.278C21.6933 107.979 21.9553 108.481 22.2351 108.481Z" fill="#FF0000"/>
<path d="M22.3463 108.324C22.3107 108.324 22.4973 107.844 22.5328 107.245C22.5683 106.645 22.4395 106.152 22.4751 106.152C22.5106 106.157 22.777 106.268 22.6705 107.254C22.5994 107.853 22.3818 108.328 22.3463 108.324Z" fill="white"/>
<path d="M29.789 96.1443C29.6602 96.3752 29.6335 96.6861 29.6069 96.9436C29.5891 97.1301 29.6202 97.4454 29.5047 97.5964C29.0118 97.5032 28.9852 96.7838 28.9896 96.3974C28.9896 96.2686 28.9674 95.9889 29.0784 95.9C29.225 95.7846 29.4825 95.9489 29.6202 96.0066L29.789 96.1443Z" fill="#FFCFA8"/>
<path d="M32.4489 96.4629C32.3556 96.6406 32.3379 96.8759 32.3245 97.0758C32.3112 97.2179 32.3423 97.4577 32.2579 97.5776C31.8805 97.5154 31.8494 96.9692 31.8449 96.6717C31.8449 96.574 31.8227 96.3608 31.9071 96.2898C32.0181 96.2009 32.218 96.3208 32.3245 96.3652L32.4489 96.4629Z" fill="#FFCFA8"/>
<path d="M26.8269 96.046C26.7203 96.348 26.6404 96.6366 26.6137 96.9519C26.5915 97.2184 26.5693 97.4848 26.4583 97.7291C26.0409 97.6314 25.9165 96.7432 25.9387 96.3924C25.9476 96.2636 25.9521 95.7929 26.0586 95.7263C26.183 95.6464 26.596 95.8728 26.6981 95.9572L26.8269 96.046Z" fill="#FFCFA8"/>
<path d="M24.2203 95.7835C24.1581 96.2542 24.1093 96.8448 24.1936 97.3067C23.6918 97.1601 23.4609 96.7027 23.4165 96.2098C23.4032 96.0854 23.3632 95.7746 23.4076 95.6769C23.5142 95.446 23.9583 95.5525 24.1226 95.6502L24.2203 95.7835Z" fill="#FFCFA8"/>
<path d="M41.4106 75.663C41.4417 73.1806 41.2729 70.8536 39.3368 69.0684C38.1999 68.0248 35.4422 66.8569 33.9412 67.7229C33.9412 67.7229 38.9548 68.5444 41.4106 75.663Z" fill="#F7AC6E"/>
<path d="M43.3512 75.7293C42.7961 74.0996 42.7739 71.6394 44.226 69.8763C45.0787 68.8416 47.4412 67.2385 49.0399 67.3584C49.0399 67.3584 43.2002 69.1125 43.3512 75.7293Z" fill="#F7AC6E"/>
<path d="M30.8014 7.52734C30.8014 7.52734 29.4692 7.76271 28.4744 8.91732C26.5471 11.151 26.7558 14.566 27.08 14.9568C26.7158 13.1938 29.8999 8.04692 30.8014 7.52734Z" fill="#333E45"/>
<path d="M31.4053 7.6349C28.9362 6.99987 26.7424 12.7108 27.0844 14.9622C27.2709 16.179 28.652 18.697 31.614 19.0878C29.2204 16.5787 28.2301 12.3555 30.0864 9.26912C30.4416 8.67405 30.8502 8.06566 31.4053 7.6349Z" fill="#556773"/>
<path d="M42.1567 7.66011C44.6392 7.36257 46.9573 9.50304 48.0097 11.7723C48.5782 12.998 48.9912 14.4945 49.0222 15.849C49.04 16.5995 49.0356 17.5898 48.7558 18.2781C49.2221 14.53 47.5301 10.0581 44.1951 8.35731C43.5556 8.02869 42.8584 7.71784 42.1567 7.66011Z" fill="#333E45"/>
<path d="M40.66 8.71274C42.4053 11.3239 41.9212 15.0675 41.5659 15.4717C42.0722 13.5577 41.4194 11.2218 40.4957 9.56093C39.9539 8.58839 39.3056 7.63806 38.4485 6.99414C38.4529 6.99858 39.7585 7.36717 40.66 8.71274Z" fill="#333E45"/>
<path d="M54.7375 10.9103C54.964 11.683 55.1328 12.5046 55.306 13.295C55.7589 15.3689 55.8788 17.5582 55.6435 19.6632C55.3903 21.8969 53.2943 30.0236 53.2898 31.9598C53.2854 33.1721 53.7694 34.833 54.8796 35.5169C53.9782 34.2601 53.543 32.8169 53.8405 31.2803C54.2935 28.9445 54.7064 27.0527 55.337 24.7701C57.7795 15.9151 54.7597 9.96887 54.1869 9.06738L54.7375 10.9103Z" fill="#333E45"/>
<path d="M39.35 0.203613C38.2398 0.225817 36.8187 0.430095 36.1082 0.629932C31.6096 2.25971 31.0101 5.31499 30.9746 6.96697L31.0101 7.0025C31.0146 6.98474 33.5148 6.62947 33.6213 6.55842C33.6702 6.52289 33.8212 2.01102 39.35 0.203613Z" fill="#4B5C66"/>
<path d="M38.4797 0.919165C38.8838 0.643835 39.47 0.213076 39.9851 0.195312C38.4797 0.919165 36.0639 3.06852 37.0142 6.42133C36.8011 6.4391 35.2645 6.59453 35.1668 6.51015C35.1624 6.51015 34.8427 3.37494 38.4797 0.919165Z" fill="#333E45"/>
<path d="M49.0309 3.76516C49.7636 4.91977 49.9235 6.67389 49.8303 8.00613C49.7681 8.88098 49.4528 9.92901 48.8533 10.5951C49.9857 9.6892 50.3187 8.11716 50.2255 6.72274C50.1855 6.11879 50.0834 5.51484 49.8169 4.96418C49.7148 4.75102 49.6082 4.54674 49.4661 4.33358C49.3373 4.14707 49.2263 3.82289 49.0353 3.71631V3.76516H49.0309Z" fill="#333E45"/>
</g>
<defs>
<radialGradient id="paint0_radial_896_22137" cx="0" cy="0" r="1" gradientUnits="userSpaceOnUse" gradientTransform="translate(30.4101 25.3373) rotate(169.725) scale(1.08284 1.17385)">
<stop offset="0.2475" stop-color="#69CDFF"/>
<stop offset="0.9274" stop-color="#136D96"/>
</radialGradient>
<linearGradient id="paint1_linear_896_22137" x1="30.3846" y1="26.5059" x2="30.3846" y2="24.2494" gradientUnits="userSpaceOnUse">
<stop offset="0.1386" stop-color="#136D96"/>
<stop offset="1" stop-color="#1E4354"/>
</linearGradient>
<radialGradient id="paint2_radial_896_22137" cx="0" cy="0" r="1" gradientUnits="userSpaceOnUse" gradientTransform="translate(40.313 24.0619) rotate(163.578) scale(1.26158 1.26738)">
<stop offset="0.2475" stop-color="#69CDFF"/>
<stop offset="0.9274" stop-color="#136D96"/>
</radialGradient>
<linearGradient id="paint3_linear_896_22137" x1="40.2353" y1="25.3006" x2="40.2353" y2="22.9926" gradientUnits="userSpaceOnUse">
<stop offset="0.1386" stop-color="#136D96"/>
<stop offset="1" stop-color="#1E4354"/>
</linearGradient>
<clipPath id="clip0_896_22137">
<rect width="87.3775" height="111.273" fill="white"/>
</clipPath>
</defs>
</svg>
