<svg width="38" height="38" viewBox="0 0 38 38" fill="none" xmlns="http://www.w3.org/2000/svg">
<g clip-path="url(#clip0_40_27)">
<path d="M38.0509 19C38.057 20.3449 37.9149 21.6863 37.6271 23C37.1615 25.2044 36.3001 27.3062 35.0848 29.2034C33.6076 31.5311 31.6411 33.5092 29.3221 35C26.2576 36.966 22.6917 38.0075 19.0509 38C17.6841 37.9967 16.3212 37.8548 14.9831 37.5763C10.0905 36.4852 5.82655 33.5066 3.11866 29.2882C1.89782 27.4207 1.02499 25.3478 0.542386 23.1695C0.242366 21.7998 0.0889786 20.4021 0.0847778 19C0.0870394 17.6724 0.229065 16.3487 0.508507 15.0509C0.964307 12.8675 1.80819 10.7836 3.00003 8.89831C4.46187 6.58101 6.40385 4.60433 8.69492 3.10171C10.5644 1.87735 12.636 0.993651 14.8136 0.491536C16.2136 0.163535 17.6468 -0.00140461 19.0848 9.00963e-06C20.3889 0.00506996 21.6893 0.141353 22.9661 0.406792C25.1393 0.887989 27.2105 1.74862 29.0848 2.94916C31.8221 4.64836 34.0787 7.02033 35.6393 9.83898C37.2 12.6576 38.0127 15.829 38 19.0509L38.0509 19Z" fill="#184E9F"/>
<path d="M29.8475 19C29.8475 21.1454 29.2113 23.2427 28.0193 25.0265C26.8274 26.8104 25.1332 28.2007 23.1511 29.0217C21.169 29.8427 18.988 30.0576 16.8838 29.639C14.7796 29.2205 12.8467 28.1873 11.3297 26.6703C9.81263 25.1533 8.77951 23.2204 8.36096 21.1162C7.94241 19.012 8.15723 16.831 8.97825 14.8488C9.79926 12.8667 11.1896 11.1726 12.9735 9.98065C14.7573 8.78872 16.8546 8.15253 19 8.15253C21.8769 8.15253 24.636 9.29538 26.6703 11.3297C28.7046 13.364 29.8475 16.1231 29.8475 19Z" fill="#F1F2F2"/>
<path d="M22.8814 0.40677L21.8136 5.49152C20.8891 5.29249 19.9456 5.19587 19 5.20338C17.9445 5.19958 16.8922 5.31903 15.8644 5.55931L14.7288 0.474568C16.1288 0.146567 17.5621 -0.0183724 19 -0.0169588C20.3047 -0.00632318 21.6051 0.135635 22.8814 0.40677Z" fill="#F1F2F2"/>
<path d="M23.1017 37.5593C21.7542 37.8527 20.379 38.0004 19 38C17.6332 37.9967 16.2703 37.8547 14.9322 37.5763L16.0169 32.4915C16.9961 32.7101 17.9967 32.8182 19 32.8136C19.9977 32.8191 20.9928 32.711 21.9661 32.4915L23.1017 37.5593Z" fill="#F1F2F2"/>
<path d="M38.0508 19C38.057 20.3448 37.9149 21.6863 37.6271 23L32.5424 21.9322C32.9712 19.9552 32.9712 17.9092 32.5424 15.9322L37.6271 14.7966C37.9231 16.1778 38.0652 17.5875 38.0508 19Z" fill="#F1F2F2"/>
<path d="M5.47457 22.0339L0.389824 23.1695C0.0898042 21.7998 -0.0636093 20.4021 -0.0678101 19C-0.0655485 17.6724 0.0764772 16.3487 0.355919 15.0508L5.44066 16.1186C5.24441 17.0667 5.14223 18.0318 5.13559 19C5.13402 20.0208 5.24773 21.0386 5.47457 22.0339Z" fill="#F1F2F2"/>
<path d="M11.4068 7.42372C9.73179 8.5113 8.31458 9.95166 7.25426 11.6441L2.91528 8.89829C4.37712 6.58099 6.31913 4.6043 8.6102 3.10168L11.4068 7.42372Z" fill="#F1F2F2"/>
<path d="M35.0339 29.2034C33.5567 31.5311 31.5902 33.5092 29.2712 35L26.4745 30.678C28.17 29.593 29.6099 28.1531 30.6949 26.4576L35.0339 29.2034Z" fill="#F1F2F2"/>
<path d="M34.9322 8.62712L30.6102 11.4237C29.5005 9.74026 28.0444 8.31299 26.339 7.23729L29.0848 2.94916C31.4171 4.40243 33.411 6.33854 34.9322 8.62712Z" fill="#F1F2F2"/>
<path d="M11.5424 30.678L8.7966 35.0339C6.47987 33.5616 4.51303 31.6005 3.03387 29.2881L7.33897 26.4915C8.4191 28.176 9.85354 29.6046 11.5424 30.678Z" fill="#F1F2F2"/>
<path d="M12.0394 22.0895C11.5302 22.0895 11.0753 22.0085 10.6747 21.8466C10.2763 21.6825 9.96307 21.4609 9.73509 21.1818C9.50923 20.9006 9.39631 20.5831 9.39631 20.2294C9.39631 19.9588 9.46129 19.7106 9.59126 19.4847C9.72124 19.2589 9.89702 19.0714 10.1186 18.9222C10.3423 18.771 10.5916 18.674 10.8665 18.6314V18.5803C10.5064 18.5142 10.2113 18.3469 9.98118 18.0785C9.7532 17.81 9.6392 17.4957 9.6392 17.1357C9.6392 16.7947 9.74254 16.4911 9.94922 16.2248C10.158 15.9585 10.4425 15.7486 10.8026 15.5952C11.1648 15.4418 11.5771 15.3651 12.0394 15.3651C12.5018 15.3651 12.913 15.4418 13.2731 15.5952C13.6353 15.7486 13.9197 15.9585 14.1264 16.2248C14.3352 16.4911 14.4396 16.7947 14.4396 17.1357C14.4396 17.4979 14.3235 17.8132 14.0913 18.0817C13.8612 18.348 13.5682 18.5142 13.2124 18.5803V18.6314C13.4851 18.674 13.7322 18.771 13.9538 18.9222C14.1776 19.0714 14.3544 19.2589 14.4844 19.4847C14.6165 19.7106 14.6825 19.9588 14.6825 20.2294C14.6825 20.5831 14.5685 20.9006 14.3406 21.1818C14.1126 21.4609 13.7994 21.6825 13.4009 21.8466C13.0046 22.0085 12.5508 22.0895 12.0394 22.0895ZM12.0394 20.9677C12.2333 20.9677 12.4038 20.9315 12.5508 20.859C12.6978 20.7844 12.8129 20.6811 12.896 20.549C12.9812 20.4169 13.0238 20.2678 13.0238 20.1016C13.0238 19.9311 12.9812 19.7798 12.896 19.6477C12.8107 19.5156 12.6935 19.4123 12.5444 19.3377C12.3974 19.261 12.229 19.2227 12.0394 19.2227C11.8519 19.2227 11.6836 19.261 11.5344 19.3377C11.3853 19.4123 11.2681 19.5156 11.1829 19.6477C11.0977 19.7798 11.055 19.9311 11.055 20.1016C11.055 20.2678 11.0966 20.4169 11.1797 20.549C11.2649 20.679 11.381 20.7812 11.5281 20.8558C11.6772 20.9304 11.8477 20.9677 12.0394 20.9677ZM12.0394 18.1072C12.2056 18.1072 12.3526 18.0732 12.4805 18.005C12.6104 17.9368 12.7116 17.842 12.7841 17.7205C12.8587 17.5991 12.896 17.4616 12.896 17.3082C12.896 17.1548 12.8587 17.0195 12.7841 16.9023C12.7116 16.7852 12.6115 16.6935 12.4837 16.6275C12.3558 16.5593 12.2077 16.5252 12.0394 16.5252C11.8732 16.5252 11.7251 16.5593 11.5952 16.6275C11.4652 16.6935 11.364 16.7852 11.2915 16.9023C11.2191 17.0195 11.1829 17.1548 11.1829 17.3082C11.1829 17.4616 11.2191 17.5991 11.2915 17.7205C11.3661 17.8398 11.4684 17.9347 11.5984 18.005C11.7283 18.0732 11.8754 18.1072 12.0394 18.1072ZM17.511 22V15.4545H20.2404C20.7305 15.4545 21.1406 15.5238 21.4709 15.6623C21.8033 15.8008 22.0526 15.9947 22.2188 16.244C22.3871 16.4933 22.4712 16.782 22.4712 17.1101C22.4712 17.3594 22.419 17.582 22.3146 17.7781C22.2102 17.9719 22.0664 18.1328 21.8832 18.2607C21.6999 18.3885 21.4879 18.478 21.2472 18.5291V18.593C21.5114 18.6058 21.7553 18.6772 21.979 18.8072C22.2049 18.9371 22.386 19.1183 22.5224 19.3505C22.6587 19.5806 22.7269 19.8533 22.7269 20.1687C22.7269 20.5202 22.6374 20.8345 22.4585 21.1115C22.2795 21.3864 22.0206 21.6037 21.6818 21.7635C21.343 21.9212 20.9318 22 20.4482 22H17.511ZM19.093 20.7248H20.071C20.4141 20.7248 20.6665 20.6598 20.8285 20.5298C20.9925 20.3999 21.0746 20.2188 21.0746 19.9865C21.0746 19.8182 21.0352 19.6733 20.9563 19.5518C20.8775 19.4283 20.7656 19.3335 20.6207 19.2674C20.4759 19.1992 20.3022 19.1651 20.0998 19.1651H19.093V20.7248ZM19.093 18.1456H19.9688C20.1413 18.1456 20.2947 18.1168 20.429 18.0593C20.5632 18.0018 20.6676 17.9187 20.7422 17.81C20.8189 17.7013 20.8572 17.5703 20.8572 17.4169C20.8572 17.1974 20.7795 17.0249 20.6239 16.8991C20.4684 16.7734 20.2585 16.7106 19.9943 16.7106H19.093V18.1456ZM23.4876 22V15.4545H26.217C26.707 15.4545 27.1172 15.5238 27.4474 15.6623C27.7798 15.8008 28.0291 15.9947 28.1953 16.244C28.3636 16.4933 28.4478 16.782 28.4478 17.1101C28.4478 17.3594 28.3956 17.582 28.2912 17.7781C28.1868 17.9719 28.043 18.1328 27.8597 18.2607C27.6765 18.3885 27.4645 18.478 27.2237 18.5291V18.593C27.4879 18.6058 27.7319 18.6772 27.9556 18.8072C28.1815 18.9371 28.3626 19.1183 28.4989 19.3505C28.6353 19.5806 28.7035 19.8533 28.7035 20.1687C28.7035 20.5202 28.614 20.8345 28.435 21.1115C28.256 21.3864 27.9972 21.6037 27.6584 21.7635C27.3196 21.9212 26.9084 22 26.4247 22H23.4876ZM25.0696 20.7248H26.0476C26.3906 20.7248 26.6431 20.6598 26.805 20.5298C26.9691 20.3999 27.0511 20.2188 27.0511 19.9865C27.0511 19.8182 27.0117 19.6733 26.9329 19.5518C26.854 19.4283 26.7422 19.3335 26.5973 19.2674C26.4524 19.1992 26.2788 19.1651 26.0763 19.1651H25.0696V20.7248ZM25.0696 18.1456H25.9453C26.1179 18.1456 26.2713 18.1168 26.4055 18.0593C26.5398 18.0018 26.6442 17.9187 26.7188 17.81C26.7955 17.7013 26.8338 17.5703 26.8338 17.4169C26.8338 17.1974 26.756 17.0249 26.6005 16.8991C26.445 16.7734 26.2351 16.7106 25.9709 16.7106H25.0696V18.1456Z" fill="#2D2D2D"/>
</g>
<defs>
<clipPath id="clip0_40_27">
<rect width="38" height="38" fill="white"/>
</clipPath>
</defs>
</svg>
