<svg width="38" height="38" viewBox="0 0 38 38" fill="none" xmlns="http://www.w3.org/2000/svg">
<g clip-path="url(#clip0_40_3)">
<path d="M38.0509 19C38.057 20.3449 37.9149 21.6863 37.6271 23C37.1615 25.2044 36.3001 27.3062 35.0848 29.2034C33.6076 31.5311 31.6411 33.5092 29.3221 35C26.2576 36.966 22.6917 38.0075 19.0509 38C17.6841 37.9967 16.3212 37.8548 14.9831 37.5763C10.0905 36.4852 5.82655 33.5066 3.11866 29.2882C1.89782 27.4207 1.02499 25.3478 0.542386 23.1695C0.242366 21.7998 0.0889786 20.4021 0.0847778 19C0.0870394 17.6724 0.229065 16.3487 0.508507 15.0509C0.964307 12.8675 1.80819 10.7836 3.00003 8.89831C4.46187 6.58101 6.40385 4.60433 8.69492 3.10171C10.5644 1.87735 12.636 0.993651 14.8136 0.491536C16.2136 0.163535 17.6468 -0.00140461 19.0848 9.00963e-06C20.3889 0.00506996 21.6893 0.141353 22.9661 0.406792C25.1393 0.887989 27.2105 1.74862 29.0848 2.94916C31.8221 4.64836 34.0787 7.02033 35.6393 9.83898C37.2 12.6576 38.0127 15.829 38 19.0509L38.0509 19Z" fill="#FF0000"/>
<path d="M29.8475 19C29.8475 21.1454 29.2113 23.2427 28.0193 25.0265C26.8274 26.8104 25.1332 28.2007 23.1511 29.0217C21.169 29.8427 18.988 30.0576 16.8838 29.639C14.7796 29.2205 12.8467 28.1873 11.3297 26.6703C9.81263 25.1533 8.77951 23.2204 8.36096 21.1162C7.94241 19.012 8.15723 16.831 8.97825 14.8488C9.79926 12.8667 11.1896 11.1726 12.9735 9.98065C14.7573 8.78872 16.8546 8.15253 19 8.15253C21.8769 8.15253 24.636 9.29538 26.6703 11.3297C28.7046 13.364 29.8475 16.1231 29.8475 19Z" fill="#F1F2F2"/>
<path d="M22.8814 0.40677L21.8136 5.49152C20.8891 5.29249 19.9456 5.19587 19 5.20338C17.9445 5.19958 16.8922 5.31903 15.8644 5.55931L14.7288 0.474568C16.1288 0.146567 17.5621 -0.0183724 19 -0.0169588C20.3047 -0.00632318 21.6051 0.135635 22.8814 0.40677Z" fill="#F1F2F2"/>
<path d="M23.1017 37.5593C21.7542 37.8527 20.379 38.0004 19 38C17.6332 37.9967 16.2703 37.8547 14.9322 37.5763L16.0169 32.4915C16.9961 32.7101 17.9967 32.8182 19 32.8136C19.9977 32.8191 20.9928 32.711 21.9661 32.4915L23.1017 37.5593Z" fill="#F1F2F2"/>
<path d="M38.0508 19C38.057 20.3448 37.9149 21.6863 37.6271 23L32.5424 21.9322C32.9712 19.9552 32.9712 17.9092 32.5424 15.9322L37.6271 14.7966C37.9231 16.1778 38.0652 17.5875 38.0508 19Z" fill="#F1F2F2"/>
<path d="M5.47457 22.0339L0.389824 23.1695C0.0898042 21.7998 -0.0636093 20.4021 -0.0678101 19C-0.0655485 17.6724 0.0764772 16.3487 0.355919 15.0508L5.44066 16.1186C5.24441 17.0667 5.14223 18.0318 5.13559 19C5.13402 20.0208 5.24773 21.0386 5.47457 22.0339Z" fill="#F1F2F2"/>
<path d="M11.4068 7.42372C9.73179 8.5113 8.31458 9.95166 7.25426 11.6441L2.91528 8.89829C4.37712 6.58099 6.31913 4.6043 8.6102 3.10168L11.4068 7.42372Z" fill="#F1F2F2"/>
<path d="M35.0339 29.2034C33.5567 31.5311 31.5902 33.5092 29.2712 35L26.4745 30.678C28.17 29.593 29.6099 28.1531 30.6949 26.4576L35.0339 29.2034Z" fill="#F1F2F2"/>
<path d="M34.9322 8.62712L30.6102 11.4237C29.5005 9.74026 28.0444 8.31299 26.339 7.23729L29.0848 2.94916C31.4171 4.40243 33.411 6.33854 34.9322 8.62712Z" fill="#F1F2F2"/>
<path d="M11.5424 30.678L8.7966 35.0339C6.47987 33.5616 4.51303 31.6005 3.03387 29.2881L7.33897 26.4915C8.4191 28.176 9.85354 29.6046 11.5424 30.678Z" fill="#F1F2F2"/>
<path d="M13.5092 15.4545V22H11.9304V16.9311H11.892L10.4283 17.826V16.4581L12.0423 15.4545H13.5092ZM16.9026 22V15.4545H19.632C20.1221 15.4545 20.5322 15.5238 20.8625 15.6623C21.1949 15.8008 21.4442 15.9947 21.6104 16.244C21.7787 16.4933 21.8628 16.782 21.8628 17.1101C21.8628 17.3594 21.8106 17.582 21.7062 17.7781C21.6018 17.9719 21.458 18.1328 21.2748 18.2607C21.0915 18.3885 20.8795 18.478 20.6388 18.5291V18.593C20.903 18.6058 21.1469 18.6772 21.3707 18.8072C21.5965 18.9371 21.7776 19.1183 21.914 19.3505C22.0503 19.5806 22.1185 19.8533 22.1185 20.1687C22.1185 20.5202 22.029 20.8345 21.8501 21.1115C21.6711 21.3864 21.4122 21.6037 21.0734 21.7635C20.7346 21.9212 20.3234 22 19.8398 22H16.9026ZM18.4846 20.7248H19.4626C19.8057 20.7248 20.0581 20.6598 20.2201 20.5298C20.3841 20.3999 20.4662 20.2188 20.4662 19.9865C20.4662 19.8182 20.4268 19.6733 20.3479 19.5518C20.2691 19.4283 20.1572 19.3335 20.0123 19.2674C19.8675 19.1992 19.6938 19.1651 19.4914 19.1651H18.4846V20.7248ZM18.4846 18.1456H19.3604C19.5329 18.1456 19.6863 18.1168 19.8206 18.0593C19.9548 18.0018 20.0592 17.9187 20.1338 17.81C20.2105 17.7013 20.2488 17.5703 20.2488 17.4169C20.2488 17.1974 20.1711 17.0249 20.0155 16.8991C19.86 16.7734 19.6501 16.7106 19.3859 16.7106H18.4846V18.1456ZM22.8792 22V15.4545H25.6086C26.0986 15.4545 26.5088 15.5238 26.839 15.6623C27.1714 15.8008 27.4207 15.9947 27.5869 16.244C27.7552 16.4933 27.8394 16.782 27.8394 17.1101C27.8394 17.3594 27.7872 17.582 27.6828 17.7781C27.5784 17.9719 27.4346 18.1328 27.2513 18.2607C27.0681 18.3885 26.8561 18.478 26.6153 18.5291V18.593C26.8795 18.6058 27.1235 18.6772 27.3472 18.8072C27.5731 18.9371 27.7542 19.1183 27.8905 19.3505C28.0269 19.5806 28.0951 19.8533 28.0951 20.1687C28.0951 20.5202 28.0056 20.8345 27.8266 21.1115C27.6476 21.3864 27.3888 21.6037 27.05 21.7635C26.7112 21.9212 26.3 22 25.8163 22H22.8792ZM24.4612 20.7248H25.4392C25.7822 20.7248 26.0347 20.6598 26.1966 20.5298C26.3607 20.3999 26.4427 20.2188 26.4427 19.9865C26.4427 19.8182 26.4033 19.6733 26.3245 19.5518C26.2457 19.4283 26.1338 19.3335 25.9889 19.2674C25.844 19.1992 25.6704 19.1651 25.468 19.1651H24.4612V20.7248ZM24.4612 18.1456H25.3369C25.5095 18.1456 25.6629 18.1168 25.7971 18.0593C25.9314 18.0018 26.0358 17.9187 26.1104 17.81C26.1871 17.7013 26.2254 17.5703 26.2254 17.4169C26.2254 17.1974 26.1476 17.0249 25.9921 16.8991C25.8366 16.7734 25.6267 16.7106 25.3625 16.7106H24.4612V18.1456Z" fill="#2D2D2D"/>
</g>
<defs>
<clipPath id="clip0_40_3">
<rect width="38" height="38" fill="white"/>
</clipPath>
</defs>
</svg>
