<svg width="38" height="38" viewBox="0 0 38 38" fill="none" xmlns="http://www.w3.org/2000/svg">
<g clip-path="url(#clip0_40_39)">
<path d="M38.0509 19C38.057 20.3449 37.9149 21.6863 37.6271 23C37.1615 25.2044 36.3001 27.3062 35.0848 29.2034C33.6076 31.5311 31.6411 33.5092 29.3221 35C26.2576 36.966 22.6917 38.0075 19.0509 38C17.6841 37.9967 16.3212 37.8548 14.9831 37.5763C10.0905 36.4852 5.82655 33.5066 3.11866 29.2882C1.89782 27.4207 1.02499 25.3478 0.542386 23.1695C0.242366 21.7998 0.0889786 20.4021 0.0847778 19C0.0870394 17.6724 0.229065 16.3487 0.508507 15.0509C0.964307 12.8675 1.80819 10.7836 3.00003 8.89831C4.46187 6.58101 6.40385 4.60433 8.69492 3.10171C10.5644 1.87735 12.636 0.993651 14.8136 0.491536C16.2136 0.163535 17.6468 -0.00140461 19.0848 9.00963e-06C20.3889 0.00506996 21.6893 0.141353 22.9661 0.406792C25.1393 0.887989 27.2105 1.74862 29.0848 2.94916C31.8221 4.64836 34.0787 7.02033 35.6393 9.83898C37.2 12.6576 38.0127 15.829 38 19.0509L38.0509 19Z" fill="#FFB800"/>
<path d="M29.8475 19C29.8475 21.1454 29.2113 23.2427 28.0193 25.0265C26.8274 26.8104 25.1332 28.2007 23.1511 29.0217C21.169 29.8427 18.988 30.0576 16.8838 29.639C14.7796 29.2205 12.8467 28.1873 11.3297 26.6703C9.81263 25.1533 8.77951 23.2204 8.36096 21.1162C7.94241 19.012 8.15723 16.831 8.97825 14.8488C9.79926 12.8667 11.1896 11.1726 12.9735 9.98065C14.7573 8.78872 16.8546 8.15253 19 8.15253C21.8769 8.15253 24.636 9.29538 26.6703 11.3297C28.7046 13.364 29.8475 16.1231 29.8475 19Z" fill="#F1F2F2"/>
<path d="M22.8814 0.40677L21.8136 5.49152C20.8891 5.29249 19.9456 5.19587 19 5.20338C17.9445 5.19958 16.8922 5.31903 15.8644 5.55931L14.7288 0.474568C16.1288 0.146567 17.5621 -0.0183724 19 -0.0169588C20.3047 -0.00632318 21.6051 0.135635 22.8814 0.40677Z" fill="#F1F2F2"/>
<path d="M23.1017 37.5593C21.7542 37.8527 20.379 38.0004 19 38C17.6332 37.9967 16.2703 37.8547 14.9322 37.5763L16.0169 32.4915C16.9961 32.7101 17.9967 32.8182 19 32.8136C19.9977 32.8191 20.9928 32.711 21.9661 32.4915L23.1017 37.5593Z" fill="#F1F2F2"/>
<path d="M38.0508 19C38.057 20.3448 37.9149 21.6863 37.6271 23L32.5424 21.9322C32.9712 19.9552 32.9712 17.9092 32.5424 15.9322L37.6271 14.7966C37.9231 16.1778 38.0652 17.5875 38.0508 19Z" fill="#F1F2F2"/>
<path d="M5.47457 22.0339L0.389824 23.1695C0.0898042 21.7998 -0.0636093 20.4021 -0.0678101 19C-0.0655485 17.6724 0.0764772 16.3487 0.355919 15.0508L5.44066 16.1186C5.24441 17.0667 5.14223 18.0318 5.13559 19C5.13402 20.0208 5.24773 21.0386 5.47457 22.0339Z" fill="#F1F2F2"/>
<path d="M11.4068 7.42372C9.73179 8.5113 8.31458 9.95166 7.25426 11.6441L2.91528 8.89829C4.37712 6.58099 6.31913 4.6043 8.6102 3.10168L11.4068 7.42372Z" fill="#F1F2F2"/>
<path d="M35.0339 29.2034C33.5567 31.5311 31.5902 33.5092 29.2712 35L26.4745 30.678C28.17 29.593 29.6099 28.1531 30.6949 26.4576L35.0339 29.2034Z" fill="#F1F2F2"/>
<path d="M34.9322 8.62712L30.6102 11.4237C29.5005 9.74026 28.0444 8.31299 26.339 7.23729L29.0848 2.94916C31.4171 4.40243 33.411 6.33854 34.9322 8.62712Z" fill="#F1F2F2"/>
<path d="M11.5424 30.678L8.7966 35.0339C6.47987 33.5616 4.51303 31.6005 3.03387 29.2881L7.33897 26.4915C8.4191 28.176 9.85354 29.6046 11.5424 30.678Z" fill="#F1F2F2"/>
<path d="M9.4027 20.9134V19.6797L12.0842 15.4545H13.1804V17.1293H12.5444L10.9751 19.6158V19.6669H14.8583V20.9134H9.4027ZM12.5636 22V20.5362L12.5955 19.9961V15.4545H14.0753V22H12.5636ZM17.6341 22V15.4545H20.3635C20.8535 15.4545 21.2637 15.5238 21.5939 15.6623C21.9263 15.8008 22.1756 15.9947 22.3418 16.244C22.5101 16.4933 22.5943 16.782 22.5943 17.1101C22.5943 17.3594 22.5421 17.582 22.4377 17.7781C22.3333 17.9719 22.1895 18.1328 22.0062 18.2607C21.823 18.3885 21.611 18.478 21.3702 18.5291V18.593C21.6344 18.6058 21.8784 18.6772 22.1021 18.8072C22.3279 18.9371 22.5091 19.1183 22.6454 19.3505C22.7818 19.5806 22.85 19.8533 22.85 20.1687C22.85 20.5202 22.7605 20.8345 22.5815 21.1115C22.4025 21.3864 22.1436 21.6037 21.8049 21.7635C21.4661 21.9212 21.0549 22 20.5712 22H17.6341ZM19.2161 20.7248H20.1941C20.5371 20.7248 20.7896 20.6598 20.9515 20.5298C21.1156 20.3999 21.1976 20.2188 21.1976 19.9865C21.1976 19.8182 21.1582 19.6733 21.0794 19.5518C21.0005 19.4283 20.8887 19.3335 20.7438 19.2674C20.5989 19.1992 20.4252 19.1651 20.2228 19.1651H19.2161V20.7248ZM19.2161 18.1456H20.0918C20.2644 18.1456 20.4178 18.1168 20.552 18.0593C20.6863 18.0018 20.7907 17.9187 20.8652 17.81C20.9419 17.7013 20.9803 17.5703 20.9803 17.4169C20.9803 17.1974 20.9025 17.0249 20.747 16.8991C20.5914 16.7734 20.3816 16.7106 20.1174 16.7106H19.2161V18.1456ZM23.6106 22V15.4545H26.34C26.8301 15.4545 27.2402 15.5238 27.5705 15.6623C27.9029 15.8008 28.1522 15.9947 28.3184 16.244C28.4867 16.4933 28.5708 16.782 28.5708 17.1101C28.5708 17.3594 28.5186 17.582 28.4142 17.7781C28.3098 17.9719 28.166 18.1328 27.9828 18.2607C27.7995 18.3885 27.5875 18.478 27.3468 18.5291V18.593C27.611 18.6058 27.8549 18.6772 28.0787 18.8072C28.3045 18.9371 28.4856 19.1183 28.622 19.3505C28.7583 19.5806 28.8265 19.8533 28.8265 20.1687C28.8265 20.5202 28.737 20.8345 28.5581 21.1115C28.3791 21.3864 28.1202 21.6037 27.7814 21.7635C27.4426 21.9212 27.0314 22 26.5478 22H23.6106ZM25.1926 20.7248H26.1706C26.5137 20.7248 26.7662 20.6598 26.9281 20.5298C27.0922 20.3999 27.1742 20.2188 27.1742 19.9865C27.1742 19.8182 27.1348 19.6733 27.0559 19.5518C26.9771 19.4283 26.8652 19.3335 26.7203 19.2674C26.5755 19.1992 26.4018 19.1651 26.1994 19.1651H25.1926V20.7248ZM25.1926 18.1456H26.0684C26.2409 18.1456 26.3944 18.1168 26.5286 18.0593C26.6628 18.0018 26.7672 17.9187 26.8418 17.81C26.9185 17.7013 26.9569 17.5703 26.9569 17.4169C26.9569 17.1974 26.8791 17.0249 26.7235 16.8991C26.568 16.7734 26.3581 16.7106 26.0939 16.7106H25.1926V18.1456Z" fill="#2D2D2D"/>
</g>
<defs>
<clipPath id="clip0_40_39">
<rect width="38" height="38" fill="white"/>
</clipPath>
</defs>
</svg>
