<svg width="38" height="59" viewBox="0 0 38 59" fill="none" xmlns="http://www.w3.org/2000/svg">
<path d="M36.6367 3.36084H1.25477C1.08988 3.36045 0.926537 3.39253 0.774124 3.45525C0.62171 3.51797 0.483229 3.61008 0.366635 3.7263C0.25004 3.84252 0.157629 3.98056 0.0947109 4.13248C0.031793 4.28441 -0.000391354 4.44723 3.59122e-06 4.61159V55.0414C3.59122e-06 55.3732 0.1322 55.6913 0.367514 55.9258C0.602828 56.1604 0.921982 56.2922 1.25477 56.2922H36.6367C36.9693 56.2914 37.2879 56.1594 37.5231 55.925C37.7582 55.6906 37.8907 55.3729 37.8915 55.0414V4.61159C37.8915 4.27987 37.7593 3.96174 37.524 3.72718C37.2887 3.49262 36.9695 3.36084 36.6367 3.36084Z" fill="white"/>
<path d="M9.21611 8.2737C9.02057 8.25845 8.82399 8.28212 8.63779 8.34333C8.4516 8.40453 8.2795 8.50205 8.13153 8.63021C7.98355 8.75837 7.86264 8.91462 7.77584 9.08986C7.68904 9.26509 7.63807 9.45583 7.6259 9.65096C7.5964 9.25814 7.41236 8.8927 7.1139 8.6343C6.81544 8.3759 6.42675 8.24549 6.03254 8.27148C4.39135 8.30306 4.17211 10.1457 4.74556 11.0845C5.14066 11.748 5.62321 12.3558 6.18029 12.8916C6.69489 13.3778 7.17142 13.9025 7.60568 14.4612C7.60568 14.4612 7.61907 14.5088 7.62446 14.4945C7.62984 14.4803 7.63029 14.4592 7.63029 14.4592C8.06451 13.897 8.54135 13.3688 9.05665 12.8794C9.61907 12.3428 10.105 11.7319 10.5007 11.0635C11.0763 10.1511 10.8579 8.31181 9.21611 8.2737Z" fill="#AF0F07"/>
<path d="M12.787 48.8V44.64C13.6403 44.64 14.347 44.5867 14.907 44.48C15.467 44.3733 15.8936 44.1867 16.187 43.92C16.507 43.6267 16.7336 43.2133 16.867 42.68C17.0003 42.12 17.067 41.4133 17.067 40.56V15.6H22.947V40.8C22.947 42.6133 22.7336 44.12 22.307 45.32C21.8803 46.4933 21.1336 47.3733 20.067 47.96C19.027 48.52 17.547 48.8 15.627 48.8H12.787Z" fill="#AF0F07"/>
</svg>
