<svg width="38" height="59" viewBox="0 0 38 59" fill="none" xmlns="http://www.w3.org/2000/svg">
<path d="M36.6367 3.36084H1.25477C1.08988 3.36045 0.926537 3.39253 0.774124 3.45525C0.62171 3.51797 0.483229 3.61008 0.366635 3.7263C0.25004 3.84252 0.157629 3.98056 0.0947109 4.13248C0.031793 4.28441 -0.000391354 4.44723 3.59122e-06 4.61159V55.0414C3.59122e-06 55.3732 0.1322 55.6913 0.367514 55.9258C0.602828 56.1604 0.921982 56.2922 1.25477 56.2922H36.6367C36.9693 56.2914 37.2879 56.1594 37.5231 55.925C37.7582 55.6906 37.8907 55.3729 37.8915 55.0414V4.61159C37.8915 4.27987 37.7593 3.96174 37.524 3.72718C37.2887 3.49262 36.9695 3.36084 36.6367 3.36084Z" fill="white"/>
<path d="M10.4033 10.5316C9.56774 9.6212 8.60645 8.7406 8.1872 8.26598C7.88773 7.91672 7.66613 7.65105 7.58827 7.5406V7.48389L7.56731 7.51075L7.54335 7.48389V7.5406C7.45351 7.65105 7.24388 7.91672 6.94441 8.26598C6.53714 8.73463 5.56387 9.6212 4.72836 10.5316C4.3947 10.8632 4.15097 11.2738 4.02003 11.7249C3.88908 12.176 3.8752 12.6528 3.9797 13.1108C4.13841 13.866 4.932 14.5764 6.17479 14.4212C6.52287 14.3837 6.84382 14.2162 7.07319 13.9525C7.01226 14.5561 6.76058 15.1247 6.35447 15.5764H8.76816C8.39891 15.111 8.17223 14.5492 8.11533 13.9585C8.34178 14.2154 8.65521 14.3801 8.99576 14.4212C10.2385 14.5764 11.0321 13.866 11.1908 13.1108C11.2905 12.6496 11.2704 12.1707 11.1326 11.7194C10.9948 11.2681 10.7438 10.8593 10.4033 10.5316Z" fill="#151515"/>
<path d="M10.7059 48V15.6H16.6259V29.84L23.0259 15.6H28.6659L22.4659 30.08L29.3059 48H23.4259L17.9859 33.24L16.6259 35.72V48H10.7059Z" fill="black"/>
</svg>
