<svg width="38" height="38" viewBox="0 0 38 38" fill="none" xmlns="http://www.w3.org/2000/svg">
<g clip-path="url(#clip0_40_15)">
<path d="M38.0509 19C38.057 20.3449 37.9149 21.6863 37.6271 23C37.1615 25.2044 36.3001 27.3062 35.0848 29.2034C33.6076 31.5311 31.6411 33.5092 29.3221 35C26.2576 36.966 22.6917 38.0075 19.0509 38C17.6841 37.9967 16.3212 37.8548 14.9831 37.5763C10.0905 36.4852 5.82655 33.5066 3.11866 29.2882C1.89782 27.4207 1.02499 25.3478 0.542386 23.1695C0.242366 21.7998 0.0889786 20.4021 0.0847778 19C0.0870394 17.6724 0.229065 16.3487 0.508507 15.0509C0.964307 12.8675 1.80819 10.7836 3.00003 8.89831C4.46187 6.58101 6.40385 4.60433 8.69492 3.10171C10.5644 1.87735 12.636 0.993651 14.8136 0.491536C16.2136 0.163535 17.6468 -0.00140461 19.0848 9.00963e-06C20.3889 0.00506996 21.6893 0.141353 22.9661 0.406792C25.1393 0.887989 27.2105 1.74862 29.0848 2.94916C31.8221 4.64836 34.0787 7.02033 35.6393 9.83898C37.2 12.6576 38.0127 15.829 38 19.0509L38.0509 19Z" fill="#05A43B"/>
<path d="M29.8475 19C29.8475 21.1454 29.2113 23.2427 28.0193 25.0265C26.8274 26.8104 25.1332 28.2007 23.1511 29.0217C21.169 29.8427 18.988 30.0576 16.8838 29.639C14.7796 29.2205 12.8467 28.1873 11.3297 26.6703C9.81263 25.1533 8.77951 23.2204 8.36096 21.1162C7.94241 19.012 8.15723 16.831 8.97825 14.8488C9.79926 12.8667 11.1896 11.1726 12.9735 9.98065C14.7573 8.78872 16.8546 8.15253 19 8.15253C21.8769 8.15253 24.636 9.29538 26.6703 11.3297C28.7046 13.364 29.8475 16.1231 29.8475 19Z" fill="#F1F2F2"/>
<path d="M22.8814 0.40677L21.8136 5.49152C20.8891 5.29249 19.9456 5.19587 19 5.20338C17.9445 5.19958 16.8922 5.31903 15.8644 5.55931L14.7288 0.474568C16.1288 0.146567 17.5621 -0.0183724 19 -0.0169588C20.3047 -0.00632318 21.6051 0.135635 22.8814 0.40677Z" fill="#F1F2F2"/>
<path d="M23.1017 37.5593C21.7542 37.8527 20.379 38.0004 19 38C17.6332 37.9967 16.2703 37.8547 14.9322 37.5763L16.0169 32.4915C16.9961 32.7101 17.9967 32.8182 19 32.8136C19.9977 32.8191 20.9928 32.711 21.9661 32.4915L23.1017 37.5593Z" fill="#F1F2F2"/>
<path d="M38.0508 19C38.057 20.3448 37.9149 21.6863 37.6271 23L32.5424 21.9322C32.9712 19.9552 32.9712 17.9092 32.5424 15.9322L37.6271 14.7966C37.9231 16.1778 38.0652 17.5875 38.0508 19Z" fill="#F1F2F2"/>
<path d="M5.47457 22.0339L0.389824 23.1695C0.0898042 21.7998 -0.0636093 20.4021 -0.0678101 19C-0.0655485 17.6724 0.0764772 16.3487 0.355919 15.0508L5.44066 16.1186C5.24441 17.0667 5.14223 18.0318 5.13559 19C5.13402 20.0208 5.24773 21.0386 5.47457 22.0339Z" fill="#F1F2F2"/>
<path d="M11.4068 7.42372C9.73179 8.5113 8.31458 9.95166 7.25426 11.6441L2.91528 8.89829C4.37712 6.58099 6.31913 4.6043 8.6102 3.10168L11.4068 7.42372Z" fill="#F1F2F2"/>
<path d="M35.0339 29.2034C33.5567 31.5311 31.5902 33.5092 29.2712 35L26.4745 30.678C28.17 29.593 29.6099 28.1531 30.6949 26.4576L35.0339 29.2034Z" fill="#F1F2F2"/>
<path d="M34.9322 8.62712L30.6102 11.4237C29.5005 9.74026 28.0444 8.31299 26.339 7.23729L29.0848 2.94916C31.4171 4.40243 33.411 6.33854 34.9322 8.62712Z" fill="#F1F2F2"/>
<path d="M11.5424 30.678L8.7966 35.0339C6.47987 33.5616 4.51303 31.6005 3.03387 29.2881L7.33897 26.4915C8.4191 28.176 9.85354 29.6046 11.5424 30.678Z" fill="#F1F2F2"/>
<path d="M9.4826 22V20.8622L11.87 18.772C12.049 18.6101 12.2013 18.462 12.3271 18.3278C12.4528 18.1914 12.5487 18.055 12.6147 17.9187C12.6808 17.7802 12.7138 17.63 12.7138 17.468C12.7138 17.2869 12.6744 17.1325 12.5955 17.0046C12.5167 16.8746 12.408 16.7745 12.2695 16.7042C12.131 16.6339 11.9723 16.5987 11.7933 16.5987C11.6122 16.5987 11.4535 16.636 11.3171 16.7106C11.1808 16.783 11.0742 16.8885 10.9975 17.027C10.9229 17.1655 10.8857 17.3338 10.8857 17.532H9.38672C9.38672 17.0866 9.48686 16.7021 9.68714 16.3782C9.88743 16.0543 10.1687 15.805 10.5309 15.6303C10.8952 15.4535 11.3182 15.3651 11.7997 15.3651C12.2962 15.3651 12.7276 15.4482 13.0941 15.6143C13.4606 15.7805 13.744 16.0128 13.9442 16.3111C14.1467 16.6072 14.2479 16.9513 14.2479 17.3434C14.2479 17.5927 14.1978 17.8398 14.0977 18.0849C13.9975 18.3299 13.8175 18.6005 13.5575 18.8967C13.2997 19.1928 12.9332 19.5476 12.4581 19.9609L11.6751 20.6832V20.7248H14.3278V22H9.4826ZM17.1682 22V15.4545H19.8976C20.3877 15.4545 20.7979 15.5238 21.1281 15.6623C21.4605 15.8008 21.7098 15.9947 21.876 16.244C22.0443 16.4933 22.1285 16.782 22.1285 17.1101C22.1285 17.3594 22.0763 17.582 21.9719 17.7781C21.8675 17.9719 21.7236 18.1328 21.5404 18.2607C21.3572 18.3885 21.1452 18.478 20.9044 18.5291V18.593C21.1686 18.6058 21.4126 18.6772 21.6363 18.8072C21.8621 18.9371 22.0432 19.1183 22.1796 19.3505C22.316 19.5806 22.3841 19.8533 22.3841 20.1687C22.3841 20.5202 22.2947 20.8345 22.1157 21.1115C21.9367 21.3864 21.6778 21.6037 21.339 21.7635C21.0003 21.9212 20.589 22 20.1054 22H17.1682ZM18.7503 20.7248H19.7282C20.0713 20.7248 20.3238 20.6598 20.4857 20.5298C20.6498 20.3999 20.7318 20.2188 20.7318 19.9865C20.7318 19.8182 20.6924 19.6733 20.6135 19.5518C20.5347 19.4283 20.4229 19.3335 20.278 19.2674C20.1331 19.1992 19.9594 19.1651 19.757 19.1651H18.7503V20.7248ZM18.7503 18.1456H19.626C19.7986 18.1456 19.952 18.1168 20.0862 18.0593C20.2204 18.0018 20.3248 17.9187 20.3994 17.81C20.4761 17.7013 20.5145 17.5703 20.5145 17.4169C20.5145 17.1974 20.4367 17.0249 20.2812 16.8991C20.1256 16.7734 19.9157 16.7106 19.6515 16.7106H18.7503V18.1456ZM23.1448 22V15.4545H25.8742C26.3643 15.4545 26.7744 15.5238 27.1047 15.6623C27.4371 15.8008 27.6863 15.9947 27.8525 16.244C28.0209 16.4933 28.105 16.782 28.105 17.1101C28.105 17.3594 28.0528 17.582 27.9484 17.7781C27.844 17.9719 27.7002 18.1328 27.517 18.2607C27.3337 18.3885 27.1217 18.478 26.8809 18.5291V18.593C27.1452 18.6058 27.3891 18.6772 27.6128 18.8072C27.8387 18.9371 28.0198 19.1183 28.1562 19.3505C28.2925 19.5806 28.3607 19.8533 28.3607 20.1687C28.3607 20.5202 28.2712 20.8345 28.0922 21.1115C27.9133 21.3864 27.6544 21.6037 27.3156 21.7635C26.9768 21.9212 26.5656 22 26.0819 22H23.1448ZM24.7268 20.7248H25.7048C26.0479 20.7248 26.3003 20.6598 26.4623 20.5298C26.6263 20.3999 26.7084 20.2188 26.7084 19.9865C26.7084 19.8182 26.6689 19.6733 26.5901 19.5518C26.5113 19.4283 26.3994 19.3335 26.2545 19.2674C26.1096 19.1992 25.936 19.1651 25.7336 19.1651H24.7268V20.7248ZM24.7268 18.1456H25.6025C25.7751 18.1456 25.9285 18.1168 26.0628 18.0593C26.197 18.0018 26.3014 17.9187 26.376 17.81C26.4527 17.7013 26.491 17.5703 26.491 17.4169C26.491 17.1974 26.4133 17.0249 26.2577 16.8991C26.1022 16.7734 25.8923 16.7106 25.6281 16.7106H24.7268V18.1456Z" fill="#2D2D2D"/>
</g>
<defs>
<clipPath id="clip0_40_15">
<rect width="38" height="38" fill="white"/>
</clipPath>
</defs>
</svg>
